{"glyphs":{"0":{"ha":1056,"x_min":56,"x_max":1000,"o":"m 528 681 q 451 635 486 681 q 417 486 417 590 q 451 337 417 382 q 528 292 486 292 q 604 337 569 292 q 639 486 639 382 q 604 635 639 590 q 528 681 569 681 m 528 -21 q 343 17 429 -21 q 193 121 257 54 q 92 281 129 188 q 56 486 56 374 q 92 692 56 599 q 193 851 129 785 q 343 956 257 918 q 528 993 429 993 q 713 956 626 993 q 863 851 799 918 q 963 692 926 785 q 1000 486 1000 599 q 963 281 1000 374 q 863 121 926 188 q 713 17 799 54 q 528 -21 626 -21 z "},"1":{"ha":681,"x_min":28,"x_max":597,"o":"m 597 972 l 597 0 l 236 0 l 236 639 l 28 569 l 28 875 l 264 972 l 597 972 z "},"2":{"ha":910,"x_min":56,"x_max":840,"o":"m 840 681 q 828 597 840 636 q 794 522 815 557 q 747 458 774 488 q 694 404 721 428 q 549 306 629 349 l 826 306 l 826 0 l 76 0 l 76 278 q 271 411 185 344 q 342 469 307 439 q 405 530 378 500 q 449 588 432 560 q 465 639 465 615 q 445 690 465 671 q 389 708 425 708 q 308 697 344 708 q 244 669 272 685 q 188 632 213 653 l 56 840 q 151 917 96 882 q 272 969 200 944 q 444 993 344 993 q 609 967 536 993 q 733 897 682 940 q 813 797 785 853 q 840 681 840 740 z "},"3":{"ha":882,"x_min":42,"x_max":826,"o":"m 590 556 q 708 506 656 540 q 751 470 731 490 q 789 423 772 450 q 816 362 806 396 q 826 285 826 328 q 799 173 826 228 q 719 75 771 118 q 595 6 668 32 q 431 -21 522 -21 q 258 3 331 -21 q 138 56 186 26 q 42 132 82 89 l 174 340 q 231 301 199 318 q 294 275 258 286 q 375 264 331 264 q 431 282 411 264 q 451 326 451 300 q 431 371 451 353 q 375 389 411 389 l 257 389 l 257 569 l 424 681 l 104 681 l 104 972 l 785 972 l 785 681 l 590 556 z "},"4":{"ha":917,"x_min":42,"x_max":889,"o":"m 889 417 l 889 153 l 806 153 l 806 0 l 444 0 l 444 153 l 42 153 l 42 417 l 389 972 l 806 972 l 806 417 l 889 417 m 444 417 l 444 597 l 361 417 l 444 417 z "},"5":{"ha":854,"x_min":28,"x_max":813,"o":"m 479 625 q 613 601 551 625 q 719 533 675 576 q 788 432 763 490 q 813 306 813 374 q 785 181 813 240 q 706 77 757 122 q 581 6 654 32 q 417 -21 508 -21 q 244 3 317 -21 q 124 56 172 26 q 28 132 68 89 l 160 340 q 214 301 185 318 q 272 275 239 286 q 340 264 304 264 q 413 288 388 264 q 438 347 438 311 q 413 407 438 383 q 340 431 388 431 q 299 426 319 431 q 264 417 279 422 q 229 403 246 411 l 63 514 l 132 972 l 757 972 l 757 681 l 396 681 l 382 611 q 410 618 394 614 q 440 623 422 621 q 479 625 458 625 z "},"6":{"ha":931,"x_min":56,"x_max":889,"o":"m 403 583 q 444 618 419 603 q 497 642 465 631 q 569 653 528 653 q 701 630 642 653 q 801 565 760 607 q 866 465 843 524 q 889 333 889 406 q 861 193 889 258 q 783 81 833 128 q 660 6 732 33 q 500 -21 589 -21 q 319 13 401 -21 q 179 110 238 46 q 88 269 121 175 q 56 486 56 364 q 92 692 56 599 q 190 851 128 785 q 336 956 253 918 q 514 993 419 993 q 646 978 588 993 q 746 947 704 964 q 833 903 794 928 l 736 681 q 690 701 715 692 q 642 715 669 708 q 583 722 615 722 q 508 710 542 722 q 451 679 475 699 q 415 635 428 660 q 403 583 403 610 m 569 333 q 548 406 569 381 q 500 431 526 431 q 452 406 474 431 q 431 333 431 381 q 452 261 431 286 q 500 236 474 236 q 548 261 526 236 q 569 333 569 286 z "},"7":{"ha":819,"x_min":56,"x_max":792,"o":"m 792 681 l 458 0 l 83 0 l 410 667 l 56 667 l 56 972 l 792 972 l 792 681 z "},"8":{"ha":958,"x_min":42,"x_max":917,"o":"m 479 778 q 435 758 453 778 q 417 701 417 738 q 435 645 417 665 q 479 625 453 625 q 524 645 506 625 q 542 701 542 665 q 524 758 542 738 q 479 778 506 778 m 479 389 q 425 365 447 389 q 403 306 403 342 q 425 246 403 269 q 479 222 447 222 q 533 246 511 222 q 556 306 556 269 q 533 365 556 342 q 479 389 511 389 m 479 993 q 642 969 571 993 q 761 906 713 946 q 835 817 810 867 q 861 715 861 767 q 840 619 861 657 q 792 557 818 581 q 722 514 761 529 l 722 507 q 819 458 776 490 q 886 384 856 431 q 917 264 917 338 q 890 158 917 210 q 810 67 864 107 q 674 3 756 28 q 479 -21 592 -21 q 285 3 367 -21 q 149 67 203 28 q 68 158 94 107 q 42 264 42 210 q 72 384 42 338 q 139 458 103 431 q 236 507 182 490 l 236 514 q 167 557 197 529 q 119 619 140 581 q 97 715 97 657 q 123 817 97 767 q 197 906 149 867 q 317 969 246 946 q 479 993 388 993 z "},"9":{"ha":931,"x_min":42,"x_max":875,"o":"m 528 389 q 486 354 511 369 q 434 330 465 340 q 361 319 403 319 q 228 342 288 319 q 128 406 169 364 q 64 506 86 447 q 42 639 42 565 q 69 779 42 714 q 148 892 97 844 q 270 966 199 939 q 431 993 342 993 q 611 960 529 993 q 751 862 693 926 q 842 703 810 797 q 875 486 875 608 q 838 281 875 374 q 739 121 801 188 q 593 17 676 54 q 417 -21 510 -21 q 284 -7 343 -21 q 183 24 225 7 q 97 69 135 43 l 194 292 q 239 271 214 279 q 288 256 260 263 q 347 250 315 250 q 422 262 389 250 q 479 293 456 274 q 515 338 503 313 q 528 389 528 363 m 361 639 q 383 567 361 592 q 431 542 404 542 q 478 567 457 542 q 500 639 500 592 q 478 711 500 686 q 431 736 457 736 q 383 711 404 736 q 361 639 361 686 z "},"D":{"ha":1111,"x_min":83,"x_max":1056,"o":"m 500 292 q 623 339 579 292 q 667 486 667 386 q 623 633 667 586 q 500 681 579 681 l 444 681 l 444 292 l 500 292 m 1056 486 q 1021 282 1056 374 q 917 124 986 190 q 743 22 847 58 q 500 -14 639 -14 q 342 -12 417 -14 q 208 -7 267 -10 q 83 0 142 -4 l 83 972 q 208 979 142 975 q 342 984 267 982 q 500 986 417 986 q 743 950 639 986 q 917 848 847 914 q 1021 690 986 782 q 1056 486 1056 599 z "},"E":{"ha":903,"x_min":83,"x_max":861,"o":"m 444 278 l 861 278 l 861 0 l 83 0 l 83 972 l 833 972 l 833 694 l 444 694 l 444 625 l 806 625 l 806 347 l 444 347 l 444 278 z "},"F":{"ha":833,"x_min":83,"x_max":806,"o":"m 806 972 l 806 667 l 444 667 l 444 556 l 736 556 l 736 278 l 444 278 l 444 0 l 83 0 l 83 972 l 806 972 z "},"G":{"ha":1028,"x_min":56,"x_max":972,"o":"m 639 319 l 639 486 l 972 486 l 972 146 q 875 63 932 99 q 749 5 825 31 q 569 -21 674 -21 q 366 18 460 -21 q 203 126 272 57 q 95 287 135 194 q 56 486 56 379 q 95 685 56 593 q 203 847 135 778 q 366 954 272 915 q 569 993 460 993 q 742 969 669 993 q 863 917 814 944 q 958 840 918 882 l 792 576 q 738 614 767 597 q 680 641 713 629 q 611 653 647 653 q 491 606 538 653 q 444 486 444 560 q 491 366 444 413 q 611 319 538 319 l 639 319 z "},"H":{"ha":1111,"x_min":83,"x_max":1028,"o":"m 444 639 l 667 639 l 667 972 l 1028 972 l 1028 0 l 667 0 l 667 333 l 444 333 l 444 0 l 83 0 l 83 972 l 444 972 l 444 639 z "},"I":{"ha":528,"x_min":83,"x_max":444,"o":"m 444 0 l 83 0 l 83 972 l 444 972 l 444 0 z "},"J":{"ha":750,"x_min":0,"x_max":667,"o":"m 306 972 l 667 972 l 667 431 q 635 233 667 321 q 551 85 604 146 q 426 -9 497 24 q 278 -42 356 -42 q 158 -28 210 -42 q 71 0 107 -15 q 0 42 29 18 l 97 333 q 125 319 110 325 q 156 310 138 314 q 194 306 174 306 q 274 339 242 306 q 306 431 306 372 l 306 972 z "},"K":{"ha":1042,"x_min":83,"x_max":1056,"o":"m 764 486 l 1056 0 l 639 0 l 444 389 l 444 0 l 83 0 l 83 972 l 444 972 l 444 583 l 611 972 l 1028 972 l 764 486 z "},"L":{"ha":847,"x_min":83,"x_max":819,"o":"m 444 319 l 819 319 l 819 0 l 83 0 l 83 972 l 444 972 l 444 319 z "},"M":{"ha":1514,"x_min":83,"x_max":1431,"o":"m 611 0 l 444 542 l 444 0 l 83 0 l 83 972 l 597 972 l 757 444 l 917 972 l 1431 972 l 1431 0 l 1069 0 l 1069 542 l 903 0 l 611 0 z "},"N":{"ha":1167,"x_min":83,"x_max":1083,"o":"m 444 431 l 444 0 l 83 0 l 83 972 l 486 972 l 722 542 l 722 972 l 1083 972 l 1083 0 l 681 0 l 444 431 z "},"O":{"ha":1194,"x_min":56,"x_max":1139,"o":"m 750 486 q 738 553 750 522 q 704 606 725 583 q 656 640 683 628 q 597 653 628 653 q 538 640 565 653 q 489 606 510 628 q 456 553 468 583 q 444 486 444 522 q 456 419 444 450 q 489 367 468 389 q 538 332 510 344 q 597 319 565 319 q 656 332 628 319 q 704 367 683 344 q 738 419 725 389 q 750 486 750 450 m 1139 486 q 1099 287 1139 379 q 988 126 1060 194 q 817 18 917 57 q 597 -21 717 -21 q 378 18 478 -21 q 206 126 278 57 q 95 287 135 194 q 56 486 56 379 q 95 685 56 593 q 206 847 135 778 q 378 954 278 915 q 597 993 478 993 q 817 954 717 993 q 988 847 917 915 q 1099 685 1060 778 q 1139 486 1139 593 z "},"P":{"ha":986,"x_min":83,"x_max":944,"o":"m 500 986 q 698 961 614 986 q 837 892 782 936 q 918 784 892 847 q 944 646 944 721 q 919 508 944 571 q 845 400 893 444 q 728 331 797 356 q 569 306 658 306 q 526 306 549 306 q 486 308 504 307 q 444 313 464 310 l 444 0 l 83 0 l 83 972 q 208 979 142 975 q 342 984 267 982 q 500 986 417 986 m 500 569 q 560 592 536 569 q 583 646 583 614 q 560 700 583 678 q 500 722 536 722 l 444 722 l 444 569 l 500 569 z "},"Q":{"ha":1194,"x_min":56,"x_max":1139,"o":"m 1139 486 q 1127 374 1139 425 q 1097 279 1115 322 q 1053 202 1078 236 q 1003 142 1028 168 q 868 42 943 79 q 897 0 879 18 q 938 -28 913 -15 q 1000 -42 964 -42 q 1057 -35 1032 -42 q 1083 -28 1071 -32 l 1083 -278 q 1047 -285 1067 -282 q 1008 -290 1031 -287 q 958 -292 985 -292 q 857 -280 904 -292 q 769 -249 810 -268 q 697 -204 729 -229 q 638 -153 664 -179 q 535 -14 576 -92 q 346 31 433 -8 q 194 138 258 71 q 92 293 129 204 q 56 486 56 382 q 95 685 56 593 q 206 847 135 778 q 378 954 278 915 q 597 993 478 993 q 817 954 717 993 q 988 847 917 915 q 1099 685 1060 778 q 1139 486 1139 593 m 750 486 q 738 553 750 522 q 704 606 725 583 q 656 640 683 628 q 597 653 628 653 q 538 640 565 653 q 489 606 510 628 q 456 553 468 583 q 444 486 444 522 q 456 419 444 450 q 489 367 468 389 q 538 332 510 344 q 597 319 565 319 q 656 332 628 319 q 704 367 683 344 q 738 419 725 389 q 750 486 750 450 z "},"R":{"ha":1014,"x_min":83,"x_max":1042,"o":"m 625 0 l 458 319 l 444 319 l 444 0 l 83 0 l 83 972 q 207 979 140 975 q 335 984 264 982 q 486 986 407 986 q 684 961 600 986 q 823 892 768 936 q 904 784 878 847 q 931 646 931 721 q 911 518 931 569 q 868 435 892 467 q 806 375 840 397 l 1042 0 l 625 0 m 486 569 q 546 592 522 569 q 569 646 569 614 q 546 700 569 678 q 486 722 522 722 l 444 722 l 444 569 l 486 569 z "},"T":{"ha":944,"x_min":28,"x_max":917,"o":"m 917 972 l 917 653 l 653 653 l 653 0 l 292 0 l 292 653 l 28 653 l 28 972 l 917 972 z "},"U":{"ha":1111,"x_min":83,"x_max":1028,"o":"m 556 326 q 635 360 603 326 q 667 451 667 393 l 667 972 l 1028 972 l 1028 451 q 993 260 1028 347 q 896 111 958 174 q 747 14 833 49 q 556 -21 660 -21 q 365 14 451 -21 q 215 111 278 49 q 118 260 153 174 q 83 451 83 347 l 83 972 l 444 972 l 444 451 q 476 360 444 393 q 556 326 508 326 z "},"V":{"ha":1042,"x_min":14,"x_max":1028,"o":"m 417 972 l 521 403 l 625 972 l 1028 972 l 757 0 l 285 0 l 14 972 l 417 972 z "},"W":{"ha":1458,"x_min":14,"x_max":1444,"o":"m 993 438 l 1069 972 l 1444 972 l 1236 0 l 833 0 l 729 493 l 625 0 l 222 0 l 14 972 l 389 972 l 465 438 l 569 972 l 889 972 l 993 438 z "},"X":{"ha":1028,"x_min":-14,"x_max":1042,"o":"m 0 972 l 417 972 l 514 708 l 611 972 l 1028 972 l 764 486 l 1042 0 l 625 0 l 514 292 l 403 0 l -14 0 l 264 486 l 0 972 z "},"Y":{"ha":972,"x_min":-28,"x_max":1000,"o":"m 486 694 l 583 972 l 1000 972 l 667 375 l 667 0 l 306 0 l 306 375 l -28 972 l 389 972 l 486 694 z "},"Z":{"ha":958,"x_min":69,"x_max":889,"o":"m 528 306 l 889 306 l 889 0 l 69 0 l 69 6 l 69 306 l 417 667 l 97 667 l 97 972 l 875 972 l 875 667 l 528 306 z "},"Б":{"ha":1000,"x_min":83,"x_max":972,"o":"m 444 618 q 489 621 464 619 q 538 624 510 622 q 597 625 565 625 q 756 601 686 625 q 873 533 825 576 q 947 432 921 490 q 972 306 972 374 q 946 179 972 238 q 865 78 919 121 q 726 10 810 35 q 528 -14 642 -14 q 359 -12 439 -14 q 217 -7 279 -10 q 83 0 144 -4 l 83 972 l 847 972 l 847 708 l 444 708 l 444 618 m 444 375 l 444 236 l 528 236 q 588 258 564 236 q 611 306 611 279 q 588 353 611 332 q 528 375 564 375 l 444 375 z "},"Г":{"ha":833,"x_min":83,"x_max":819,"o":"m 444 0 l 83 0 l 83 972 l 819 972 l 819 653 l 444 653 l 444 0 z "},"Д":{"ha":1125,"x_min":0,"x_max":1111,"o":"m 1111 292 l 1111 -181 l 750 -181 l 750 0 l 361 0 l 361 -181 l 0 -181 l 0 292 l 83 292 q 132 424 110 335 q 165 631 150 499 q 181 972 181 764 l 1000 972 l 1000 292 l 1111 292 m 639 292 l 639 681 l 500 681 q 492 508 500 581 q 472 388 483 436 q 444 292 460 332 l 639 292 z "},"Ё":{"ha":903,"x_min":83,"x_max":861,"o":"m 444 278 l 861 278 l 861 0 l 83 0 l 83 972 l 833 972 l 833 694 l 444 694 l 444 625 l 806 625 l 806 347 l 444 347 l 444 278 m 736 1181 q 700 1092 736 1128 q 611 1056 664 1056 q 522 1092 558 1056 q 486 1181 486 1128 q 522 1269 486 1233 q 611 1306 558 1306 q 700 1269 664 1306 q 736 1181 736 1233 m 431 1181 q 394 1092 431 1128 q 306 1056 358 1056 q 217 1092 253 1056 q 181 1181 181 1128 q 217 1269 181 1233 q 306 1306 253 1306 q 394 1269 358 1306 q 431 1181 431 1233 z "},"Ж":{"ha":1556,"x_min":-14,"x_max":1569,"o":"m 1278 486 l 1569 0 l 1153 0 l 958 389 l 958 0 l 597 0 l 597 389 l 403 0 l -14 0 l 278 486 l 14 972 l 431 972 l 597 583 l 597 972 l 958 972 l 958 583 l 1125 972 l 1542 972 l 1278 486 z "},"З":{"ha":882,"x_min":14,"x_max":840,"o":"m 646 507 q 743 464 700 494 q 810 390 779 438 q 840 264 840 343 q 815 158 840 210 q 739 67 789 107 q 615 3 689 28 q 444 -21 540 -21 q 248 5 329 -21 q 114 63 167 31 q 14 146 53 99 l 146 354 q 211 308 175 328 q 286 278 243 292 q 382 264 329 264 q 433 281 414 264 q 451 319 451 299 q 433 358 451 340 q 383 375 414 375 l 257 375 l 257 611 l 403 611 q 450 625 435 611 q 465 660 465 639 q 450 694 465 681 q 403 708 435 708 q 319 697 358 708 q 251 669 281 685 q 188 632 217 653 l 56 840 q 149 917 93 882 q 266 969 196 944 q 431 993 336 993 q 601 969 526 993 q 725 906 675 946 q 801 817 775 867 q 826 715 826 767 q 798 613 826 653 q 736 551 769 574 q 646 514 696 526 l 646 507 z "},"И":{"ha":1139,"x_min":83,"x_max":1056,"o":"m 667 972 l 1056 972 l 1056 0 l 694 0 l 694 472 l 472 0 l 83 0 l 83 972 l 444 972 l 444 500 l 667 972 z "},"Й":{"ha":1139,"x_min":83,"x_max":1056,"o":"m 667 972 l 1056 972 l 1056 0 l 694 0 l 694 472 l 472 0 l 83 0 l 83 972 l 444 972 l 444 500 l 667 972 m 569 1278 q 620 1297 601 1278 q 639 1347 639 1315 l 847 1347 q 827 1233 847 1285 q 771 1146 807 1182 q 683 1090 735 1110 q 569 1069 632 1069 q 456 1090 507 1069 q 368 1146 404 1110 q 312 1233 332 1182 q 292 1347 292 1285 l 500 1347 q 519 1297 500 1315 q 569 1278 538 1278 z "},"Л":{"ha":1111,"x_min":0,"x_max":1028,"o":"m 1028 0 l 667 0 l 667 681 l 542 681 q 510 351 542 485 q 424 134 478 217 q 296 15 369 51 q 139 -21 222 -21 q 88 -18 113 -21 q 43 -11 63 -15 q 0 0 19 -6 l 0 264 l 28 264 q 74 273 51 264 q 117 308 97 282 q 154 383 138 335 q 183 510 171 432 q 201 702 194 589 q 208 972 208 815 l 1028 972 l 1028 0 z "},"П":{"ha":1111,"x_min":83,"x_max":1028,"o":"m 1028 972 l 1028 0 l 667 0 l 667 667 l 444 667 l 444 0 l 83 0 l 83 972 l 1028 972 z "},"У":{"ha":986,"x_min":14,"x_max":1014,"o":"m 597 972 l 1014 972 l 715 333 q 538 67 632 156 q 313 -21 443 -21 q 217 -10 260 -21 q 142 17 174 1 q 76 56 106 33 l 160 319 q 194 306 176 311 q 230 296 210 300 q 271 292 250 292 q 297 298 286 292 q 314 313 307 304 q 326 333 321 321 l 14 972 l 431 972 l 521 653 l 597 972 z "},"Ф":{"ha":1389,"x_min":28,"x_max":1361,"o":"m 875 0 l 514 0 l 514 111 q 303 140 394 111 q 151 220 213 169 q 59 340 90 271 q 28 486 28 408 q 59 633 28 564 q 151 752 90 701 q 303 832 213 803 q 514 861 394 861 l 514 972 l 875 972 l 875 861 q 1085 832 994 861 q 1238 752 1176 803 q 1330 633 1299 701 q 1361 486 1361 564 q 1330 340 1361 408 q 1238 220 1299 271 q 1085 140 1176 169 q 875 111 994 111 l 875 0 m 514 625 q 425 587 461 625 q 389 486 389 549 q 425 385 389 424 q 514 347 461 347 l 514 625 m 875 347 q 964 385 928 347 q 1000 486 1000 424 q 964 587 1000 549 q 875 625 928 625 l 875 347 z "},"Ц":{"ha":1139,"x_min":83,"x_max":1125,"o":"m 1125 306 l 1125 -181 l 764 -181 l 764 0 l 83 0 l 83 972 l 444 972 l 444 306 l 653 306 l 653 972 l 1014 972 l 1014 306 l 1125 306 z "},"Ч":{"ha":1056,"x_min":69,"x_max":972,"o":"m 972 972 l 972 0 l 611 0 l 611 319 q 554 285 586 300 q 488 260 526 271 q 403 250 450 250 q 158 345 246 250 q 69 639 69 440 l 69 972 l 431 972 l 431 639 q 458 569 431 597 q 521 542 485 542 q 584 569 557 542 q 611 639 611 597 l 611 972 l 972 972 z "},"Щ":{"ha":1583,"x_min":83,"x_max":1569,"o":"m 1569 306 l 1569 -181 l 1208 -181 l 1208 0 l 83 0 l 83 972 l 444 972 l 444 306 l 590 306 l 590 972 l 951 972 l 951 306 l 1097 306 l 1097 972 l 1458 972 l 1458 306 l 1569 306 z "},"Ъ":{"ha":1083,"x_min":14,"x_max":1042,"o":"m 597 -14 q 440 -12 514 -14 q 313 -7 367 -10 q 194 0 247 -4 l 194 653 l 14 653 l 14 972 l 556 972 l 556 688 q 590 690 572 689 q 626 693 606 692 q 667 694 646 694 q 825 669 756 694 q 942 598 894 644 q 1016 486 990 551 q 1042 340 1042 421 q 1015 194 1042 260 q 934 83 989 129 q 795 11 879 36 q 597 -14 711 -14 m 556 431 l 556 250 l 597 250 q 657 274 633 250 q 681 340 681 299 q 657 406 681 382 q 597 431 633 431 l 556 431 z "},"Ы":{"ha":1444,"x_min":83,"x_max":1361,"o":"m 486 -14 q 329 -12 403 -14 q 201 -7 256 -10 q 83 0 136 -4 l 83 972 l 444 972 l 444 688 q 479 690 461 689 q 515 693 494 692 q 556 694 535 694 q 714 669 644 694 q 831 598 783 644 q 905 486 879 551 q 931 340 931 421 q 904 194 931 260 q 823 83 878 129 q 684 11 768 36 q 486 -14 600 -14 m 444 431 l 444 250 l 486 250 q 546 274 522 250 q 569 340 569 299 q 546 406 569 382 q 486 431 522 431 l 444 431 m 1361 0 l 1000 0 l 1000 972 l 1361 972 l 1361 0 z "},"Ь":{"ha":986,"x_min":83,"x_max":944,"o":"m 500 -14 q 342 -12 417 -14 q 208 -7 267 -10 q 83 0 142 -4 l 83 972 l 444 972 l 444 688 q 486 690 464 689 q 526 693 504 692 q 569 694 549 694 q 728 669 658 694 q 845 598 797 644 q 919 486 893 551 q 944 340 944 421 q 918 194 944 260 q 837 83 892 129 q 698 11 782 36 q 500 -14 614 -14 m 444 431 l 444 250 l 500 250 q 560 274 536 250 q 583 340 583 299 q 560 406 583 382 q 500 431 536 431 l 444 431 z "},"Э":{"ha":986,"x_min":28,"x_max":931,"o":"m 417 993 q 620 954 526 993 q 783 847 714 915 q 891 685 851 778 q 931 486 931 593 q 891 287 931 379 q 783 126 851 194 q 620 18 714 57 q 417 -21 526 -21 q 244 3 317 -21 q 124 56 172 26 q 28 132 68 89 l 181 368 q 235 329 206 346 q 292 303 260 314 q 361 292 325 292 q 438 305 408 292 q 488 333 468 318 q 521 375 508 351 l 292 375 l 292 597 l 521 597 q 488 639 508 621 q 438 667 468 654 q 361 681 408 681 q 292 669 325 681 q 235 642 260 657 q 181 604 206 625 l 28 840 q 124 917 68 882 q 244 969 172 944 q 417 993 317 993 z "},"Ю":{"ha":1583,"x_min":83,"x_max":1528,"o":"m 1028 993 q 1229 956 1138 993 q 1388 851 1321 918 q 1491 692 1454 785 q 1528 486 1528 599 q 1491 281 1528 374 q 1388 121 1454 188 q 1229 17 1321 54 q 1028 -21 1138 -21 q 892 -6 953 -21 q 783 34 831 10 q 699 90 735 58 q 638 156 664 122 q 549 333 576 233 l 444 333 l 444 0 l 83 0 l 83 972 l 444 972 l 444 639 l 549 639 q 638 815 576 738 q 699 881 664 849 q 783 938 735 913 q 892 978 831 963 q 1028 993 953 993 m 1028 319 q 1104 361 1069 319 q 1139 486 1139 403 q 1104 611 1139 569 q 1028 653 1069 653 q 951 611 986 653 q 917 486 917 569 q 951 361 917 403 q 1028 319 986 319 z "},"Я":{"ha":1028,"x_min":-14,"x_max":944,"o":"m -14 0 l 222 375 q 160 435 186 397 q 117 518 136 467 q 97 646 97 569 q 124 784 97 721 q 205 892 150 847 q 343 961 260 936 q 542 986 426 986 q 692 984 621 986 q 821 979 764 982 q 944 972 888 975 l 944 0 l 583 0 l 583 319 l 569 319 l 403 0 l -14 0 m 583 569 l 583 722 l 542 722 q 482 700 506 722 q 458 646 458 678 q 482 592 458 614 q 542 569 506 569 l 583 569 z "},"a":{"ha":861,"x_min":28,"x_max":806,"o":"m 396 757 q 560 726 485 757 q 690 643 635 696 q 775 519 744 590 q 806 368 806 449 l 806 0 l 486 0 l 458 83 q 415 31 440 54 q 359 -5 393 11 q 278 -21 325 -21 q 174 -3 221 -21 q 95 44 128 14 q 45 117 63 75 q 28 208 28 158 q 47 300 28 258 q 106 372 65 342 q 209 420 146 403 q 361 438 272 438 l 472 438 q 451 475 467 458 q 413 502 438 490 q 347 514 389 514 q 298 506 321 514 q 258 486 275 497 q 222 458 239 474 l 104 646 q 179 701 135 676 q 271 740 217 722 q 396 757 325 757 m 403 201 q 451 229 429 201 q 472 319 472 257 q 388 297 414 319 q 361 243 361 275 q 374 215 361 228 q 403 201 388 201 z "},"b":{"ha":931,"x_min":69,"x_max":889,"o":"m 889 368 q 865 201 889 274 q 800 80 840 129 q 707 5 760 31 q 597 -21 654 -21 q 508 -5 544 -21 q 447 31 471 11 q 403 83 419 54 l 375 0 l 69 0 l 69 1028 l 403 1028 l 403 653 q 447 704 419 681 q 508 740 471 724 q 597 757 544 757 q 707 731 654 757 q 800 656 760 706 q 865 534 840 607 q 889 368 889 461 m 542 368 q 519 447 542 421 q 465 472 497 472 q 411 447 433 472 q 389 368 389 421 q 411 290 389 315 q 465 264 433 264 q 519 290 497 264 q 542 368 542 315 z "},"c":{"ha":778,"x_min":42,"x_max":764,"o":"m 389 368 q 418 292 389 321 q 500 264 447 264 q 549 272 526 264 q 589 292 572 281 q 625 319 608 304 l 764 97 q 683 38 729 63 q 585 -3 643 15 q 451 -21 526 -21 q 288 10 363 -21 q 158 93 213 40 q 72 217 103 146 q 42 368 42 288 q 72 519 42 449 q 158 643 103 590 q 288 726 213 696 q 451 757 363 757 q 585 738 526 757 q 683 697 643 719 q 764 639 729 672 l 625 417 q 589 444 608 432 q 549 464 572 456 q 500 472 526 472 q 418 444 447 472 q 389 368 389 415 z "},"d":{"ha":931,"x_min":42,"x_max":861,"o":"m 42 368 q 66 534 42 461 q 131 656 90 607 q 224 731 171 706 q 333 757 276 757 q 422 740 386 757 q 482 704 458 724 q 528 653 508 681 l 528 1028 l 861 1028 l 861 0 l 556 0 l 528 83 q 482 31 508 54 q 422 -5 458 11 q 333 -21 386 -21 q 224 5 276 -21 q 131 80 171 31 q 66 201 90 129 q 42 368 42 274 m 389 368 q 411 290 389 315 q 465 264 433 264 q 519 290 497 264 q 542 368 542 315 q 519 447 542 421 q 465 472 497 472 q 411 447 433 472 q 389 368 389 421 z "},"e":{"ha":847,"x_min":42,"x_max":819,"o":"m 431 757 q 582 726 511 757 q 706 643 653 696 q 789 519 758 590 q 819 368 819 449 l 819 299 l 375 299 q 396 260 381 276 q 433 233 408 244 q 500 222 458 222 q 549 231 526 222 q 589 250 572 239 q 625 278 608 263 l 743 90 q 668 35 713 60 q 576 -3 631 14 q 451 -21 522 -21 q 288 10 363 -21 q 158 93 213 40 q 72 217 103 146 q 42 368 42 288 q 72 519 42 449 q 156 643 103 590 q 279 726 208 696 q 431 757 350 757 m 493 431 q 475 493 493 472 q 431 514 457 514 q 386 493 404 514 q 368 431 368 472 l 493 431 z "},"f":{"ha":625,"x_min":28,"x_max":583,"o":"m 125 694 l 125 715 q 213 991 125 899 q 458 1083 301 1083 q 508 1081 485 1083 q 547 1076 531 1079 q 583 1069 567 1072 l 583 792 q 565 794 574 793 q 548 797 557 796 q 528 799 539 799 q 477 778 496 799 q 458 715 458 757 l 458 694 l 583 694 l 583 417 l 458 417 l 458 0 l 125 0 l 125 417 l 28 417 l 28 694 l 125 694 z "},"g":{"ha":931,"x_min":42,"x_max":861,"o":"m 528 111 q 482 58 508 82 q 422 23 458 39 q 333 7 386 7 q 224 33 276 7 q 131 106 171 58 q 66 224 90 154 q 42 382 42 293 q 66 540 42 471 q 131 658 90 610 q 224 731 171 706 q 333 757 276 757 q 422 740 386 757 q 482 704 458 724 q 528 653 508 681 l 556 736 l 861 736 l 861 28 q 828 -134 861 -58 q 738 -267 794 -210 q 603 -356 681 -324 q 438 -389 526 -389 q 303 -371 361 -389 q 206 -331 246 -353 q 125 -271 160 -306 l 264 -49 q 300 -76 281 -64 q 340 -96 317 -87 q 389 -104 363 -104 q 490 -67 451 -104 q 528 28 528 -31 l 528 111 m 389 382 q 411 316 389 340 q 465 292 433 292 q 519 316 497 292 q 542 382 542 340 q 519 448 542 424 q 465 472 497 472 q 411 448 433 472 q 389 382 389 424 z "},"h":{"ha":903,"x_min":69,"x_max":847,"o":"m 597 757 q 694 735 649 757 q 774 669 740 714 q 828 555 808 625 q 847 389 847 485 l 847 0 l 514 0 l 514 389 q 497 451 514 431 q 458 472 479 472 q 420 451 438 472 q 403 389 403 431 l 403 0 l 69 0 l 69 1028 l 403 1028 l 403 639 q 453 697 424 672 q 514 738 478 719 q 597 757 550 757 z "},"i":{"ha":472,"x_min":69,"x_max":403,"o":"m 403 736 l 403 0 l 69 0 l 69 736 l 403 736 m 69 1083 l 403 1083 l 403 819 l 69 819 l 69 1083 z "},"j":{"ha":472,"x_min":-56,"x_max":403,"o":"m 69 1083 l 403 1083 l 403 819 l 69 819 l 69 1083 m 69 736 l 403 736 l 403 -35 q 315 -310 403 -218 q 69 -403 226 -403 q 20 -401 43 -403 q -19 -396 -3 -399 q -56 -389 -39 -393 l -56 -111 q -39 -115 -49 -114 q -22 -117 -32 -117 q 0 -118 -11 -118 q 51 -97 32 -118 q 69 -35 69 -76 l 69 736 z "},"k":{"ha":896,"x_min":69,"x_max":910,"o":"m 688 375 l 910 0 l 542 0 l 403 292 l 403 0 l 69 0 l 69 1028 l 403 1028 l 403 458 l 521 736 l 882 736 l 688 375 z "},"l":{"ha":472,"x_min":69,"x_max":403,"o":"m 69 1028 l 403 1028 l 403 0 l 69 0 l 69 1028 z "},"m":{"ha":1347,"x_min":69,"x_max":1292,"o":"m 1042 757 q 1139 735 1093 757 q 1219 669 1185 714 q 1272 555 1253 625 q 1292 389 1292 485 l 1292 0 l 958 0 l 958 389 q 941 451 958 431 q 903 472 924 472 q 865 451 882 472 q 847 389 847 431 l 847 0 l 514 0 l 514 389 q 497 451 514 431 q 458 472 479 472 q 420 451 438 472 q 403 389 403 431 l 403 0 l 69 0 l 69 736 l 389 736 l 417 653 q 461 704 433 681 q 522 740 485 724 q 611 757 558 757 q 702 736 664 757 q 767 690 740 715 q 819 625 797 661 q 878 690 843 661 q 947 736 906 715 q 1042 757 989 757 z "},"n":{"ha":903,"x_min":69,"x_max":847,"o":"m 597 757 q 694 735 649 757 q 774 669 740 714 q 828 555 808 625 q 847 389 847 485 l 847 0 l 514 0 l 514 389 q 497 451 514 431 q 458 472 479 472 q 420 451 438 472 q 403 389 403 431 l 403 0 l 69 0 l 69 736 l 389 736 l 417 653 q 460 704 435 681 q 516 740 482 724 q 597 757 550 757 z "},"o":{"ha":931,"x_min":42,"x_max":889,"o":"m 42 368 q 73 519 42 449 q 160 643 104 590 q 293 726 215 696 q 465 757 371 757 q 637 726 558 757 q 771 643 715 696 q 858 519 826 590 q 889 368 889 449 q 858 217 889 288 q 771 93 826 146 q 637 10 715 40 q 465 -21 558 -21 q 293 10 371 -21 q 160 93 215 40 q 73 217 104 146 q 42 368 42 288 m 556 368 q 528 444 556 415 q 465 472 501 472 q 402 444 429 472 q 375 368 375 415 q 402 292 375 321 q 465 264 429 264 q 528 292 501 264 q 556 368 556 321 z "},"p":{"ha":931,"x_min":69,"x_max":889,"o":"m 889 368 q 865 201 889 274 q 800 80 840 129 q 707 5 760 31 q 597 -21 654 -21 q 508 -5 544 -21 q 447 31 471 11 q 403 83 419 54 l 403 -347 l 69 -347 l 69 736 l 375 736 l 403 653 q 447 704 419 681 q 508 740 471 724 q 597 757 544 757 q 707 731 654 757 q 800 656 760 706 q 865 534 840 607 q 889 368 889 461 m 542 368 q 519 447 542 421 q 465 472 497 472 q 411 447 433 472 q 389 368 389 421 q 411 290 389 315 q 465 264 433 264 q 519 290 497 264 q 542 368 542 315 z "},"q":{"ha":931,"x_min":42,"x_max":861,"o":"m 42 368 q 66 534 42 461 q 131 656 90 607 q 224 731 171 706 q 333 757 276 757 q 422 740 386 757 q 482 704 458 724 q 528 653 508 681 l 556 736 l 861 736 l 861 -347 l 528 -347 l 528 83 q 482 31 508 54 q 422 -5 458 11 q 333 -21 386 -21 q 224 5 276 -21 q 131 80 171 31 q 66 201 90 129 q 42 368 42 274 m 389 368 q 411 290 389 315 q 465 264 433 264 q 519 290 497 264 q 542 368 542 315 q 519 447 542 421 q 465 472 497 472 q 411 447 433 472 q 389 368 389 421 z "},"r":{"ha":667,"x_min":69,"x_max":681,"o":"m 417 653 q 458 704 433 681 q 510 740 479 724 q 583 757 542 757 q 622 753 604 757 q 653 746 639 750 q 681 736 668 740 l 625 431 q 592 444 608 439 q 560 454 576 450 q 528 458 543 458 q 439 419 475 458 q 403 306 403 379 l 403 0 l 69 0 l 69 736 l 389 736 l 417 653 l 417 653 z "},"s":{"ha":715,"x_min":14,"x_max":688,"o":"m 688 222 q 667 128 688 172 q 605 51 646 85 q 503 -1 564 18 q 361 -21 442 -21 q 210 -1 274 -21 q 101 44 146 19 q 14 111 50 74 l 118 278 q 165 243 139 258 q 220 219 189 229 q 292 208 251 208 q 317 217 307 208 q 326 236 326 225 q 306 256 326 246 q 256 278 286 265 q 191 308 226 290 q 126 352 156 325 q 76 419 96 379 q 56 514 56 458 q 76 608 56 564 q 138 685 97 651 q 240 738 179 718 q 382 757 301 757 q 509 738 453 757 q 606 697 565 719 q 688 639 651 672 l 583 472 q 546 500 567 488 q 503 519 528 511 q 451 528 479 528 q 426 519 436 528 q 417 500 417 511 q 437 480 417 489 q 487 458 457 471 q 552 428 517 446 q 617 384 588 411 q 667 317 647 357 q 688 222 688 278 z "},"t":{"ha":653,"x_min":28,"x_max":583,"o":"m 28 458 l 28 736 l 125 736 l 125 972 l 458 972 l 458 736 l 583 736 l 583 458 l 458 458 l 458 340 q 477 278 458 299 q 528 257 496 257 q 548 258 539 257 q 565 260 557 258 q 583 264 574 261 l 583 -14 q 547 -21 567 -18 q 508 -26 531 -24 q 458 -28 485 -28 q 213 65 301 -28 q 125 340 125 157 l 125 458 l 28 458 z "},"u":{"ha":917,"x_min":69,"x_max":847,"o":"m 319 -21 q 222 1 267 -21 q 142 67 176 22 q 89 181 108 111 q 69 347 69 251 l 69 736 l 403 736 l 403 347 q 420 285 403 306 q 458 264 438 264 q 497 285 479 264 q 514 347 514 306 l 514 736 l 847 736 l 847 0 l 528 0 l 500 83 q 457 31 482 54 q 401 -5 435 11 q 319 -21 367 -21 z "},"v":{"ha":819,"x_min":0,"x_max":819,"o":"m 215 0 l 0 736 l 347 736 l 410 347 l 472 736 l 819 736 l 604 0 l 215 0 z "},"w":{"ha":1167,"x_min":0,"x_max":1167,"o":"m 778 375 l 819 736 l 1167 736 l 1000 0 l 667 0 l 583 375 l 500 0 l 167 0 l 0 736 l 347 736 l 389 375 l 451 736 l 715 736 l 778 375 z "},"x":{"ha":833,"x_min":-14,"x_max":847,"o":"m 639 368 l 847 0 l 472 0 l 417 181 l 361 0 l -14 0 l 194 368 l 7 736 l 361 736 l 417 556 l 472 736 l 826 736 l 639 368 z "},"y":{"ha":819,"x_min":0,"x_max":819,"o":"m 243 0 l 0 736 l 347 736 l 410 347 l 472 736 l 819 736 l 556 -56 q 489 -216 524 -150 q 412 -324 454 -282 q 318 -384 369 -365 q 201 -403 267 -403 q 133 -394 165 -403 q 75 -375 100 -386 q 21 -347 46 -362 l 97 -104 q 111 -111 104 -108 q 146 -118 125 -118 q 192 -100 172 -118 q 222 -56 213 -82 l 243 0 z "},"z":{"ha":778,"x_min":56,"x_max":722,"o":"m 458 264 l 722 264 l 722 0 l 56 0 l 56 264 l 306 472 l 69 472 l 69 736 l 708 736 l 708 472 l 458 264 z "},"б":{"ha":903,"x_min":42,"x_max":861,"o":"m 528 778 q 372 731 424 778 q 319 611 319 685 q 378 660 343 638 q 447 693 406 678 q 542 708 489 708 q 668 683 610 708 q 769 614 726 658 q 837 506 813 569 q 861 368 861 443 q 831 217 861 288 q 745 93 800 146 q 615 10 690 40 q 451 -21 540 -21 q 288 11 363 -21 q 158 104 213 43 q 72 254 103 165 q 42 458 42 343 l 42 514 q 167 887 42 760 q 528 1014 292 1014 q 583 1069 583 1014 l 847 1069 q 833 930 847 986 q 781 840 818 874 q 683 792 744 807 q 528 778 621 778 m 528 368 q 506 447 528 421 q 451 472 483 472 q 397 447 419 472 q 375 368 375 421 q 397 290 375 315 q 451 264 419 264 q 506 290 483 264 q 528 368 528 315 z "},"в":{"ha":819,"x_min":69,"x_max":792,"o":"m 646 375 q 718 342 686 364 q 769 290 746 322 q 792 208 792 257 q 770 126 792 167 q 702 55 749 86 q 583 5 656 24 q 410 -14 511 -14 q 268 -12 331 -14 q 161 -7 206 -10 q 69 0 108 -4 l 69 736 q 161 743 110 739 q 266 748 206 746 q 403 750 326 750 q 557 731 492 750 q 665 680 622 711 q 729 609 708 649 q 750 528 750 569 q 733 458 750 486 q 697 413 717 429 q 646 382 674 393 l 646 375 m 410 194 q 444 208 431 194 q 458 236 458 221 q 444 265 458 251 q 410 278 431 278 l 389 278 l 389 194 l 410 194 m 389 458 q 430 472 415 458 q 444 500 444 485 q 430 528 444 515 q 389 542 415 542 l 389 458 z "},"г":{"ha":708,"x_min":83,"x_max":694,"o":"m 694 736 l 694 444 l 417 444 l 417 0 l 83 0 l 83 736 l 694 736 z "},"д":{"ha":903,"x_min":0,"x_max":889,"o":"m 889 264 l 889 -153 l 556 -153 l 556 0 l 333 0 l 333 -153 l 0 -153 l 0 264 l 69 264 q 104 354 89 293 q 128 498 117 407 q 139 736 139 589 l 792 736 l 792 264 l 889 264 m 472 264 l 472 472 l 417 472 q 410 387 417 425 q 396 321 403 349 q 375 264 386 289 l 472 264 z "},"ё":{"ha":847,"x_min":42,"x_max":819,"o":"m 431 757 q 582 726 511 757 q 706 643 653 696 q 789 519 758 590 q 819 368 819 449 l 819 299 l 375 299 q 396 260 381 276 q 433 233 408 244 q 500 222 458 222 q 549 231 526 222 q 589 250 572 239 q 625 278 608 263 l 743 90 q 668 35 713 60 q 576 -3 631 14 q 451 -21 522 -21 q 288 10 363 -21 q 158 93 213 40 q 72 217 103 146 q 42 368 42 288 q 72 519 42 449 q 156 643 103 590 q 279 726 208 696 q 431 757 350 757 m 493 431 q 475 493 493 472 q 431 514 457 514 q 386 493 404 514 q 368 431 368 472 l 493 431 m 708 944 q 672 856 708 892 q 583 819 636 819 q 494 856 531 819 q 458 944 458 892 q 494 1033 458 997 q 583 1069 531 1069 q 672 1033 636 1069 q 708 944 708 997 m 403 944 q 367 856 403 892 q 278 819 331 819 q 189 856 225 819 q 153 944 153 892 q 189 1033 153 997 q 278 1069 225 1069 q 367 1033 331 1069 q 403 944 403 997 z "},"ж":{"ha":1319,"x_min":-14,"x_max":1333,"o":"m 1111 375 l 1333 0 l 965 0 l 826 292 l 826 0 l 493 0 l 493 292 l 354 0 l -14 0 l 208 375 l 14 736 l 375 736 l 493 458 l 493 736 l 826 736 l 826 458 l 944 736 l 1306 736 l 1111 375 z "},"з":{"ha":715,"x_min":14,"x_max":688,"o":"m 549 375 q 618 339 588 363 q 666 284 644 319 q 688 194 688 249 q 667 117 688 156 q 606 47 646 78 q 508 -2 567 17 q 375 -21 450 -21 q 215 -1 283 -21 q 103 44 147 19 q 14 111 50 74 l 118 278 q 163 243 138 258 q 211 219 183 229 q 271 208 239 208 q 312 222 297 208 q 326 250 326 235 q 312 278 326 265 q 271 292 297 292 l 188 292 l 188 444 l 285 444 q 326 458 311 444 q 340 486 340 471 q 326 515 340 501 q 285 528 311 528 q 227 519 253 528 q 183 500 201 511 q 146 472 161 488 l 42 639 q 126 697 79 672 q 226 738 167 719 q 361 757 285 757 q 494 738 436 757 q 592 689 553 719 q 653 619 632 658 q 674 542 674 581 q 654 464 674 494 q 611 415 635 433 q 549 382 583 393 l 549 375 z "},"и":{"ha":944,"x_min":69,"x_max":875,"o":"m 69 0 l 69 736 l 403 736 l 403 417 l 528 736 l 875 736 l 875 0 l 542 0 l 542 319 l 417 0 l 69 0 z "},"й":{"ha":944,"x_min":69,"x_max":875,"o":"m 69 0 l 69 736 l 403 736 l 403 417 l 528 736 l 875 736 l 875 0 l 542 0 l 542 319 l 417 0 l 69 0 m 472 1042 q 528 1097 528 1042 l 736 1097 q 665 905 736 976 q 472 833 593 833 q 280 905 351 833 q 208 1097 208 976 l 417 1097 q 472 1042 417 1042 z "},"л":{"ha":889,"x_min":0,"x_max":819,"o":"m 819 736 l 819 0 l 486 0 l 486 458 l 431 458 q 408 234 431 325 q 346 86 386 143 q 249 4 306 29 q 125 -21 193 -21 q 82 -18 104 -21 q 42 -11 60 -15 q 0 0 19 -6 l 0 236 l 28 236 q 74 250 54 236 q 109 315 94 264 q 131 465 124 365 q 139 736 139 564 l 819 736 z "},"м":{"ha":1278,"x_min":69,"x_max":1208,"o":"m 528 0 l 403 403 l 403 0 l 69 0 l 69 736 l 528 736 l 639 375 l 750 736 l 1208 736 l 1208 0 l 875 0 l 875 403 l 750 0 l 528 0 z "},"н":{"ha":917,"x_min":69,"x_max":847,"o":"m 514 736 l 847 736 l 847 0 l 514 0 l 514 236 l 403 236 l 403 0 l 69 0 l 69 736 l 403 736 l 403 500 l 514 500 l 514 736 z "},"п":{"ha":917,"x_min":69,"x_max":847,"o":"m 847 736 l 847 0 l 514 0 l 514 458 l 403 458 l 403 0 l 69 0 l 69 736 l 847 736 z "},"т":{"ha":722,"x_min":14,"x_max":708,"o":"m 708 736 l 708 444 l 528 444 l 528 0 l 194 0 l 194 444 l 14 444 l 14 736 l 708 736 z "},"ф":{"ha":1389,"x_min":42,"x_max":1347,"o":"m 1000 368 q 978 447 1000 421 q 924 472 956 472 q 869 447 892 472 q 847 368 847 421 q 869 290 847 315 q 924 264 892 264 q 978 290 956 264 q 1000 368 1000 315 m 861 1028 l 861 653 q 906 704 878 681 q 966 740 929 724 q 1056 757 1003 757 q 1165 731 1113 757 q 1258 656 1218 706 q 1323 534 1299 607 q 1347 368 1347 461 q 1323 201 1347 274 q 1258 80 1299 129 q 1165 5 1218 31 q 1056 -21 1113 -21 q 966 -5 1003 -21 q 906 31 929 11 q 861 83 878 54 l 861 -347 l 528 -347 l 528 83 q 482 31 508 54 q 422 -5 458 11 q 333 -21 386 -21 q 224 5 276 -21 q 131 80 171 31 q 66 201 90 129 q 42 368 42 274 q 66 534 42 461 q 131 656 90 607 q 224 731 171 706 q 333 757 276 757 q 422 740 386 757 q 482 704 458 724 q 528 653 508 681 l 528 1028 l 861 1028 m 389 368 q 411 290 389 315 q 465 264 433 264 q 519 290 497 264 q 542 368 542 315 q 519 447 542 421 q 465 472 497 472 q 411 447 433 472 q 389 368 389 421 z "},"ц":{"ha":958,"x_min":69,"x_max":944,"o":"m 847 278 l 944 278 l 944 -153 l 611 -153 l 611 0 l 69 0 l 69 736 l 403 736 l 403 278 l 514 278 l 514 736 l 847 736 l 847 278 z "},"ч":{"ha":875,"x_min":56,"x_max":806,"o":"m 472 736 l 806 736 l 806 0 l 472 0 l 472 208 q 433 190 456 197 q 387 178 414 183 q 326 174 360 174 q 217 194 267 174 q 131 258 167 215 q 76 364 96 300 q 56 514 56 428 l 56 736 l 389 736 l 389 514 q 402 473 389 488 q 431 458 415 458 q 459 473 446 458 q 472 514 472 488 l 472 736 z "},"ш":{"ha":1306,"x_min":69,"x_max":1236,"o":"m 403 278 l 486 278 l 486 736 l 488 736 l 819 736 l 819 278 l 903 278 l 903 736 l 1236 736 l 1236 0 l 69 0 l 69 736 l 403 736 l 403 278 z "},"щ":{"ha":1347,"x_min":69,"x_max":1333,"o":"m 903 736 l 1236 736 l 1236 278 l 1333 278 l 1333 -153 l 1000 -153 l 1000 0 l 69 0 l 69 736 l 403 736 l 403 278 l 486 278 l 486 736 l 819 736 l 819 278 l 903 278 l 903 736 z "},"ъ":{"ha":896,"x_min":14,"x_max":868,"o":"m 500 736 l 500 535 q 524 538 511 536 q 547 540 535 539 q 569 542 558 542 q 690 519 635 542 q 784 460 744 497 q 846 372 824 422 q 868 264 868 321 q 844 156 868 207 q 775 68 821 106 q 660 8 729 31 q 500 -14 592 -14 q 363 -12 424 -14 q 258 -7 303 -10 q 167 0 207 -4 l 167 444 l 14 444 l 14 736 l 500 736 m 486 208 q 549 264 549 208 q 486 319 549 319 l 486 208 z "},"ы":{"ha":1215,"x_min":69,"x_max":1146,"o":"m 472 542 q 592 519 538 542 q 687 460 647 497 q 749 372 726 422 q 771 264 771 321 q 747 156 771 207 q 678 68 724 106 q 563 8 632 31 q 403 -14 494 -14 q 266 -12 326 -14 q 161 -7 206 -10 q 69 0 110 -4 l 69 736 l 403 736 l 403 535 q 426 538 414 536 q 449 540 438 539 q 472 542 461 542 m 389 208 q 451 264 451 208 q 389 319 451 319 l 389 208 m 1146 0 l 813 0 l 813 736 l 1146 736 l 1146 0 z "},"ь":{"ha":806,"x_min":69,"x_max":778,"o":"m 479 542 q 599 519 544 542 q 694 460 654 497 q 756 372 733 422 q 778 264 778 321 q 754 156 778 207 q 685 68 731 106 q 570 8 639 31 q 410 -14 501 -14 q 268 -12 331 -14 q 161 -7 206 -10 q 69 0 108 -4 l 69 736 l 403 736 l 403 535 q 428 538 414 536 q 452 540 439 539 q 479 542 465 542 m 389 319 l 389 208 l 410 208 q 444 223 431 208 q 458 264 458 238 q 444 305 458 290 q 410 319 431 319 l 389 319 z "},"э":{"ha":778,"x_min":14,"x_max":736,"o":"m 326 757 q 490 726 415 757 q 620 643 565 696 q 706 519 675 590 q 736 368 736 449 q 706 217 736 288 q 620 93 675 146 q 490 10 565 40 q 326 -21 415 -21 q 192 -3 250 -21 q 94 38 135 15 q 14 97 49 63 l 125 278 q 169 246 146 260 q 215 225 189 235 q 271 215 242 215 q 331 226 307 215 q 369 250 354 236 q 396 285 386 265 l 215 285 l 215 451 l 396 451 q 369 486 386 471 q 331 510 354 499 q 271 521 307 521 q 215 510 242 521 q 169 489 189 500 q 125 458 146 475 l 14 639 q 94 697 49 672 q 192 738 135 719 q 326 757 250 757 z "},"ю":{"ha":1292,"x_min":69,"x_max":1250,"o":"m 847 -21 q 744 -10 790 -21 q 661 19 699 1 q 595 60 624 38 q 544 107 567 83 q 465 236 493 163 l 403 236 l 403 0 l 69 0 l 69 736 l 403 736 l 403 500 l 465 500 q 544 628 493 572 q 595 675 567 651 q 661 717 624 699 q 744 746 699 735 q 847 757 790 757 q 1010 727 936 757 q 1137 645 1083 697 q 1220 522 1190 593 q 1250 368 1250 451 q 1220 213 1250 285 q 1137 90 1190 142 q 1010 8 1083 38 q 847 -21 936 -21 m 847 472 q 799 447 821 472 q 778 368 778 421 q 799 290 778 315 q 847 264 821 264 q 895 290 874 264 q 917 368 917 315 q 895 447 917 421 q 847 472 874 472 z "},"я":{"ha":875,"x_min":-14,"x_max":806,"o":"m 465 236 l 354 0 l -14 0 l 167 306 q 118 353 139 325 q 84 411 99 376 q 69 493 69 446 q 93 589 69 543 q 164 671 117 635 q 283 728 211 707 q 451 750 356 750 q 595 748 531 750 q 707 743 660 746 q 806 736 763 739 l 806 0 l 472 0 l 472 236 l 465 236 m 486 431 l 486 528 l 451 528 q 417 514 431 528 q 403 479 403 500 q 417 444 403 458 q 451 431 431 431 l 486 431 z "},"!":{"ha":528,"x_min":83,"x_max":444,"o":"m 396 361 l 132 361 l 83 1028 l 444 1028 l 396 361 m 410 278 l 410 0 l 118 0 l 118 278 l 410 278 z "},"\"":{"ha":667,"x_min":56,"x_max":611,"o":"m 569 625 l 403 625 l 361 1028 l 611 1028 l 569 625 m 264 625 l 97 625 l 56 1028 l 306 1028 l 264 625 z "},"#":{"ha":1042,"x_min":14,"x_max":1028,"o":"m 431 389 l 583 389 l 611 583 l 458 583 l 431 389 m 639 778 l 667 972 l 889 972 l 861 778 l 1028 778 l 1000 583 l 833 583 l 806 389 l 972 389 l 944 194 l 778 194 l 750 0 l 528 0 l 556 194 l 403 194 l 375 0 l 153 0 l 181 194 l 14 194 l 42 389 l 208 389 l 236 583 l 69 583 l 97 778 l 264 778 l 292 972 l 514 972 l 486 778 l 639 778 z "},"$":{"ha":868,"x_min":14,"x_max":840,"o":"m 333 -14 q 190 23 250 -3 q 90 76 129 49 q 14 146 44 108 l 146 354 q 211 308 175 328 q 286 278 243 292 q 382 264 329 264 q 423 277 408 264 q 438 306 438 290 q 410 337 438 324 q 340 366 382 350 q 250 404 299 382 q 160 463 201 426 q 90 551 118 499 q 63 681 63 604 q 74 759 63 724 q 105 824 86 794 q 148 876 124 853 q 197 915 172 899 q 333 979 257 956 l 333 1097 l 514 1097 l 514 993 q 652 960 593 985 q 751 908 711 936 q 833 840 799 876 l 701 632 q 647 669 676 653 q 590 697 622 685 q 521 708 557 708 q 480 695 494 708 q 465 667 465 682 q 493 635 465 649 q 563 606 521 622 q 653 567 604 590 q 743 509 701 544 q 813 421 785 474 q 840 292 840 368 q 826 203 840 242 q 790 133 813 164 q 737 79 767 101 q 676 40 707 57 q 514 -14 604 3 l 514 -125 l 333 -125 l 333 -14 z "},"%":{"ha":1097,"x_min":28,"x_max":1069,"o":"m 83 0 l 736 972 l 1014 972 l 361 0 l 83 0 m 250 833 q 212 815 229 833 q 194 764 194 796 q 212 713 194 732 q 250 694 229 694 q 288 713 271 694 q 306 764 306 732 q 288 815 306 796 q 250 833 271 833 m 250 542 q 163 559 203 542 q 92 606 122 576 q 45 676 63 636 q 28 764 28 717 q 45 851 28 811 q 92 922 63 892 q 163 969 122 951 q 250 986 203 986 q 338 969 297 986 q 408 922 378 951 q 455 851 438 892 q 472 764 472 811 q 455 676 472 717 q 408 606 438 636 q 338 559 378 576 q 250 542 297 542 m 847 278 q 809 259 826 278 q 792 208 792 240 q 809 158 792 176 q 847 139 826 139 q 885 158 868 139 q 903 208 903 176 q 885 259 903 240 q 847 278 868 278 m 847 -14 q 760 3 800 -14 q 690 51 719 21 q 642 121 660 81 q 625 208 625 161 q 642 296 625 256 q 690 366 660 336 q 760 413 719 396 q 847 431 800 431 q 935 413 894 431 q 1005 366 975 396 q 1052 296 1035 336 q 1069 208 1069 256 q 1052 121 1069 161 q 1005 51 1035 81 q 935 3 975 21 q 847 -14 894 -14 z "},"&":{"ha":993,"x_min":42,"x_max":993,"o":"m 826 -14 l 694 104 q 614 42 660 68 q 518 -1 574 18 q 389 -21 463 -21 q 241 1 306 -21 q 132 62 176 24 q 65 152 88 100 q 42 264 42 204 q 67 375 42 326 q 125 458 93 424 q 208 528 161 497 q 167 581 185 551 q 138 642 151 606 q 125 722 125 678 q 147 830 125 779 q 210 918 169 881 q 309 978 251 956 q 438 1000 367 1000 q 558 978 503 1000 q 652 920 613 957 q 714 835 692 883 q 736 736 736 788 q 715 655 736 694 q 669 583 694 615 q 604 514 640 547 l 674 451 l 806 611 l 993 451 l 861 292 l 993 181 l 826 -14 m 375 708 q 385 678 375 693 q 406 651 394 663 q 438 625 419 638 q 468 651 454 638 q 490 678 479 663 q 500 708 500 693 q 482 759 500 740 q 438 778 464 778 q 393 759 411 778 q 375 708 375 740 m 333 299 q 356 244 333 267 q 410 222 378 222 q 451 228 433 222 q 482 243 469 235 q 507 264 497 251 l 375 375 q 354 353 363 365 q 340 328 346 342 q 333 299 333 314 z "},"(":{"ha":556,"x_min":83,"x_max":556,"o":"m 375 389 q 403 163 375 268 q 465 -22 431 57 q 556 -194 504 -115 l 375 -194 q 229 -39 293 -128 q 175 44 201 -1 q 128 144 149 90 q 96 260 108 199 q 83 389 83 321 q 96 517 83 457 q 128 631 108 578 q 175 731 149 685 q 229 815 201 778 q 375 972 293 903 l 556 972 q 465 800 504 893 q 403 615 431 721 q 375 389 375 510 z "},"*":{"ha":681,"x_min":42,"x_max":639,"o":"m 250 403 l 90 521 l 188 646 l 42 688 l 104 868 l 250 819 l 243 972 l 438 972 l 431 819 l 576 868 l 639 688 l 493 646 l 590 521 l 431 403 l 340 535 l 250 403 z "},"+":{"ha":708,"x_min":42,"x_max":667,"o":"m 667 583 l 667 319 l 486 319 l 486 125 l 222 125 l 222 319 l 42 319 l 42 583 l 222 583 l 222 778 l 486 778 l 486 583 l 667 583 z "},",":{"ha":417,"x_min":0,"x_max":389,"o":"m 389 278 l 222 -139 l 0 -139 l 97 278 l 389 278 z "},"-":{"ha":681,"x_min":42,"x_max":639,"o":"m 42 583 l 639 583 l 639 319 l 42 319 l 42 583 z "},".":{"ha":403,"x_min":56,"x_max":347,"o":"m 347 278 l 347 0 l 56 0 l 56 278 l 347 278 z "},"/":{"ha":764,"x_min":28,"x_max":736,"o":"m 28 -111 l 472 1083 l 736 1083 l 292 -111 l 28 -111 z "},":":{"ha":403,"x_min":56,"x_max":347,"o":"m 56 458 l 56 736 l 347 736 l 347 458 l 56 458 m 56 0 l 56 278 l 347 278 l 347 0 l 56 0 z "},";":{"ha":444,"x_min":0,"x_max":389,"o":"m 97 458 l 97 736 l 389 736 l 389 458 l 97 458 m 389 278 l 222 -139 l 0 -139 l 97 278 l 389 278 z "},"<":{"ha":833,"x_min":56,"x_max":778,"o":"m 778 736 l 778 500 l 347 368 l 778 236 l 778 0 l 56 250 l 56 486 l 778 736 z "},"=":{"ha":681,"x_min":42,"x_max":639,"o":"m 639 389 l 639 153 l 42 153 l 42 389 l 639 389 m 42 736 l 639 736 l 639 500 l 42 500 l 42 736 z "},"?":{"ha":833,"x_min":28,"x_max":792,"o":"m 792 736 q 774 655 792 690 q 731 590 757 619 q 674 533 704 560 q 617 480 643 507 q 573 424 590 453 q 556 361 556 396 l 264 361 q 290 488 264 439 q 347 569 315 536 q 404 631 378 603 q 431 694 431 658 q 413 733 431 715 q 375 750 396 750 q 333 737 349 750 q 307 708 317 724 q 292 667 296 690 l 28 764 q 97 896 49 838 q 147 944 118 921 q 215 987 176 968 q 304 1017 254 1006 q 417 1028 354 1028 q 575 1003 506 1028 q 692 939 644 979 q 766 846 740 899 q 792 736 792 793 m 556 278 l 556 0 l 264 0 l 264 278 l 556 278 z "},"@":{"ha":1167,"x_min":56,"x_max":1111,"o":"m 972 375 q 942 522 972 453 q 860 641 913 590 q 738 721 808 692 q 583 750 667 750 q 428 721 500 750 q 305 641 357 692 q 224 522 253 590 q 194 375 194 453 q 224 228 194 297 q 305 109 253 160 q 428 29 357 58 q 583 0 500 0 q 671 8 631 0 q 742 28 711 17 q 806 56 778 40 l 861 -69 q 785 -104 828 -89 q 697 -128 749 -118 q 583 -139 646 -139 q 378 -98 474 -139 q 210 14 282 -57 q 97 178 139 85 q 56 375 56 271 q 97 572 56 479 q 210 736 139 665 q 378 848 282 807 q 583 889 474 889 q 789 848 693 889 q 956 736 885 807 q 1069 572 1028 665 q 1111 375 1111 479 q 1092 269 1111 318 q 1040 185 1072 221 q 965 131 1007 150 q 875 111 922 111 q 796 126 828 111 q 744 160 764 140 q 708 208 721 181 q 669 160 694 181 q 611 126 647 140 q 521 111 575 111 q 446 129 482 111 q 381 181 410 147 q 336 263 353 214 q 319 375 319 313 q 336 487 319 438 q 381 569 353 536 q 446 621 410 603 q 521 639 482 639 q 569 631 549 639 q 601 611 589 622 q 625 583 617 599 l 639 625 l 833 625 l 833 361 q 855 289 833 314 q 903 264 876 264 q 951 290 929 264 q 972 375 972 317 m 625 465 q 617 468 622 467 q 608 471 613 469 q 597 472 603 472 q 553 450 571 472 q 535 375 535 428 q 553 300 535 322 q 597 278 571 278 q 617 281 606 278 q 625 285 622 282 l 625 465 z "},"[":{"ha":569,"x_min":111,"x_max":528,"o":"m 528 28 l 528 -194 l 111 -194 l 111 972 l 528 972 l 528 750 l 375 750 l 375 28 l 528 28 z "},"^":{"ha":750,"x_min":0,"x_max":750,"o":"m 264 972 l 486 972 l 750 486 l 486 486 l 375 694 l 264 486 l 0 486 l 264 972 z "},"_":{"ha":597,"x_min":-28,"x_max":625,"o":"m -28 -167 l 625 -167 l 625 -375 l -28 -375 l -28 -167 z "},"`":{"ha":500,"x_min":42,"x_max":458,"o":"m 458 681 l 236 681 l 42 972 l 333 972 l 458 681 z "},"{":{"ha":569,"x_min":56,"x_max":514,"o":"m 56 471 q 139 556 139 472 l 139 764 q 196 915 139 858 q 347 972 253 972 l 514 972 l 514 750 l 444 750 q 403 708 403 750 l 403 556 q 385 470 403 503 q 347 419 368 438 q 292 389 322 397 q 347 357 322 378 q 385 306 368 338 q 403 222 403 275 l 403 69 q 444 28 403 28 l 514 28 l 514 -194 l 347 -194 q 196 -137 253 -194 q 139 14 139 -81 l 139 222 q 56 307 139 304 l 56 471 z "},"|":{"ha":458,"x_min":111,"x_max":347,"o":"m 111 1042 l 347 1042 l 347 -69 l 111 -69 l 111 1042 z "},"}":{"ha":569,"x_min":56,"x_max":514,"o":"m 514 307 q 431 222 431 304 l 431 14 q 374 -137 431 -81 q 222 -194 317 -194 l 56 -194 l 56 28 l 125 28 q 167 69 167 28 l 167 222 q 184 306 167 275 q 222 357 201 338 q 278 389 247 378 q 222 419 247 397 q 184 470 201 438 q 167 556 167 503 l 167 708 q 125 750 167 750 l 56 750 l 56 972 l 222 972 q 374 915 317 972 q 431 764 431 858 l 431 556 q 514 471 431 472 l 514 307 z "},"~":{"ha":694,"x_min":42,"x_max":653,"o":"m 431 542 q 481 560 463 542 q 500 611 500 579 l 653 611 l 653 472 q 604 328 653 378 q 472 278 556 278 q 407 291 436 278 q 353 319 378 304 q 306 348 328 335 q 264 361 285 361 q 213 342 232 361 q 194 292 194 324 l 42 292 l 42 431 q 90 575 42 525 q 222 625 139 625 q 288 612 258 625 q 342 583 317 599 q 388 555 367 568 q 431 542 410 542 z "},"¢":{"ha":778,"x_min":42,"x_max":764,"o":"m 333 972 l 528 972 l 528 868 q 629 842 586 860 q 703 804 672 824 q 764 757 739 782 l 625 535 q 589 563 608 550 q 549 582 572 574 q 500 590 526 590 q 418 562 447 590 q 389 486 389 533 q 418 410 389 439 q 500 382 447 382 q 549 390 526 382 q 589 410 572 399 q 625 438 608 422 l 764 215 q 703 168 739 190 q 629 130 672 149 q 528 104 586 111 l 528 0 l 333 0 l 333 111 q 188 186 251 136 q 133 235 160 207 q 87 301 107 264 q 54 383 67 338 q 42 486 42 429 q 54 588 42 542 q 87 670 67 633 q 133 736 107 707 q 188 786 160 765 q 333 861 251 836 l 333 972 z "},"£":{"ha":917,"x_min":69,"x_max":847,"o":"m 486 375 q 475 330 486 349 q 451 300 464 311 q 417 278 436 286 l 847 278 l 847 0 l 69 0 l 69 278 q 118 300 96 286 q 151 330 136 311 q 167 375 167 349 l 97 375 l 97 569 l 167 569 l 167 639 q 192 785 167 719 q 263 897 217 850 q 375 968 310 943 q 521 993 440 993 q 760 903 672 993 q 847 639 847 813 l 604 639 q 587 690 604 671 q 549 708 569 708 q 510 690 528 708 q 493 639 493 671 l 493 569 l 667 569 l 667 375 l 486 375 z "},"¥":{"ha":1000,"x_min":-14,"x_max":1014,"o":"m -14 972 l 403 972 l 500 694 l 597 972 l 1014 972 l 736 486 l 861 486 l 861 333 l 681 333 l 681 278 l 861 278 l 861 125 l 681 125 l 681 0 l 319 0 l 319 125 l 139 125 l 139 278 l 319 278 l 319 333 l 139 333 l 139 486 l 264 486 l -14 972 z "},"¤":{"ha":1042,"x_min":56,"x_max":1000,"o":"m 56 347 l 153 347 l 153 403 l 56 403 l 56 582 l 153 582 l 153 972 q 278 979 211 975 q 411 984 336 982 q 569 986 486 986 q 765 964 683 986 q 899 902 847 942 q 976 808 951 863 q 1000 688 1000 753 q 977 576 1000 628 q 908 485 954 524 q 795 425 863 447 q 639 403 728 403 l 514 403 l 514 347 l 806 347 l 806 167 l 514 167 l 514 0 l 153 0 l 153 167 l 56 167 l 56 347 m 569 597 q 620 615 601 597 q 639 660 639 633 q 620 704 639 686 q 569 722 601 722 l 514 722 l 514 597 l 569 597 z "},"¦":{"ha":458,"x_min":111,"x_max":347,"o":"m 111 375 l 347 375 l 347 -69 l 111 -69 l 111 375 m 111 1042 l 347 1042 l 347 597 l 111 597 l 111 1042 z "},"§":{"ha":757,"x_min":56,"x_max":701,"o":"m 597 333 q 632 300 617 321 q 656 254 644 282 q 667 188 667 226 q 647 94 667 138 q 588 17 626 50 q 494 -36 549 -17 q 368 -56 439 -56 q 241 -37 297 -56 q 144 3 185 -19 q 63 63 99 28 l 167 229 q 204 201 183 214 q 246 182 222 190 q 299 174 269 174 q 324 182 314 174 q 333 201 333 190 q 313 233 333 221 q 261 259 292 246 q 194 288 231 272 q 128 326 158 303 q 76 385 97 350 q 56 472 56 419 q 72 545 56 514 q 107 597 88 576 q 160 639 131 622 q 125 672 140 651 q 101 717 111 690 q 90 785 90 744 q 110 878 90 835 q 169 956 131 922 q 263 1008 208 989 q 389 1028 318 1028 q 516 1009 460 1028 q 613 968 572 990 q 694 910 658 943 l 590 743 q 553 771 574 758 q 510 790 535 782 q 458 799 486 799 q 433 790 443 799 q 424 771 424 782 q 444 739 424 751 q 496 713 465 726 q 563 685 526 700 q 629 646 599 669 q 681 587 660 622 q 701 500 701 551 q 685 427 701 458 q 649 375 668 396 q 597 333 625 350 m 431 431 q 440 440 435 435 q 448 453 444 446 q 451 472 451 461 q 432 500 451 488 q 389 522 413 513 q 326 542 361 533 q 315 531 321 536 q 306 500 306 518 q 325 472 306 485 q 368 450 344 460 q 431 431 394 439 z "},"©":{"ha":1167,"x_min":56,"x_max":1111,"o":"m 56 486 q 97 683 56 590 q 210 847 139 776 q 378 959 282 918 q 583 1000 474 1000 q 789 959 693 1000 q 956 847 885 918 q 1069 683 1028 776 q 1111 486 1111 590 q 1069 289 1111 382 q 956 125 1028 196 q 789 13 885 54 q 583 -28 693 -28 q 378 13 474 -28 q 210 125 282 54 q 97 289 139 196 q 56 486 56 382 m 972 486 q 942 633 972 564 q 860 752 913 701 q 738 832 808 803 q 583 861 667 861 q 428 832 500 861 q 305 752 357 803 q 224 633 253 701 q 194 486 194 564 q 224 340 194 408 q 305 220 253 271 q 428 140 357 169 q 583 111 500 111 q 738 140 667 111 q 860 220 808 169 q 942 340 913 271 q 972 486 972 408 m 347 486 q 367 592 347 543 q 422 676 386 640 q 506 731 457 711 q 611 750 554 750 q 697 738 658 750 q 763 711 735 726 q 819 674 794 694 l 736 535 q 710 551 725 544 q 681 564 697 558 q 646 569 664 569 q 580 546 604 569 q 556 486 556 522 q 580 426 556 450 q 646 403 604 403 q 681 408 664 403 q 710 419 697 413 q 736 438 725 426 l 819 299 q 763 260 794 276 q 697 233 735 244 q 611 222 658 222 q 506 242 554 222 q 422 297 457 261 q 367 381 386 332 q 347 486 347 429 z "},"«":{"ha":750,"x_min":42,"x_max":708,"o":"m 42 375 l 194 694 l 403 694 l 250 375 l 403 56 l 194 56 l 42 375 m 347 375 l 500 694 l 708 694 l 556 375 l 708 56 l 500 56 l 347 375 z "},"¬":{"ha":681,"x_min":42,"x_max":639,"o":"m 639 292 l 458 292 l 458 444 l 42 444 l 42 611 l 639 611 l 639 292 z "},"®":{"ha":1167,"x_min":56,"x_max":1111,"o":"m 625 236 l 576 389 l 569 389 l 569 236 l 361 236 l 361 736 l 431 743 q 502 748 463 746 q 583 750 542 750 q 692 735 646 750 q 770 696 739 721 q 817 638 801 671 q 833 569 833 606 q 822 514 833 538 q 799 475 811 490 q 764 444 783 457 l 861 236 l 625 236 m 569 528 l 583 528 q 612 541 599 528 q 625 569 625 554 q 612 598 625 585 q 583 611 599 611 l 569 611 l 569 528 m 56 486 q 97 683 56 590 q 210 847 139 776 q 378 959 282 918 q 583 1000 474 1000 q 789 959 693 1000 q 956 847 885 918 q 1069 683 1028 776 q 1111 486 1111 590 q 1069 289 1111 382 q 956 125 1028 196 q 789 13 885 54 q 583 -28 693 -28 q 378 13 474 -28 q 210 125 282 54 q 97 289 139 196 q 56 486 56 382 m 972 486 q 942 633 972 564 q 860 752 913 701 q 738 832 808 803 q 583 861 667 861 q 428 832 500 861 q 305 752 357 803 q 224 633 253 701 q 194 486 194 564 q 224 340 194 408 q 305 220 253 271 q 428 140 357 169 q 583 111 500 111 q 738 140 667 111 q 860 220 808 169 q 942 340 913 271 q 972 486 972 408 z "},"»":{"ha":750,"x_min":42,"x_max":708,"o":"m 556 56 l 347 56 l 500 375 l 347 694 l 556 694 l 708 375 l 556 56 m 250 56 l 42 56 l 194 375 l 42 694 l 250 694 l 403 375 l 250 56 z "},"¨":{"ha":639,"x_min":42,"x_max":597,"o":"m 597 847 q 561 758 597 794 q 472 722 525 722 q 383 758 419 722 q 347 847 347 794 q 383 936 347 900 q 472 972 419 972 q 561 936 525 972 q 597 847 597 900 m 292 847 q 256 758 292 794 q 167 722 219 722 q 78 758 114 722 q 42 847 42 794 q 78 936 42 900 q 167 972 114 972 q 256 936 219 972 q 292 847 292 900 z "},"ª":{"ha":653,"x_min":56,"x_max":569,"o":"m 111 917 q 163 951 132 936 q 228 975 189 964 q 319 986 267 986 q 423 969 376 986 q 502 920 469 951 q 552 845 535 889 q 569 750 569 801 l 569 472 l 375 472 l 361 542 q 326 500 347 518 q 278 472 307 485 q 208 458 250 458 q 149 470 176 458 q 100 503 121 482 q 67 551 79 524 q 56 611 56 579 q 69 669 56 642 q 108 718 82 697 q 172 751 133 739 q 264 763 211 763 l 347 764 q 332 792 343 779 q 306 811 322 803 q 264 819 290 819 q 225 815 243 819 q 194 806 207 811 q 167 792 179 800 l 111 917 m 306 611 q 334 628 321 611 q 347 681 347 644 q 294 667 311 681 q 278 639 278 654 q 286 619 278 628 q 306 611 294 611 m 56 375 l 569 375 l 569 194 l 56 194 l 56 375 z "},"¯":{"ha":514,"x_min":42,"x_max":472,"o":"m 42 972 l 472 972 l 472 778 l 42 778 l 42 972 z "},"˚":{"ha":444,"x_min":42,"x_max":403,"o":"m 42 792 q 92 922 42 871 q 222 972 143 972 q 352 922 301 972 q 403 792 403 871 q 352 662 403 713 q 222 611 301 611 q 92 662 143 611 q 42 792 42 713 m 167 792 q 184 753 167 771 q 222 736 201 736 q 260 753 243 736 q 278 792 278 771 q 260 830 278 813 q 222 847 243 847 q 184 830 201 847 q 167 792 167 813 z "},"±":{"ha":708,"x_min":42,"x_max":667,"o":"m 56 306 l 222 306 l 222 431 l 42 431 l 42 694 l 222 694 l 222 889 l 486 889 l 486 694 l 667 694 l 667 431 l 486 431 l 486 306 l 653 306 l 653 42 l 56 42 l 56 306 z "},"´":{"ha":500,"x_min":42,"x_max":458,"o":"m 167 972 l 458 972 l 264 681 l 42 681 l 167 972 z "},"¹":{"ha":500,"x_min":42,"x_max":431,"o":"m 431 972 l 431 278 l 181 278 l 181 736 l 42 674 l 42 903 l 194 972 l 431 972 z "},"º":{"ha":750,"x_min":56,"x_max":694,"o":"m 56 625 q 80 775 56 708 q 147 889 104 842 q 249 961 190 936 q 375 986 307 986 q 501 961 443 986 q 603 889 560 936 q 670 775 646 842 q 694 625 694 708 q 670 475 694 542 q 603 361 646 408 q 501 289 560 314 q 375 264 443 264 q 249 289 307 264 q 147 361 190 314 q 80 475 104 408 q 56 625 56 542 m 444 625 q 438 699 444 669 q 422 746 432 728 q 400 771 413 764 q 375 778 388 778 q 350 771 363 778 q 328 746 338 764 q 312 699 318 728 q 306 625 306 669 q 312 551 306 581 q 328 504 318 522 q 350 479 338 486 q 375 472 363 472 q 400 479 388 472 q 422 504 413 486 q 438 551 432 522 q 444 625 444 581 z "},"¼":{"ha":1500,"x_min":42,"x_max":1472,"o":"m 431 972 l 431 278 l 181 278 l 181 736 l 42 674 l 42 903 l 194 972 l 431 972 m 611 0 l 458 0 l 736 972 l 889 972 l 611 0 m 1472 111 l 1403 111 l 1403 0 l 1153 0 l 1153 111 l 819 111 l 819 306 l 1056 694 l 1403 694 l 1403 306 l 1472 306 l 1472 111 m 1153 486 l 1056 306 l 1153 306 l 1153 486 z "},"½":{"ha":1472,"x_min":42,"x_max":1417,"o":"m 431 972 l 431 278 l 181 278 l 181 736 l 42 674 l 42 903 l 194 972 l 431 972 m 611 0 l 458 0 l 736 972 l 889 972 l 611 0 m 1417 194 l 1417 0 l 875 0 l 875 181 q 1021 276 956 229 q 1074 319 1047 297 q 1121 363 1100 340 q 1154 406 1142 385 q 1167 444 1167 426 q 1111 500 1167 500 q 1051 492 1079 500 q 1003 472 1024 483 q 958 444 978 460 l 847 611 q 918 660 876 638 q 1006 693 954 678 q 1125 708 1057 708 q 1252 691 1197 708 q 1344 644 1307 674 q 1399 574 1381 614 q 1417 486 1417 533 q 1384 370 1417 424 q 1313 278 1351 317 q 1208 194 1267 232 l 1417 194 z "},"¾":{"ha":1611,"x_min":28,"x_max":1583,"o":"m 597 486 q 579 399 597 439 q 524 328 561 358 q 433 281 488 299 q 306 264 378 264 q 186 278 238 264 q 99 313 135 293 q 28 361 57 333 l 139 528 q 183 500 158 513 q 232 481 204 489 q 292 472 260 472 q 333 485 318 472 q 347 514 347 499 q 333 542 347 529 q 292 556 318 556 l 181 556 l 181 681 l 319 778 l 69 778 l 69 972 l 583 972 l 583 778 l 444 681 q 521 640 486 665 q 573 581 549 618 q 597 486 597 544 m 722 0 l 569 0 l 847 972 l 1000 972 l 722 0 m 1583 111 l 1514 111 l 1514 0 l 1264 0 l 1264 111 l 931 111 l 931 306 l 1167 694 l 1514 694 l 1514 306 l 1583 306 l 1583 111 m 1264 486 l 1167 306 l 1264 306 l 1264 486 z "},"Æ":{"ha":1486,"x_min":-56,"x_max":1444,"o":"m 1444 278 l 1444 0 l 667 0 l 667 153 l 403 153 l 333 0 l -56 0 l 444 972 l 1417 972 l 1417 694 l 1028 694 l 1028 625 l 1389 625 l 1389 347 l 1028 347 l 1028 278 l 1444 278 m 667 417 l 667 694 l 653 694 l 528 417 l 667 417 z "},"Ð":{"ha":1153,"x_min":28,"x_max":1097,"o":"m 28 583 l 125 583 l 125 972 q 250 979 183 975 q 383 984 308 982 q 542 986 458 986 q 785 950 681 986 q 958 848 889 914 q 1063 690 1028 782 q 1097 486 1097 599 q 1063 282 1097 374 q 958 124 1028 190 q 785 22 889 58 q 542 -14 681 -14 q 383 -12 458 -14 q 250 -7 308 -10 q 125 0 183 -4 l 125 389 l 28 389 l 28 583 m 542 292 q 665 339 621 292 q 708 486 708 386 q 665 633 708 586 q 542 681 621 681 l 486 681 l 486 583 l 611 583 l 611 389 l 486 389 l 486 292 l 542 292 z "},"×":{"ha":750,"x_min":42,"x_max":708,"o":"m 208 125 l 42 292 l 208 458 l 42 625 l 208 792 l 375 625 l 542 792 l 708 625 l 542 458 l 708 292 l 542 125 l 375 292 l 208 125 z "},"Ø":{"ha":1194,"x_min":56,"x_max":1139,"o":"m 597 319 q 656 332 628 319 q 704 367 683 344 q 738 419 725 389 q 750 486 750 450 l 750 542 l 556 319 l 597 319 m 597 -21 q 476 -10 529 -21 q 388 14 424 0 q 313 49 344 29 l 222 -56 l 104 49 l 188 146 q 121 232 150 182 q 76 338 96 275 q 56 485 56 401 q 95 685 56 592 q 206 847 135 778 q 378 954 278 915 q 597 993 478 993 q 718 982 665 993 q 807 958 771 971 q 882 924 850 943 l 972 1028 l 1090 924 l 1007 826 q 1072 740 1043 790 q 1118 634 1097 697 q 1139 488 1139 571 q 1099 288 1139 381 q 988 126 1060 194 q 817 18 917 57 q 597 -21 717 -21 m 597 653 q 538 640 565 653 q 489 606 510 628 q 456 553 468 583 q 444 486 444 522 l 444 431 l 639 653 l 597 653 z "},"Þ":{"ha":986,"x_min":83,"x_max":944,"o":"m 83 986 l 444 986 l 444 826 l 569 826 q 728 801 658 826 q 845 732 797 776 q 919 624 893 688 q 944 486 944 561 q 919 348 944 411 q 845 240 893 285 q 728 171 797 196 q 569 146 658 146 l 444 146 l 444 -14 l 83 -14 l 83 986 m 500 410 q 560 432 536 410 q 583 486 583 454 q 560 540 583 518 q 500 563 536 563 l 444 563 l 444 410 l 500 410 z "},"ß":{"ha":944,"x_min":56,"x_max":917,"o":"m 722 514 q 753 483 722 499 q 819 441 783 467 q 886 374 856 415 q 917 264 917 332 q 893 164 917 211 q 819 80 869 117 q 694 22 769 43 q 514 0 618 0 l 514 250 q 574 272 550 250 q 597 319 597 293 q 578 367 597 346 q 535 411 558 389 q 492 458 511 433 q 472 514 472 482 q 488 569 472 544 q 521 617 503 594 q 554 660 539 639 q 569 708 569 682 q 552 747 569 729 q 514 764 535 764 q 466 740 488 764 q 444 681 444 717 l 444 42 q 440 -54 444 -11 q 431 -129 436 -97 q 417 -194 425 -165 l 56 -194 q 69 -129 64 -165 q 79 -54 75 -97 q 83 42 83 -11 l 83 667 q 110 801 83 739 q 190 906 136 863 q 324 975 243 950 q 514 1000 404 1000 q 662 978 597 1000 q 771 922 726 957 q 838 842 815 886 q 861 750 861 797 q 840 655 861 693 q 792 590 818 617 q 744 547 765 564 q 722 514 722 529 z "},"æ":{"ha":1285,"x_min":28,"x_max":1257,"o":"m 868 757 q 1019 726 949 757 q 1143 643 1090 696 q 1226 519 1196 590 q 1257 368 1257 449 l 1257 299 l 813 299 q 833 260 818 276 q 871 233 846 244 q 938 222 896 222 q 987 231 964 222 q 1026 250 1010 239 q 1063 278 1046 263 l 1181 90 q 1106 35 1150 60 q 1014 -3 1068 14 q 889 -21 960 -21 q 783 -7 828 -21 q 707 24 738 7 q 646 69 671 43 q 579 24 619 43 q 490 -7 544 7 q 361 -21 436 -21 q 209 -3 272 -21 q 106 44 146 14 q 47 117 65 75 q 28 208 28 158 q 47 300 28 258 q 106 372 65 342 q 209 420 146 403 q 361 438 272 438 l 472 438 q 451 475 467 458 q 413 502 438 490 q 347 514 389 514 q 298 506 321 514 q 258 486 275 497 q 222 458 239 474 l 104 646 q 179 701 136 676 q 268 740 215 722 q 389 757 321 757 q 502 742 454 757 q 582 711 550 728 q 646 667 619 692 q 704 711 669 692 q 774 742 732 728 q 868 757 815 757 m 472 319 q 388 298 414 319 q 361 250 361 276 q 376 215 361 229 q 417 201 390 201 q 454 211 435 201 q 472 222 463 217 l 472 319 m 931 431 q 913 493 931 472 q 868 514 894 514 q 824 493 842 514 q 806 431 806 472 l 931 431 z "},"ð":{"ha":903,"x_min":42,"x_max":861,"o":"m 271 854 q 233 857 253 856 q 195 860 217 858 q 153 861 174 861 l 208 1097 q 286 1094 250 1097 q 350 1086 322 1090 q 410 1076 382 1081 l 486 1194 l 569 1139 l 514 1049 q 688 947 611 1015 q 751 878 719 918 q 806 785 782 838 q 846 665 831 732 q 861 514 861 597 l 861 458 q 831 254 861 343 q 745 104 800 165 q 615 11 690 43 q 451 -21 540 -21 q 288 10 363 -21 q 158 93 213 40 q 72 217 103 146 q 42 368 42 288 q 66 506 42 443 q 133 614 90 569 q 235 683 176 658 q 361 708 293 708 q 452 695 414 708 q 517 667 490 682 q 569 625 547 649 q 539 728 569 688 q 472 792 508 768 q 375 833 429 818 l 306 722 l 222 778 l 271 854 m 375 368 q 397 290 375 315 q 451 264 419 264 q 506 290 483 264 q 528 368 528 315 q 506 447 528 421 q 451 472 483 472 q 397 447 419 472 q 375 368 375 421 z "},"ø":{"ha":931,"x_min":42,"x_max":889,"o":"m 465 486 q 392 453 424 486 q 361 369 361 421 l 361 354 l 486 486 l 465 486 m 465 757 q 558 749 518 757 q 628 729 599 740 q 688 701 661 717 l 771 792 l 854 708 l 785 632 q 836 565 813 604 q 872 483 856 532 q 889 368 889 433 q 858 217 889 288 q 771 93 826 146 q 637 10 715 40 q 465 -21 558 -21 q 371 -12 413 -21 q 301 7 329 -4 q 243 35 267 19 l 160 -56 l 76 28 l 146 104 q 93 171 117 132 q 58 253 74 204 q 42 368 42 301 q 73 519 42 449 q 160 643 104 590 q 293 726 215 696 q 465 757 371 757 m 465 250 q 538 283 507 250 q 569 367 569 315 l 569 382 l 444 250 l 465 250 z "},"÷":{"ha":681,"x_min":42,"x_max":639,"o":"m 42 583 l 639 583 l 639 319 l 42 319 l 42 583 m 486 236 l 486 28 l 194 28 l 194 236 l 486 236 m 486 875 l 486 667 l 194 667 l 194 875 l 486 875 z "},"þ":{"ha":931,"x_min":69,"x_max":889,"o":"m 542 368 q 519 447 542 421 q 465 472 497 472 q 411 447 433 472 q 389 368 389 421 q 411 290 389 315 q 465 264 433 264 q 519 290 497 264 q 542 368 542 315 m 403 1028 l 403 653 q 447 704 419 681 q 508 740 471 724 q 597 757 544 757 q 707 731 654 757 q 800 656 760 706 q 865 534 840 607 q 889 368 889 461 q 865 201 889 274 q 800 80 840 129 q 707 5 760 31 q 597 -21 654 -21 q 508 -5 544 -21 q 447 31 471 11 q 403 83 419 54 l 403 -347 l 69 -347 l 69 1028 l 403 1028 z "},"đ":{"ha":958,"x_min":42,"x_max":958,"o":"m 861 0 l 556 0 l 528 83 q 482 31 508 54 q 422 -5 458 11 q 333 -21 386 -21 q 224 4 276 -21 q 131 76 171 29 q 66 190 90 124 q 42 340 42 257 q 66 490 42 424 q 131 604 90 557 q 224 676 171 651 q 333 701 276 701 q 422 685 386 701 q 482 649 458 668 q 528 597 508 625 l 528 736 l 389 736 l 389 917 l 528 917 l 528 1028 l 861 1028 l 861 917 l 958 917 l 958 736 l 861 736 l 861 0 m 389 340 q 411 286 389 308 q 465 264 433 264 q 519 286 497 264 q 542 340 542 308 q 519 394 542 372 q 465 417 497 417 q 411 394 433 417 q 389 340 389 372 z "},"Ł":{"ha":889,"x_min":0,"x_max":861,"o":"m 0 556 l 125 604 l 125 972 l 486 972 l 486 757 l 611 806 l 611 583 l 486 535 l 486 319 l 861 319 l 861 0 l 125 0 l 125 382 l 0 333 l 0 556 z "},"ł":{"ha":583,"x_min":0,"x_max":583,"o":"m 0 556 l 125 611 l 125 1028 l 458 1028 l 458 750 l 583 806 l 583 583 l 458 528 l 458 0 l 125 0 l 125 389 l 0 333 l 0 556 z "},"Œ":{"ha":1472,"x_min":56,"x_max":1431,"o":"m 56 486 q 90 682 56 593 q 194 835 125 771 q 368 936 264 900 q 611 972 472 972 l 1403 972 l 1403 694 l 1014 694 l 1014 625 l 1375 625 l 1375 347 l 1014 347 l 1014 278 l 1431 278 l 1431 0 l 611 0 q 368 36 472 0 q 194 137 264 72 q 90 290 125 201 q 56 486 56 379 m 653 292 l 653 681 l 611 681 q 488 633 532 681 q 444 486 444 586 q 488 339 444 386 q 611 292 532 292 l 653 292 z "},"œ":{"ha":1361,"x_min":42,"x_max":1333,"o":"m 944 757 q 1096 726 1025 757 q 1219 643 1167 696 q 1303 519 1272 590 q 1333 368 1333 449 l 1333 299 l 889 299 q 910 260 894 276 q 947 233 922 244 q 1014 222 972 222 q 1063 231 1040 222 q 1103 250 1086 239 q 1139 278 1122 263 l 1257 90 q 1182 35 1226 60 q 1090 -3 1144 14 q 965 -21 1036 -21 q 859 -7 904 -21 q 783 24 814 7 q 722 69 747 43 q 658 24 696 43 q 578 -7 626 7 q 465 -21 531 -21 q 293 10 371 -21 q 160 93 215 40 q 73 217 104 146 q 42 368 42 288 q 73 519 42 449 q 160 643 104 590 q 293 726 215 696 q 465 757 371 757 q 578 742 531 757 q 658 711 626 728 q 722 667 696 692 q 781 711 746 692 q 850 742 808 728 q 944 757 892 757 m 556 368 q 528 444 556 415 q 465 472 501 472 q 402 444 429 472 q 375 368 375 415 q 402 292 375 321 q 465 264 429 264 q 528 292 501 264 q 556 368 556 321 m 882 442 q 883 436 882 439 q 883 431 883 433 l 1007 431 q 989 493 1007 472 q 944 514 971 514 q 902 496 919 514 q 882 442 885 478 z "}," ":{"ha":278,"x_min":0,"x_max":0,"o":""},"ƒ":{"ha":653,"x_min":28,"x_max":611,"o":"m 153 417 l 56 417 l 56 694 l 153 694 l 153 715 q 241 991 153 899 q 486 1083 329 1083 q 535 1081 513 1083 q 575 1076 558 1079 q 611 1069 594 1072 l 611 792 q 593 794 601 793 q 576 797 585 796 q 556 799 567 799 q 505 778 524 799 q 486 715 486 757 l 486 694 l 611 694 l 611 417 l 486 417 l 486 -35 q 398 -310 486 -218 q 153 -403 310 -403 q 103 -401 126 -403 q 64 -396 81 -399 q 28 -389 44 -393 l 28 -111 q 44 -115 35 -114 q 62 -117 51 -117 q 83 -118 72 -118 q 134 -97 115 -118 q 153 -35 153 -76 l 153 417 z "},"ˆ":{"ha":639,"x_min":42,"x_max":597,"o":"m 597 736 l 389 736 l 319 847 l 250 736 l 42 736 l 208 972 l 431 972 l 597 736 z "},"ˇ":{"ha":639,"x_min":42,"x_max":597,"o":"m 431 736 l 208 736 l 42 972 l 250 972 l 319 861 l 389 972 l 597 972 l 431 736 z "},"˘":{"ha":611,"x_min":42,"x_max":569,"o":"m 306 917 q 361 972 361 917 l 569 972 q 498 780 569 851 q 306 708 426 708 q 113 780 185 708 q 42 972 42 851 l 250 972 q 306 917 250 917 z "},"˙":{"ha":361,"x_min":42,"x_max":319,"o":"m 42 833 q 82 932 42 892 q 181 972 122 972 q 279 932 239 972 q 319 833 319 892 q 279 735 319 775 q 181 694 239 694 q 82 735 122 694 q 42 833 42 775 z "},"˛":{"ha":417,"x_min":42,"x_max":375,"o":"m 375 0 q 306 -64 336 -32 q 258 -123 279 -92 q 236 -181 236 -154 q 244 -200 236 -192 q 264 -208 253 -208 l 347 -208 l 347 -375 l 208 -375 q 142 -363 172 -375 q 89 -331 111 -351 q 54 -282 67 -310 q 42 -222 42 -254 q 51 -169 42 -193 q 78 -124 61 -144 q 116 -85 94 -103 q 160 -54 138 -68 q 278 0 211 -22 l 375 0 l 375 0 z "},"˜":{"ha":528,"x_min":42,"x_max":486,"o":"m 361 722 q 307 733 329 722 q 267 757 285 744 q 235 781 249 769 q 208 792 221 792 q 180 777 193 792 q 167 736 167 763 l 42 736 l 42 833 q 78 934 42 896 q 167 972 114 972 q 220 961 197 972 q 261 938 243 950 q 293 914 279 925 q 319 903 307 903 q 348 917 335 903 q 361 958 361 932 l 486 958 l 486 861 q 450 760 486 799 q 361 722 414 722 z "},"˝":{"ha":722,"x_min":42,"x_max":681,"o":"m 167 972 l 389 972 l 194 681 l 42 681 l 167 972 m 458 972 l 681 972 l 486 681 l 333 681 l 458 972 z "},"Ђ":{"ha":1111,"x_min":0,"x_max":1069,"o":"m 1069 257 q 981 18 1069 106 q 736 -69 893 -69 q 660 -62 694 -69 q 625 -56 642 -60 l 625 188 l 639 188 q 690 207 671 188 q 708 257 708 226 q 690 301 708 283 q 646 319 672 319 q 601 301 619 319 q 583 250 583 282 l 583 0 l 222 0 l 222 653 l 0 653 l 0 972 l 806 972 l 806 653 l 583 653 l 583 486 q 635 542 604 517 q 700 580 661 563 q 792 597 739 597 q 993 513 917 597 q 1069 257 1069 429 z "},"Љ":{"ha":1569,"x_min":0,"x_max":1528,"o":"m 1083 -14 q 925 -12 1000 -14 q 792 -7 850 -10 q 667 0 725 -4 l 667 681 l 542 681 q 510 351 542 485 q 424 134 478 217 q 296 15 369 51 q 139 -21 222 -21 q 88 -18 113 -21 q 43 -11 63 -15 q 0 0 19 -6 l 0 264 l 28 264 q 74 273 51 264 q 117 308 97 282 q 154 383 138 335 q 183 510 171 432 q 201 702 194 589 q 208 972 208 815 l 1028 972 l 1028 688 q 1069 690 1047 689 q 1110 693 1088 692 q 1153 694 1132 694 q 1311 669 1242 694 q 1428 598 1381 644 q 1502 486 1476 551 q 1528 340 1528 421 q 1501 194 1528 260 q 1420 83 1475 129 q 1281 11 1365 36 q 1083 -14 1197 -14 m 1028 431 l 1028 250 l 1083 250 q 1143 274 1119 250 q 1167 340 1167 299 q 1143 406 1167 382 q 1083 431 1119 431 l 1028 431 z "},"Њ":{"ha":1569,"x_min":83,"x_max":1528,"o":"m 1083 -14 q 925 -12 1000 -14 q 792 -7 850 -10 q 667 0 725 -4 l 667 361 l 444 361 l 444 0 l 83 0 l 83 972 l 444 972 l 444 653 l 667 653 l 667 972 l 1028 972 l 1028 660 q 1069 663 1047 661 q 1110 665 1088 664 q 1153 667 1132 667 q 1311 642 1242 667 q 1428 572 1381 617 q 1502 465 1476 528 q 1528 326 1528 401 q 1501 188 1528 251 q 1420 81 1475 125 q 1281 11 1365 36 q 1083 -14 1197 -14 m 1028 403 l 1028 250 l 1083 250 q 1143 272 1119 250 q 1167 326 1167 294 q 1143 381 1167 358 q 1083 403 1119 403 l 1028 403 z "},"Ћ":{"ha":1125,"x_min":0,"x_max":1069,"o":"m 806 972 l 806 653 l 583 653 l 583 486 q 635 542 604 517 q 700 580 661 563 q 792 597 739 597 q 993 512 917 597 q 1069 250 1069 426 l 1069 0 l 708 0 l 708 250 q 690 301 708 282 q 646 319 672 319 q 601 301 619 319 q 583 250 583 282 l 583 0 l 222 0 l 222 653 l 0 653 l 0 972 l 806 972 z "},"Џ":{"ha":1111,"x_min":83,"x_max":1028,"o":"m 1028 0 l 736 0 l 736 -181 l 375 -181 l 375 0 l 83 0 l 83 972 l 444 972 l 444 306 l 667 306 l 667 972 l 1028 972 l 1028 0 z "},"ђ":{"ha":917,"x_min":0,"x_max":875,"o":"m 542 319 q 524 382 542 361 q 486 403 507 403 q 448 382 465 403 q 431 319 431 361 l 431 0 l 97 0 l 97 736 l 0 736 l 0 917 l 97 917 l 97 1028 l 431 1028 l 431 917 l 569 917 l 569 736 l 431 736 l 431 569 q 481 628 451 603 q 542 669 506 650 q 625 688 578 688 q 722 666 676 688 q 802 600 768 644 q 856 485 836 556 q 875 319 875 415 l 875 215 q 788 -48 875 43 q 556 -139 701 -139 q 486 -132 514 -139 q 458 -125 471 -129 l 458 153 q 467 149 461 150 q 486 146 478 146 q 524 165 507 146 q 542 215 542 183 l 542 319 z "},"љ":{"ha":1222,"x_min":0,"x_max":1194,"o":"m 896 542 q 1016 519 961 542 q 1110 460 1071 497 q 1172 372 1150 422 q 1194 264 1194 321 q 1171 156 1194 207 q 1101 68 1147 106 q 987 8 1056 31 q 826 -14 918 -14 q 685 -12 747 -14 q 578 -7 622 -10 q 486 0 525 -4 l 486 458 l 431 458 q 408 234 431 325 q 346 86 386 143 q 249 4 306 29 q 125 -21 193 -21 q 82 -18 104 -21 q 42 -11 60 -15 q 0 0 19 -6 l 0 236 l 28 236 q 74 250 54 236 q 109 315 94 264 q 131 465 124 365 q 139 736 139 564 l 819 736 l 819 535 q 844 538 831 536 q 869 540 856 539 q 896 542 882 542 m 806 319 l 806 208 l 826 208 q 861 223 847 208 q 875 264 875 238 q 861 305 875 290 q 826 319 847 319 l 806 319 z "},"њ":{"ha":1250,"x_min":69,"x_max":1222,"o":"m 514 736 l 847 736 l 847 507 q 872 510 858 508 q 897 513 883 511 q 924 514 910 514 q 1044 492 989 514 q 1138 434 1099 471 q 1200 349 1178 397 q 1222 250 1222 301 q 1199 150 1222 197 q 1129 66 1175 103 q 1015 8 1083 29 q 854 -14 946 -14 q 713 -12 775 -14 q 606 -7 650 -10 q 514 0 553 -4 l 514 264 l 403 264 l 403 0 l 69 0 l 69 736 l 403 736 l 403 500 l 514 500 l 514 736 m 833 292 l 833 208 l 854 208 q 889 222 875 208 q 903 250 903 235 q 889 278 903 265 q 854 292 875 292 l 833 292 z "},"ћ":{"ha":931,"x_min":0,"x_max":875,"o":"m 0 917 l 97 917 l 97 1028 l 431 1028 l 431 917 l 569 917 l 569 736 l 431 736 l 431 569 q 481 628 451 603 q 542 669 506 650 q 625 688 578 688 q 722 666 676 688 q 802 600 768 644 q 856 485 836 556 q 875 319 875 415 l 875 0 l 542 0 l 542 319 q 524 382 542 361 q 486 403 507 403 q 448 382 465 403 q 431 319 431 361 l 431 0 l 97 0 l 97 736 l 0 736 l 0 917 z "},"џ":{"ha":917,"x_min":69,"x_max":847,"o":"m 69 736 l 403 736 l 403 278 l 514 278 l 514 736 l 847 736 l 847 0 l 625 0 l 625 -153 l 292 -153 l 292 0 l 69 0 l 69 736 z "},"Ґ":{"ha":819,"x_min":83,"x_max":819,"o":"m 819 653 l 444 653 l 444 0 l 83 0 l 83 972 l 458 972 l 458 1097 l 819 1097 l 819 653 z "},"ґ":{"ha":681,"x_min":69,"x_max":681,"o":"m 681 847 l 681 444 l 403 444 l 403 0 l 69 0 l 69 736 l 347 736 l 347 847 l 681 847 z "},"–":{"ha":1083,"x_min":42,"x_max":1042,"o":"m 42 528 l 1042 528 l 1042 292 l 42 292 l 42 528 z "},"—":{"ha":1431,"x_min":42,"x_max":1389,"o":"m 42 528 l 1389 528 l 1389 292 l 42 292 l 42 528 z "},"”":{"ha":764,"x_min":28,"x_max":736,"o":"m 403 972 l 236 556 l 28 556 l 125 972 l 403 972 m 736 972 l 569 556 l 361 556 l 458 972 l 736 972 z "},"“":{"ha":764,"x_min":28,"x_max":736,"o":"m 361 556 l 528 972 l 736 972 l 639 556 l 361 556 m 28 556 l 194 972 l 403 972 l 306 556 l 28 556 z "},"†":{"ha":833,"x_min":56,"x_max":778,"o":"m 56 736 l 278 736 l 278 1028 l 556 1028 l 556 736 l 778 736 l 778 472 l 556 472 l 556 -347 l 278 -347 l 278 472 l 56 472 l 56 736 z "},"‡":{"ha":833,"x_min":56,"x_max":778,"o":"m 56 208 l 278 208 l 278 472 l 56 472 l 56 736 l 278 736 l 278 1028 l 556 1028 l 556 736 l 778 736 l 778 472 l 556 472 l 556 208 l 778 208 l 778 -56 l 556 -56 l 556 -347 l 278 -347 l 278 -56 l 56 -56 l 56 208 z "},"€":{"ha":1042,"x_min":0,"x_max":1014,"o":"m 0 514 l 0 583 l 125 583 q 214 788 151 697 q 278 863 240 826 q 365 929 315 900 q 480 976 415 958 q 625 993 544 993 q 797 969 725 993 q 918 917 869 944 q 1014 840 974 882 l 861 597 q 806 635 836 618 q 744 662 779 650 q 667 674 708 674 q 594 659 625 674 q 542 628 563 644 q 500 583 517 608 l 722 583 l 722 514 l 479 514 l 479 458 l 722 458 l 722 389 l 500 389 q 542 343 517 363 q 594 313 563 326 q 667 299 625 299 q 744 310 708 299 q 806 336 779 321 q 861 375 836 353 l 1014 132 q 918 56 974 89 q 797 3 869 26 q 625 -21 725 -21 q 480 -3 544 -21 q 365 42 415 14 q 278 108 315 71 q 214 183 240 144 q 125 389 151 274 l 0 389 l 0 458 l 111 458 l 111 514 l 0 514 z "},"•":{"ha":611,"x_min":111,"x_max":500,"o":"m 111 431 q 126 508 111 472 q 167 569 140 543 q 228 610 193 596 q 306 625 264 625 q 383 610 347 625 q 444 569 418 596 q 485 508 471 543 q 500 431 500 472 q 485 353 500 389 q 444 292 471 318 q 383 251 418 265 q 306 236 347 236 q 228 251 264 236 q 167 292 193 265 q 126 353 140 318 q 111 431 111 389 z "},"›":{"ha":472,"x_min":56,"x_max":417,"o":"m 264 56 l 56 56 l 208 375 l 56 694 l 264 694 l 417 375 l 264 56 z "},"₴":{"ha":958,"x_min":56,"x_max":903,"o":"m 903 389 l 569 389 q 535 369 550 381 q 510 347 521 360 q 500 319 500 335 q 556 264 500 264 q 624 275 592 264 q 682 301 657 286 q 736 340 711 318 l 868 132 q 774 56 829 89 q 657 3 726 26 q 493 -21 588 -21 q 328 6 401 -21 q 204 74 256 32 q 125 170 153 117 q 97 278 97 224 q 101 319 97 299 q 111 354 106 339 q 125 389 117 372 l 56 389 l 56 458 l 903 458 l 903 389 m 56 583 l 389 583 q 424 603 408 592 q 447 625 436 613 q 458 653 458 638 q 403 708 458 708 q 334 697 367 708 q 276 669 301 685 q 222 632 247 653 l 90 840 q 183 917 128 882 q 301 969 231 944 q 465 993 371 993 q 630 967 557 993 q 754 898 703 940 q 833 802 806 856 q 861 694 861 749 q 857 653 861 674 q 847 618 853 633 q 833 583 842 600 l 903 583 l 903 514 l 56 514 l 56 583 z "},"№":{"ha":1792,"x_min":83,"x_max":1764,"o":"m 1736 0 l 1181 0 l 1181 236 l 1736 236 l 1736 0 m 444 431 l 444 0 l 83 0 l 83 972 l 486 972 l 722 542 l 722 972 l 1083 972 l 1083 0 l 681 0 l 444 431 m 1375 597 q 1401 528 1375 556 q 1458 500 1426 500 q 1516 528 1490 500 q 1542 597 1542 556 q 1516 667 1542 639 q 1458 694 1490 694 q 1401 667 1426 694 q 1375 597 1375 639 m 1153 597 q 1175 713 1153 660 q 1238 806 1197 767 q 1334 867 1278 844 q 1458 889 1390 889 q 1583 867 1526 889 q 1679 806 1639 844 q 1742 713 1719 767 q 1764 597 1764 660 q 1742 481 1764 535 q 1679 389 1719 428 q 1583 328 1639 350 q 1458 306 1526 306 q 1334 328 1390 306 q 1238 389 1278 350 q 1175 481 1197 428 q 1153 597 1153 535 z "},"™":{"ha":1160,"x_min":28,"x_max":1104,"o":"m 431 972 l 431 819 l 319 819 l 319 569 l 139 569 l 139 819 l 28 819 l 28 972 l 431 972 m 715 569 l 646 792 l 646 569 l 465 569 l 465 972 l 715 972 l 785 750 l 854 972 l 1104 972 l 1104 569 l 924 569 l 924 792 l 854 569 l 715 569 z "},"µ":{"ha":958,"x_min":69,"x_max":958,"o":"m 819 736 l 819 347 q 875 292 819 292 q 894 294 883 292 q 903 299 900 296 l 958 28 q 910 7 936 15 q 853 -8 886 -1 q 778 -14 819 -14 q 658 6 704 -14 q 586 49 613 25 q 542 111 556 75 q 521 83 533 96 q 494 64 510 72 q 458 56 479 56 q 419 63 436 56 q 403 69 410 65 l 403 -347 l 69 -347 l 69 736 l 403 736 l 403 375 q 416 334 403 349 q 444 319 429 319 q 473 334 460 319 q 486 375 486 349 l 486 736 l 819 736 z "},"¶":{"ha":1069,"x_min":42,"x_max":1028,"o":"m 42 708 q 63 808 42 760 q 120 892 85 856 q 200 951 156 929 q 292 972 244 972 l 1028 972 l 1028 667 l 917 667 l 917 -347 l 639 -347 l 639 667 l 569 667 l 569 -347 l 292 -347 l 292 444 q 200 466 244 444 q 120 524 156 488 q 63 608 85 561 q 42 708 42 656 z "},"·":{"ha":292,"x_min":0,"x_max":292,"o":"m 292 625 l 292 347 l 0 347 l 0 625 l 292 625 z "},"A":{"ha":1069,"x_min":14,"x_max":1056,"o":"m 771 972 q 783 928 771 971 q 816 817 796 886 q 862 661 836 749 q 914 483 888 574 q 1056 0 976 269 l 653 0 l 625 139 l 444 139 l 417 0 l 14 0 l 299 972 l 771 972 m 583 361 l 535 611 l 486 361 l 583 361 z "},"А":{"ha":1069,"x_min":14,"x_max":1056,"o":"m 771 972 q 783 928 771 971 q 816 817 796 886 q 862 661 836 749 q 914 483 888 574 q 1056 0 976 269 l 653 0 l 625 139 l 444 139 l 417 0 l 14 0 l 299 972 l 771 972 m 583 361 l 535 611 l 486 361 l 583 361 z "},"В":{"ha":1014,"x_min":83,"x_max":972,"o":"m 750 507 q 861 464 813 494 q 938 390 903 438 q 972 264 972 342 q 947 156 972 207 q 866 68 922 106 q 720 8 810 31 q 500 -14 631 -14 q 342 -12 417 -14 q 208 -7 267 -10 q 83 0 142 -4 l 83 972 q 207 979 140 975 q 338 984 264 982 q 493 986 411 986 q 693 965 610 986 q 829 906 776 943 q 906 819 882 868 q 931 715 931 769 q 902 613 931 653 q 840 551 874 574 q 750 514 800 526 l 750 507 m 444 611 l 493 611 q 549 629 529 611 q 569 674 569 647 q 549 718 569 700 q 493 736 529 736 l 444 736 l 444 611 m 500 236 q 563 255 542 236 q 583 306 583 274 q 563 356 583 338 q 500 375 542 375 l 444 375 l 444 236 l 500 236 z "},"Е":{"ha":903,"x_min":83,"x_max":861,"o":"m 444 278 l 861 278 l 861 0 l 83 0 l 83 972 l 833 972 l 833 694 l 444 694 l 444 625 l 806 625 l 806 347 l 444 347 l 444 278 z "},"К":{"ha":1042,"x_min":83,"x_max":1056,"o":"m 764 486 l 1056 0 l 639 0 l 444 389 l 444 0 l 83 0 l 83 972 l 444 972 l 444 583 l 611 972 l 1028 972 l 764 486 z "},"М":{"ha":1514,"x_min":83,"x_max":1431,"o":"m 611 0 l 444 542 l 444 0 l 83 0 l 83 972 l 597 972 l 757 444 l 917 972 l 1431 972 l 1431 0 l 1069 0 l 1069 542 l 903 0 l 611 0 z "},"Н":{"ha":1111,"x_min":83,"x_max":1028,"o":"m 444 639 l 667 639 l 667 972 l 1028 972 l 1028 0 l 667 0 l 667 333 l 444 333 l 444 0 l 83 0 l 83 972 l 444 972 l 444 639 z "},"О":{"ha":1194,"x_min":56,"x_max":1139,"o":"m 750 486 q 738 553 750 522 q 704 606 725 583 q 656 640 683 628 q 597 653 628 653 q 538 640 565 653 q 489 606 510 628 q 456 553 468 583 q 444 486 444 522 q 456 419 444 450 q 489 367 468 389 q 538 332 510 344 q 597 319 565 319 q 656 332 628 319 q 704 367 683 344 q 738 419 725 389 q 750 486 750 450 m 1139 486 q 1099 287 1139 379 q 988 126 1060 194 q 817 18 917 57 q 597 -21 717 -21 q 378 18 478 -21 q 206 126 278 57 q 95 287 135 194 q 56 486 56 379 q 95 685 56 593 q 206 847 135 778 q 378 954 278 915 q 597 993 478 993 q 817 954 717 993 q 988 847 917 915 q 1099 685 1060 778 q 1139 486 1139 593 z "},"Р":{"ha":986,"x_min":83,"x_max":944,"o":"m 500 986 q 698 961 614 986 q 837 892 782 936 q 918 784 892 847 q 944 646 944 721 q 919 508 944 571 q 845 400 893 444 q 728 331 797 356 q 569 306 658 306 q 526 306 549 306 q 486 308 504 307 q 444 313 464 310 l 444 0 l 83 0 l 83 972 q 208 979 142 975 q 342 984 267 982 q 500 986 417 986 m 500 569 q 560 592 536 569 q 583 646 583 614 q 560 700 583 678 q 500 722 536 722 l 444 722 l 444 569 l 500 569 z "},"С":{"ha":986,"x_min":56,"x_max":958,"o":"m 56 486 q 95 685 56 593 q 203 847 135 778 q 366 954 272 915 q 569 993 460 993 q 742 969 669 993 q 863 917 814 944 q 958 840 918 882 l 792 576 q 738 614 767 597 q 680 641 713 629 q 611 653 647 653 q 491 606 538 653 q 444 486 444 560 q 491 366 444 413 q 611 319 538 319 q 680 331 647 319 q 738 357 713 342 q 792 396 767 374 l 958 132 q 863 56 918 89 q 742 3 814 26 q 569 -21 669 -21 q 366 18 460 -21 q 203 126 272 57 q 95 287 135 194 q 56 486 56 379 z "},"Т":{"ha":944,"x_min":28,"x_max":917,"o":"m 917 972 l 917 653 l 653 653 l 653 0 l 292 0 l 292 653 l 28 653 l 28 972 l 917 972 z "},"Х":{"ha":1028,"x_min":-14,"x_max":1042,"o":"m 0 972 l 417 972 l 514 708 l 611 972 l 1028 972 l 764 486 l 1042 0 l 625 0 l 514 292 l 403 0 l -14 0 l 264 486 l 0 972 z "},"Ш":{"ha":1542,"x_min":83,"x_max":1458,"o":"m 1458 0 l 83 0 l 83 972 l 444 972 l 444 306 l 590 306 l 590 972 l 951 972 l 951 306 l 1097 306 l 1097 972 l 1458 972 l 1458 0 z "},"B":{"ha":1014,"x_min":83,"x_max":972,"o":"m 750 507 q 861 464 813 494 q 938 390 903 438 q 972 264 972 342 q 947 156 972 207 q 866 68 922 106 q 720 8 810 31 q 500 -14 631 -14 q 342 -12 417 -14 q 208 -7 267 -10 q 83 0 142 -4 l 83 972 q 207 979 140 975 q 338 984 264 982 q 493 986 411 986 q 693 965 610 986 q 829 906 776 943 q 906 819 882 868 q 931 715 931 769 q 902 613 931 653 q 840 551 874 574 q 750 514 800 526 l 750 507 m 444 611 l 493 611 q 549 629 529 611 q 569 674 569 647 q 549 718 569 700 q 493 736 529 736 l 444 736 l 444 611 m 500 236 q 563 255 542 236 q 583 306 583 274 q 563 356 583 338 q 500 375 542 375 l 444 375 l 444 236 l 500 236 z "},"S":{"ha":868,"x_min":14,"x_max":840,"o":"m 382 264 q 423 277 408 264 q 438 306 438 290 q 410 337 438 324 q 340 366 382 350 q 250 404 299 382 q 160 463 201 426 q 90 551 118 499 q 63 681 63 604 q 90 797 63 740 q 169 897 118 853 q 294 967 221 940 q 458 993 367 993 q 622 969 553 993 q 739 917 692 944 q 833 840 794 882 l 701 632 q 647 669 676 653 q 590 697 622 685 q 521 708 557 708 q 480 695 494 708 q 465 667 465 682 q 493 635 465 649 q 563 606 521 622 q 653 567 604 590 q 743 509 701 544 q 813 421 785 474 q 840 292 840 368 q 813 176 840 232 q 733 76 785 119 q 609 6 682 32 q 444 -21 536 -21 q 248 5 329 -21 q 114 63 167 31 q 14 146 53 99 l 146 354 q 211 308 175 328 q 286 278 243 292 q 382 264 329 264 z "},"а":{"ha":861,"x_min":28,"x_max":806,"o":"m 396 757 q 560 726 485 757 q 690 643 635 696 q 775 519 744 590 q 806 368 806 449 l 806 0 l 486 0 l 458 83 q 415 31 440 54 q 359 -5 393 11 q 278 -21 325 -21 q 174 -3 221 -21 q 95 44 128 14 q 45 117 63 75 q 28 208 28 158 q 47 300 28 258 q 106 372 65 342 q 209 420 146 403 q 361 438 272 438 l 472 438 q 451 475 467 458 q 413 502 438 490 q 347 514 389 514 q 298 506 321 514 q 258 486 275 497 q 222 458 239 474 l 104 646 q 179 701 135 676 q 271 740 217 722 q 396 757 325 757 m 403 201 q 451 229 429 201 q 472 319 472 257 q 388 297 414 319 q 361 243 361 275 q 374 215 361 228 q 403 201 388 201 z "},"е":{"ha":847,"x_min":42,"x_max":819,"o":"m 431 757 q 582 726 511 757 q 706 643 653 696 q 789 519 758 590 q 819 368 819 449 l 819 299 l 375 299 q 396 260 381 276 q 433 233 408 244 q 500 222 458 222 q 549 231 526 222 q 589 250 572 239 q 625 278 608 263 l 743 90 q 668 35 713 60 q 576 -3 631 14 q 451 -21 522 -21 q 288 10 363 -21 q 158 93 213 40 q 72 217 103 146 q 42 368 42 288 q 72 519 42 449 q 156 643 103 590 q 279 726 208 696 q 431 757 350 757 m 493 431 q 475 493 493 472 q 431 514 457 514 q 386 493 404 514 q 368 431 368 472 l 493 431 z "},"к":{"ha":896,"x_min":69,"x_max":910,"o":"m 688 375 l 910 0 l 542 0 l 403 292 l 403 0 l 69 0 l 69 736 l 403 736 l 403 458 l 521 736 l 882 736 l 688 375 z "},"о":{"ha":931,"x_min":42,"x_max":889,"o":"m 42 368 q 73 519 42 449 q 160 643 104 590 q 293 726 215 696 q 465 757 371 757 q 637 726 558 757 q 771 643 715 696 q 858 519 826 590 q 889 368 889 449 q 858 217 889 288 q 771 93 826 146 q 637 10 715 40 q 465 -21 558 -21 q 293 10 371 -21 q 160 93 215 40 q 73 217 104 146 q 42 368 42 288 m 556 368 q 528 444 556 415 q 465 472 501 472 q 402 444 429 472 q 375 368 375 415 q 402 292 375 321 q 465 264 429 264 q 528 292 501 264 q 556 368 556 321 z "},"р":{"ha":931,"x_min":69,"x_max":889,"o":"m 889 368 q 865 201 889 274 q 800 80 840 129 q 707 5 760 31 q 597 -21 654 -21 q 508 -5 544 -21 q 447 31 471 11 q 403 83 419 54 l 403 -347 l 69 -347 l 69 736 l 375 736 l 403 653 q 447 704 419 681 q 508 740 471 724 q 597 757 544 757 q 707 731 654 757 q 800 656 760 706 q 865 534 840 607 q 889 368 889 461 m 542 368 q 519 447 542 421 q 465 472 497 472 q 411 447 433 472 q 389 368 389 421 q 411 290 389 315 q 465 264 433 264 q 519 290 497 264 q 542 368 542 315 z "},"с":{"ha":778,"x_min":42,"x_max":764,"o":"m 389 368 q 418 292 389 321 q 500 264 447 264 q 549 272 526 264 q 589 292 572 281 q 625 319 608 304 l 764 97 q 683 38 729 63 q 585 -3 643 15 q 451 -21 526 -21 q 288 10 363 -21 q 158 93 213 40 q 72 217 103 146 q 42 368 42 288 q 72 519 42 449 q 158 643 103 590 q 288 726 213 696 q 451 757 363 757 q 585 738 526 757 q 683 697 643 719 q 764 639 729 672 l 625 417 q 589 444 608 432 q 549 464 572 456 q 500 472 526 472 q 418 444 447 472 q 389 368 389 415 z "},"у":{"ha":819,"x_min":0,"x_max":819,"o":"m 243 0 l 0 736 l 347 736 l 410 347 l 472 736 l 819 736 l 556 -56 q 489 -216 524 -150 q 412 -324 454 -282 q 318 -384 369 -365 q 201 -403 267 -403 q 133 -394 165 -403 q 75 -375 100 -386 q 21 -347 46 -362 l 97 -104 q 111 -111 104 -108 q 146 -118 125 -118 q 192 -100 172 -118 q 222 -56 213 -82 l 243 0 z "},"х":{"ha":833,"x_min":-14,"x_max":847,"o":"m 639 368 l 847 0 l 472 0 l 417 181 l 361 0 l -14 0 l 194 368 l 7 736 l 361 736 l 417 556 l 472 736 l 826 736 l 639 368 z "},"¸":{"ha":403,"x_min":42,"x_max":361,"o":"m 194 -83 q 258 -97 228 -83 q 312 -133 289 -110 q 348 -186 335 -156 q 361 -250 361 -217 q 308 -380 361 -329 q 167 -431 256 -431 l 42 -431 l 42 -292 l 139 -292 q 167 -278 154 -292 q 181 -250 181 -265 q 167 -222 181 -235 q 139 -208 154 -208 l 56 -208 l 139 0 l 229 0 l 194 -83 z "},"ʼ":{"ha":347,"x_min":42,"x_max":306,"o":"m 306 764 l 208 556 l 97 556 l 153 722 l 42 722 l 42 972 l 306 972 l 306 764 z "},"":{"ha":347,"x_min":42,"x_max":306,"o":"m 306 -333 l 208 -542 l 97 -542 l 153 -375 l 42 -375 l 42 -125 l 306 -125 l 306 -333 z "},"ѓ":{"ha":694,"x_min":71,"x_max":682,"o":"m 682 736 l 682 444 l 404 444 l 404 0 l 71 0 l 71 736 l 682 736 m 375 1125 l 667 1125 l 472 833 l 250 833 l 375 1125 z "},"Ќ":{"ha":1042,"x_min":83,"x_max":1056,"o":"m 764 486 l 1056 0 l 639 0 l 444 389 l 444 0 l 83 0 l 83 972 l 444 972 l 444 583 l 611 972 l 1028 972 l 764 486 m 542 1361 l 833 1361 l 639 1069 l 417 1069 l 542 1361 z "},"Ѓ":{"ha":833,"x_min":83,"x_max":819,"o":"m 444 0 l 83 0 l 83 972 l 819 972 l 819 653 l 444 653 l 444 0 m 458 1361 l 750 1361 l 556 1069 l 333 1069 l 458 1361 z "},"ќ":{"ha":896,"x_min":69,"x_max":910,"o":"m 688 375 l 910 0 l 542 0 l 403 292 l 403 0 l 69 0 l 69 736 l 403 736 l 403 458 l 521 736 l 882 736 l 688 375 m 472 1125 l 764 1125 l 569 833 l 347 833 l 472 1125 z "},"Ў":{"ha":986,"x_min":14,"x_max":1014,"o":"m 597 972 l 1014 972 l 715 333 q 538 67 632 156 q 313 -21 443 -21 q 217 -10 260 -21 q 142 17 174 1 q 76 56 106 33 l 160 319 q 194 306 176 311 q 230 296 210 300 q 271 292 250 292 q 297 298 286 292 q 314 313 307 304 q 326 333 321 321 l 14 972 l 431 972 l 521 653 l 597 972 m 514 1278 q 569 1333 569 1278 l 778 1333 q 706 1141 778 1213 q 514 1069 635 1069 q 322 1141 393 1069 q 250 1333 250 1213 l 458 1333 q 514 1278 458 1278 z "},"ў":{"ha":819,"x_min":0,"x_max":819,"o":"m 243 0 l 0 736 l 347 736 l 410 347 l 472 736 l 819 736 l 556 -56 q 489 -216 524 -150 q 412 -324 454 -282 q 318 -384 369 -365 q 201 -403 267 -403 q 133 -394 165 -403 q 75 -375 100 -386 q 21 -347 46 -362 l 97 -104 q 111 -111 104 -108 q 146 -118 125 -118 q 192 -100 172 -118 q 222 -56 213 -82 l 243 0 m 403 1042 q 458 1097 458 1042 l 667 1097 q 595 905 667 976 q 403 833 524 833 q 210 905 282 833 q 139 1097 139 976 l 347 1097 q 403 1042 347 1042 z "},"Ј":{"ha":750,"x_min":0,"x_max":667,"o":"m 306 972 l 667 972 l 667 431 q 635 233 667 321 q 551 85 604 146 q 426 -9 497 24 q 278 -42 356 -42 q 158 -28 210 -42 q 71 0 107 -15 q 0 42 29 18 l 97 333 q 125 319 110 325 q 156 310 138 314 q 194 306 174 306 q 274 339 242 306 q 306 431 306 372 l 306 972 z "},"І":{"ha":528,"x_min":83,"x_max":444,"o":"m 444 0 l 83 0 l 83 972 l 444 972 l 444 0 z "},"і":{"ha":472,"x_min":69,"x_max":403,"o":"m 403 736 l 403 0 l 69 0 l 69 736 l 403 736 m 69 1083 l 403 1083 l 403 819 l 69 819 l 69 1083 z "},"ј":{"ha":472,"x_min":-56,"x_max":403,"o":"m 69 1083 l 403 1083 l 403 819 l 69 819 l 69 1083 m 69 736 l 403 736 l 403 -35 q 315 -310 403 -218 q 69 -403 226 -403 q 20 -401 43 -403 q -19 -396 -3 -399 q -56 -389 -39 -393 l -56 -111 q -39 -115 -49 -114 q -22 -117 -32 -117 q 0 -118 -11 -118 q 51 -97 32 -118 q 69 -35 69 -76 l 69 736 z "},"Ѕ":{"ha":868,"x_min":14,"x_max":840,"o":"m 382 264 q 423 277 408 264 q 438 306 438 290 q 410 337 438 324 q 340 366 382 350 q 250 404 299 382 q 160 463 201 426 q 90 551 118 499 q 63 681 63 604 q 90 797 63 740 q 169 897 118 853 q 294 967 221 940 q 458 993 367 993 q 622 969 553 993 q 739 917 692 944 q 833 840 794 882 l 701 632 q 647 669 676 653 q 590 697 622 685 q 521 708 557 708 q 480 695 494 708 q 465 667 465 682 q 493 635 465 649 q 563 606 521 622 q 653 567 604 590 q 743 509 701 544 q 813 421 785 474 q 840 292 840 368 q 813 176 840 232 q 733 76 785 119 q 609 6 682 32 q 444 -21 536 -21 q 248 5 329 -21 q 114 63 167 31 q 14 146 53 99 l 146 354 q 211 308 175 328 q 286 278 243 292 q 382 264 329 264 z "},"ѕ":{"ha":715,"x_min":14,"x_max":688,"o":"m 688 222 q 667 128 688 172 q 605 51 646 85 q 503 -1 564 18 q 361 -21 442 -21 q 210 -1 274 -21 q 101 44 146 19 q 14 111 50 74 l 118 278 q 165 243 139 258 q 220 219 189 229 q 292 208 251 208 q 317 217 307 208 q 326 236 326 225 q 306 256 326 246 q 256 278 286 265 q 191 308 226 290 q 126 352 156 325 q 76 419 96 379 q 56 514 56 458 q 76 608 56 564 q 138 685 97 651 q 240 738 179 718 q 382 757 301 757 q 509 738 453 757 q 606 697 565 719 q 688 639 651 672 l 583 472 q 546 500 567 488 q 503 519 528 511 q 451 528 479 528 q 426 519 436 528 q 417 500 417 511 q 437 480 417 489 q 487 458 457 471 q 552 428 517 446 q 617 384 588 411 q 667 317 647 357 q 688 222 688 278 z "},"ї":{"ha":472,"x_min":-42,"x_max":514,"o":"m 396 736 l 396 0 l 63 0 l 63 736 l 396 736 m 514 958 q 478 869 514 906 q 389 833 442 833 q 300 869 336 833 q 264 958 264 906 q 300 1047 264 1011 q 389 1083 336 1083 q 478 1047 442 1083 q 514 958 514 1011 m 208 958 q 172 869 208 906 q 83 833 136 833 q -6 869 31 833 q -42 958 -42 906 q -6 1047 -42 1011 q 83 1083 31 1083 q 172 1047 136 1083 q 208 958 208 1011 z "},"Ї":{"ha":528,"x_min":-12,"x_max":543,"o":"m 444 0 l 83 0 l 83 972 l 444 972 l 444 0 m 543 1194 q 507 1106 543 1142 q 418 1069 471 1069 q 329 1106 365 1069 q 293 1194 293 1142 q 329 1283 293 1247 q 418 1319 365 1319 q 507 1283 471 1319 q 543 1194 543 1247 m 238 1194 q 201 1106 238 1142 q 113 1069 165 1069 q 24 1106 60 1069 q -12 1194 -12 1142 q 24 1283 -12 1247 q 113 1319 60 1319 q 201 1283 165 1319 q 238 1194 238 1247 z "},"À":{"ha":1069,"x_min":14,"x_max":1056,"o":"m 771 972 q 783 928 771 971 q 816 817 796 886 q 862 661 836 749 q 914 483 888 574 q 1056 0 976 269 l 653 0 l 625 139 l 444 139 l 417 0 l 14 0 l 299 972 l 771 972 m 583 361 l 535 611 l 486 361 l 583 361 m 653 1069 l 431 1069 l 236 1361 l 528 1361 l 653 1069 z "},"Á":{"ha":1069,"x_min":14,"x_max":1056,"o":"m 771 972 q 783 928 771 971 q 816 817 796 886 q 862 661 836 749 q 914 483 888 574 q 1056 0 976 269 l 653 0 l 625 139 l 444 139 l 417 0 l 14 0 l 299 972 l 771 972 m 583 361 l 535 611 l 486 361 l 583 361 m 556 1361 l 847 1361 l 653 1069 l 431 1069 l 556 1361 z "},"Ă":{"ha":1069,"x_min":14,"x_max":1056,"o":"m 771 972 q 783 928 771 971 q 816 817 796 886 q 862 661 836 749 q 914 483 888 574 q 1056 0 976 269 l 653 0 l 625 139 l 444 139 l 417 0 l 14 0 l 299 972 l 771 972 m 583 361 l 535 611 l 486 361 l 583 361 m 535 1278 q 590 1333 590 1278 l 799 1333 q 727 1141 799 1213 q 535 1069 656 1069 q 342 1141 414 1069 q 271 1333 271 1213 l 479 1333 q 535 1278 479 1278 z "},"Â":{"ha":1069,"x_min":14,"x_max":1056,"o":"m 771 972 q 783 928 771 971 q 816 817 796 886 q 862 661 836 749 q 914 483 888 574 q 1056 0 976 269 l 653 0 l 625 139 l 444 139 l 417 0 l 14 0 l 299 972 l 771 972 m 583 361 l 535 611 l 486 361 l 583 361 m 813 1069 l 604 1069 l 535 1181 l 465 1069 l 257 1069 l 424 1306 l 646 1306 l 813 1069 z "},"Ä":{"ha":1069,"x_min":14,"x_max":1056,"o":"m 771 972 q 783 928 771 971 q 816 817 796 886 q 862 661 836 749 q 914 483 888 574 q 1056 0 976 269 l 653 0 l 625 139 l 444 139 l 417 0 l 14 0 l 299 972 l 771 972 m 583 361 l 535 611 l 486 361 l 583 361 m 813 1194 q 776 1106 813 1142 q 688 1069 740 1069 q 599 1106 635 1069 q 563 1194 563 1142 q 599 1283 563 1247 q 688 1319 635 1319 q 776 1283 740 1319 q 813 1194 813 1247 m 507 1194 q 471 1106 507 1142 q 382 1069 435 1069 q 293 1106 329 1069 q 257 1194 257 1142 q 293 1283 257 1247 q 382 1319 329 1319 q 471 1283 435 1319 q 507 1194 507 1247 z "},"Ā":{"ha":1069,"x_min":14,"x_max":1056,"o":"m 771 972 q 783 928 771 971 q 816 817 796 886 q 862 661 836 749 q 914 483 888 574 q 1056 0 976 269 l 653 0 l 625 139 l 444 139 l 417 0 l 14 0 l 299 972 l 771 972 m 583 361 l 535 611 l 486 361 l 583 361 m 319 1278 l 750 1278 l 750 1083 l 319 1083 l 319 1278 z "},"Ą":{"ha":1069,"x_min":14,"x_max":1056,"o":"m 1056 0 q 986 -64 1017 -32 q 938 -123 960 -92 q 917 -181 917 -154 q 925 -200 917 -192 q 944 -208 933 -208 l 1028 -208 l 1028 -375 l 889 -375 q 822 -363 853 -375 q 769 -331 792 -351 q 735 -282 747 -310 q 722 -222 722 -254 q 732 -169 722 -193 q 758 -124 742 -144 q 797 -85 775 -103 q 840 -54 818 -68 q 958 0 892 -22 l 653 0 l 625 139 l 444 139 l 417 0 l 14 0 l 299 972 l 771 972 q 783 928 771 971 q 816 817 796 886 q 862 661 836 749 q 914 483 888 574 q 1056 0 976 269 m 583 361 l 535 611 l 486 361 l 583 361 z "},"Å":{"ha":1069,"x_min":14,"x_max":1056,"o":"m 771 972 q 783 928 771 971 q 816 817 796 886 q 862 661 836 749 q 914 483 888 574 q 1056 0 976 269 l 653 0 l 625 139 l 444 139 l 417 0 l 14 0 l 299 972 l 771 972 m 583 361 l 535 611 l 486 361 l 583 361 m 354 1222 q 405 1352 354 1301 q 535 1403 456 1403 q 665 1352 614 1403 q 715 1222 715 1301 q 665 1092 715 1143 q 535 1042 614 1042 q 405 1092 456 1042 q 354 1222 354 1143 m 479 1222 q 497 1184 479 1201 q 535 1167 514 1167 q 573 1184 556 1167 q 590 1222 590 1201 q 573 1260 590 1243 q 535 1278 556 1278 q 497 1260 514 1278 q 479 1222 479 1243 z "},"Ã":{"ha":1069,"x_min":14,"x_max":1056,"o":"m 771 972 q 783 928 771 971 q 816 817 796 886 q 862 661 836 749 q 914 483 888 574 q 1056 0 976 269 l 653 0 l 625 139 l 444 139 l 417 0 l 14 0 l 299 972 l 771 972 m 583 361 l 535 611 l 486 361 l 583 361 m 632 1069 q 578 1081 600 1069 q 538 1104 556 1092 q 506 1128 519 1117 q 479 1139 492 1139 q 451 1124 464 1139 q 438 1083 438 1110 l 313 1083 l 313 1181 q 349 1281 313 1243 q 438 1319 385 1319 q 491 1308 468 1319 q 532 1285 514 1297 q 564 1261 550 1272 q 590 1250 578 1250 q 619 1265 606 1250 q 632 1306 632 1279 l 757 1306 l 757 1208 q 721 1108 757 1146 q 632 1069 685 1069 z "},"Ć":{"ha":986,"x_min":56,"x_max":958,"o":"m 56 486 q 95 685 56 593 q 203 847 135 778 q 366 954 272 915 q 569 993 460 993 q 742 969 669 993 q 863 917 814 944 q 958 840 918 882 l 792 576 q 738 614 767 597 q 680 641 713 629 q 611 653 647 653 q 491 606 538 653 q 444 486 444 560 q 491 366 444 413 q 611 319 538 319 q 680 331 647 319 q 738 357 713 342 q 792 396 767 374 l 958 132 q 863 56 918 89 q 742 3 814 26 q 569 -21 669 -21 q 366 18 460 -21 q 203 126 272 57 q 95 287 135 194 q 56 486 56 379 m 556 1361 l 847 1361 l 653 1069 l 431 1069 l 556 1361 z "},"Č":{"ha":986,"x_min":56,"x_max":958,"o":"m 56 486 q 95 685 56 593 q 203 847 135 778 q 366 954 272 915 q 569 993 460 993 q 742 969 669 993 q 863 917 814 944 q 958 840 918 882 l 792 576 q 738 614 767 597 q 680 641 713 629 q 611 653 647 653 q 491 606 538 653 q 444 486 444 560 q 491 366 444 413 q 611 319 538 319 q 680 331 647 319 q 738 357 713 342 q 792 396 767 374 l 958 132 q 863 56 918 89 q 742 3 814 26 q 569 -21 669 -21 q 366 18 460 -21 q 203 126 272 57 q 95 287 135 194 q 56 486 56 379 m 653 1069 l 431 1069 l 264 1306 l 472 1306 l 542 1194 l 611 1306 l 819 1306 l 653 1069 z "},"Ç":{"ha":986,"x_min":56,"x_max":958,"o":"m 56 486 q 95 685 56 593 q 203 847 135 778 q 366 954 272 915 q 569 993 460 993 q 742 969 669 993 q 863 917 814 944 q 958 840 918 882 l 792 576 q 738 614 767 597 q 680 641 713 629 q 611 653 647 653 q 491 606 538 653 q 444 486 444 560 q 491 366 444 413 q 611 319 538 319 q 680 331 647 319 q 738 357 713 342 q 792 396 767 374 l 958 132 q 864 58 919 92 q 747 6 817 31 q 583 -21 678 -18 l 556 -83 q 619 -97 589 -83 q 673 -133 650 -110 q 709 -186 696 -156 q 722 -250 722 -217 q 669 -380 722 -329 q 528 -431 617 -431 l 403 -431 l 403 -292 l 500 -292 q 528 -278 515 -292 q 542 -250 542 -265 q 528 -222 542 -235 q 500 -208 515 -208 l 417 -208 l 493 -14 q 317 44 397 1 q 178 153 236 88 q 88 303 119 218 q 56 486 56 388 z "},"Ĉ":{"ha":986,"x_min":56,"x_max":958,"o":"m 56 486 q 95 685 56 593 q 203 847 135 778 q 366 954 272 915 q 569 993 460 993 q 742 969 669 993 q 863 917 814 944 q 958 840 918 882 l 792 576 q 738 614 767 597 q 680 641 713 629 q 611 653 647 653 q 491 606 538 653 q 444 486 444 560 q 491 366 444 413 q 611 319 538 319 q 680 331 647 319 q 738 357 713 342 q 792 396 767 374 l 958 132 q 863 56 918 89 q 742 3 814 26 q 569 -21 669 -21 q 366 18 460 -21 q 203 126 272 57 q 95 287 135 194 q 56 486 56 379 m 806 1069 l 597 1069 l 528 1181 l 458 1069 l 250 1069 l 417 1306 l 639 1306 l 806 1069 z "},"Ď":{"ha":1111,"x_min":83,"x_max":1056,"o":"m 500 292 q 623 339 579 292 q 667 486 667 386 q 623 633 667 586 q 500 681 579 681 l 444 681 l 444 292 l 500 292 m 1056 486 q 1021 282 1056 374 q 917 124 986 190 q 743 22 847 58 q 500 -14 639 -14 q 342 -12 417 -14 q 208 -7 267 -10 q 83 0 142 -4 l 83 972 q 208 979 142 975 q 342 984 267 982 q 500 986 417 986 q 743 950 639 986 q 917 848 847 914 q 1021 690 986 782 q 1056 486 1056 599 m 653 1069 l 431 1069 l 264 1306 l 472 1306 l 542 1194 l 611 1306 l 819 1306 l 653 1069 z "},"Đ":{"ha":1111,"x_min":83,"x_max":1056,"o":"m 500 292 q 623 339 579 292 q 667 486 667 386 q 623 633 667 586 q 500 681 579 681 l 444 681 l 444 292 l 500 292 m 1056 486 q 1021 282 1056 374 q 917 124 986 190 q 743 22 847 58 q 500 -14 639 -14 q 342 -12 417 -14 q 208 -7 267 -10 q 83 0 142 -4 l 83 972 q 208 979 142 975 q 342 984 267 982 q 500 986 417 986 q 743 950 639 986 q 917 848 847 914 q 1021 690 986 782 q 1056 486 1056 599 m 333 1264 l 764 1264 l 764 1069 l 333 1069 l 333 1264 z "},"È":{"ha":903,"x_min":83,"x_max":861,"o":"m 444 278 l 861 278 l 861 0 l 83 0 l 83 972 l 833 972 l 833 694 l 444 694 l 444 625 l 806 625 l 806 347 l 444 347 l 444 278 m 583 1069 l 361 1069 l 167 1361 l 458 1361 l 583 1069 z "},"É":{"ha":903,"x_min":83,"x_max":861,"o":"m 444 278 l 861 278 l 861 0 l 83 0 l 83 972 l 833 972 l 833 694 l 444 694 l 444 625 l 806 625 l 806 347 l 444 347 l 444 278 m 472 1361 l 764 1361 l 569 1069 l 347 1069 l 472 1361 z "},"Ě":{"ha":903,"x_min":83,"x_max":861,"o":"m 444 278 l 861 278 l 861 0 l 83 0 l 83 972 l 833 972 l 833 694 l 444 694 l 444 625 l 806 625 l 806 347 l 444 347 l 444 278 m 569 1069 l 347 1069 l 181 1306 l 389 1306 l 458 1194 l 528 1306 l 736 1306 l 569 1069 z "},"Ê":{"ha":903,"x_min":83,"x_max":861,"o":"m 444 278 l 861 278 l 861 0 l 83 0 l 83 972 l 833 972 l 833 694 l 444 694 l 444 625 l 806 625 l 806 347 l 444 347 l 444 278 m 736 1069 l 528 1069 l 458 1181 l 389 1069 l 181 1069 l 347 1306 l 569 1306 l 736 1069 z "},"Ë":{"ha":903,"x_min":83,"x_max":861,"o":"m 444 278 l 861 278 l 861 0 l 83 0 l 83 972 l 833 972 l 833 694 l 444 694 l 444 625 l 806 625 l 806 347 l 444 347 l 444 278 m 736 1194 q 700 1106 736 1142 q 611 1069 664 1069 q 522 1106 558 1069 q 486 1194 486 1142 q 522 1283 486 1247 q 611 1319 558 1319 q 700 1283 664 1319 q 736 1194 736 1247 m 431 1194 q 394 1106 431 1142 q 306 1069 358 1069 q 217 1106 253 1069 q 181 1194 181 1142 q 217 1283 181 1247 q 306 1319 253 1319 q 394 1283 358 1319 q 431 1194 431 1247 z "},"Ė":{"ha":903,"x_min":83,"x_max":861,"o":"m 444 278 l 861 278 l 861 0 l 83 0 l 83 972 l 833 972 l 833 694 l 444 694 l 444 625 l 806 625 l 806 347 l 444 347 l 444 278 m 333 1208 q 374 1307 333 1267 q 472 1347 414 1347 q 571 1307 531 1347 q 611 1208 611 1267 q 571 1110 611 1150 q 472 1069 531 1069 q 374 1110 414 1069 q 333 1208 333 1150 z "},"Ē":{"ha":903,"x_min":83,"x_max":861,"o":"m 444 278 l 861 278 l 861 0 l 83 0 l 83 972 l 833 972 l 833 694 l 444 694 l 444 625 l 806 625 l 806 347 l 444 347 l 444 278 m 250 1292 l 681 1292 l 681 1097 l 250 1097 l 250 1292 z "},"Ę":{"ha":903,"x_min":83,"x_max":861,"o":"m 444 278 l 861 278 l 861 0 l 611 0 q 542 -64 572 -32 q 494 -123 515 -92 q 472 -181 472 -154 q 481 -200 472 -192 q 500 -208 489 -208 l 583 -208 l 583 -375 l 444 -375 q 378 -363 408 -375 q 325 -331 347 -351 q 290 -282 303 -310 q 278 -222 278 -254 q 288 -169 278 -193 q 314 -124 297 -144 q 352 -85 331 -103 q 396 -54 374 -68 q 514 0 447 -22 l 83 0 l 83 972 l 833 972 l 833 694 l 444 694 l 444 625 l 806 625 l 806 347 l 444 347 l 444 278 z "},"Ğ":{"ha":1028,"x_min":56,"x_max":972,"o":"m 639 319 l 639 486 l 972 486 l 972 146 q 875 63 932 99 q 749 5 825 31 q 569 -21 674 -21 q 366 18 460 -21 q 203 126 272 57 q 95 287 135 194 q 56 486 56 379 q 95 685 56 593 q 203 847 135 778 q 366 954 272 915 q 569 993 460 993 q 742 969 669 993 q 863 917 814 944 q 958 840 918 882 l 792 576 q 738 614 767 597 q 680 641 713 629 q 611 653 647 653 q 491 606 538 653 q 444 486 444 560 q 491 366 444 413 q 611 319 538 319 l 639 319 m 556 1278 q 611 1333 611 1278 l 819 1333 q 748 1141 819 1213 q 556 1069 676 1069 q 363 1141 435 1069 q 292 1333 292 1213 l 500 1333 q 556 1278 500 1278 z "},"Ģ":{"ha":1028,"x_min":56,"x_max":972,"o":"m 694 -319 l 597 -528 l 486 -528 l 542 -361 l 431 -361 l 431 -111 l 694 -111 l 694 -319 m 639 319 l 639 486 l 972 486 l 972 146 q 875 63 932 99 q 749 5 825 31 q 569 -21 674 -21 q 366 18 460 -21 q 203 126 272 57 q 95 287 135 194 q 56 486 56 379 q 95 685 56 593 q 203 847 135 778 q 366 954 272 915 q 569 993 460 993 q 742 969 669 993 q 863 917 814 944 q 958 840 918 882 l 792 576 q 738 614 767 597 q 680 641 713 629 q 611 653 647 653 q 491 606 538 653 q 444 486 444 560 q 491 366 444 413 q 611 319 538 319 l 639 319 z "},"Ķ":{"ha":1042,"x_min":83,"x_max":1056,"o":"m 764 486 l 1056 0 l 639 0 l 444 389 l 444 0 l 83 0 l 83 972 l 444 972 l 444 583 l 611 972 l 1028 972 l 764 486 m 667 -319 l 569 -528 l 458 -528 l 514 -361 l 403 -361 l 403 -111 l 667 -111 l 667 -319 z "},"Ĺ":{"ha":847,"x_min":83,"x_max":819,"o":"m 444 319 l 819 319 l 819 0 l 83 0 l 83 972 l 444 972 l 444 319 m 278 1361 l 569 1361 l 375 1069 l 153 1069 l 278 1361 z "},"Ľ":{"ha":847,"x_min":83,"x_max":819,"o":"m 444 319 l 819 319 l 819 0 l 83 0 l 83 972 l 444 972 l 444 319 m 819 764 l 722 556 l 611 556 l 667 722 l 556 722 l 556 972 l 819 972 l 819 764 z "},"Ļ":{"ha":847,"x_min":83,"x_max":819,"o":"m 444 319 l 819 319 l 819 0 l 83 0 l 83 972 l 444 972 l 444 319 m 597 -319 l 500 -528 l 389 -528 l 444 -361 l 333 -361 l 333 -111 l 597 -111 l 597 -319 z "},"à":{"ha":861,"x_min":28,"x_max":806,"o":"m 396 757 q 560 726 485 757 q 690 643 635 696 q 775 519 744 590 q 806 368 806 449 l 806 0 l 486 0 l 458 83 q 415 31 440 54 q 359 -5 393 11 q 278 -21 325 -21 q 174 -3 221 -21 q 95 44 128 14 q 45 117 63 75 q 28 208 28 158 q 47 300 28 258 q 106 372 65 342 q 209 420 146 403 q 361 438 272 438 l 472 438 q 451 475 467 458 q 413 502 438 490 q 347 514 389 514 q 298 506 321 514 q 258 486 275 497 q 222 458 239 474 l 104 646 q 179 701 135 676 q 271 740 217 722 q 396 757 325 757 m 403 201 q 451 229 429 201 q 472 319 472 257 q 388 297 414 319 q 361 243 361 275 q 374 215 361 228 q 403 201 388 201 m 597 833 l 375 833 l 181 1125 l 472 1125 l 597 833 z "},"á":{"ha":861,"x_min":28,"x_max":806,"o":"m 396 757 q 560 726 485 757 q 690 643 635 696 q 775 519 744 590 q 806 368 806 449 l 806 0 l 486 0 l 458 83 q 415 31 440 54 q 359 -5 393 11 q 278 -21 325 -21 q 174 -3 221 -21 q 95 44 128 14 q 45 117 63 75 q 28 208 28 158 q 47 300 28 258 q 106 372 65 342 q 209 420 146 403 q 361 438 272 438 l 472 438 q 451 475 467 458 q 413 502 438 490 q 347 514 389 514 q 298 506 321 514 q 258 486 275 497 q 222 458 239 474 l 104 646 q 179 701 135 676 q 271 740 217 722 q 396 757 325 757 m 403 201 q 451 229 429 201 q 472 319 472 257 q 388 297 414 319 q 361 243 361 275 q 374 215 361 228 q 403 201 388 201 m 472 1125 l 764 1125 l 569 833 l 347 833 l 472 1125 z "},"ă":{"ha":861,"x_min":28,"x_max":806,"o":"m 396 757 q 560 726 485 757 q 690 643 635 696 q 775 519 744 590 q 806 368 806 449 l 806 0 l 486 0 l 458 83 q 415 31 440 54 q 359 -5 393 11 q 278 -21 325 -21 q 174 -3 221 -21 q 95 44 128 14 q 45 117 63 75 q 28 208 28 158 q 47 300 28 258 q 106 372 65 342 q 209 420 146 403 q 361 438 272 438 l 472 438 q 451 475 467 458 q 413 502 438 490 q 347 514 389 514 q 298 506 321 514 q 258 486 275 497 q 222 458 239 474 l 104 646 q 179 701 135 676 q 271 740 217 722 q 396 757 325 757 m 403 201 q 451 229 429 201 q 472 319 472 257 q 388 297 414 319 q 361 243 361 275 q 374 215 361 228 q 403 201 388 201 m 472 1042 q 528 1097 528 1042 l 736 1097 q 665 905 736 976 q 472 833 593 833 q 280 905 351 833 q 208 1097 208 976 l 417 1097 q 472 1042 417 1042 z "},"â":{"ha":861,"x_min":28,"x_max":806,"o":"m 396 757 q 560 726 485 757 q 690 643 635 696 q 775 519 744 590 q 806 368 806 449 l 806 0 l 486 0 l 458 83 q 415 31 440 54 q 359 -5 393 11 q 278 -21 325 -21 q 174 -3 221 -21 q 95 44 128 14 q 45 117 63 75 q 28 208 28 158 q 47 300 28 258 q 106 372 65 342 q 209 420 146 403 q 361 438 272 438 l 472 438 q 451 475 467 458 q 413 502 438 490 q 347 514 389 514 q 298 506 321 514 q 258 486 275 497 q 222 458 239 474 l 104 646 q 179 701 135 676 q 271 740 217 722 q 396 757 325 757 m 403 201 q 451 229 429 201 q 472 319 472 257 q 388 297 414 319 q 361 243 361 275 q 374 215 361 228 q 403 201 388 201 m 736 833 l 528 833 l 458 944 l 389 833 l 181 833 l 347 1069 l 569 1069 l 736 833 z "},"ä":{"ha":861,"x_min":28,"x_max":806,"o":"m 396 757 q 560 726 485 757 q 690 643 635 696 q 775 519 744 590 q 806 368 806 449 l 806 0 l 486 0 l 458 83 q 415 31 440 54 q 359 -5 393 11 q 278 -21 325 -21 q 174 -3 221 -21 q 95 44 128 14 q 45 117 63 75 q 28 208 28 158 q 47 300 28 258 q 106 372 65 342 q 209 420 146 403 q 361 438 272 438 l 472 438 q 451 475 467 458 q 413 502 438 490 q 347 514 389 514 q 298 506 321 514 q 258 486 275 497 q 222 458 239 474 l 104 646 q 179 701 135 676 q 271 740 217 722 q 396 757 325 757 m 403 201 q 451 229 429 201 q 472 319 472 257 q 388 297 414 319 q 361 243 361 275 q 374 215 361 228 q 403 201 388 201 m 750 958 q 714 869 750 906 q 625 833 678 833 q 536 869 572 833 q 500 958 500 906 q 536 1047 500 1011 q 625 1083 572 1083 q 714 1047 678 1083 q 750 958 750 1011 m 444 958 q 408 869 444 906 q 319 833 372 833 q 231 869 267 833 q 194 958 194 906 q 231 1047 194 1011 q 319 1083 267 1083 q 408 1047 372 1083 q 444 958 444 1011 z "},"ā":{"ha":861,"x_min":28,"x_max":806,"o":"m 396 757 q 560 726 485 757 q 690 643 635 696 q 775 519 744 590 q 806 368 806 449 l 806 0 l 486 0 l 458 83 q 415 31 440 54 q 359 -5 393 11 q 278 -21 325 -21 q 174 -3 221 -21 q 95 44 128 14 q 45 117 63 75 q 28 208 28 158 q 47 300 28 258 q 106 372 65 342 q 209 420 146 403 q 361 438 272 438 l 472 438 q 451 475 467 458 q 413 502 438 490 q 347 514 389 514 q 298 506 321 514 q 258 486 275 497 q 222 458 239 474 l 104 646 q 179 701 135 676 q 271 740 217 722 q 396 757 325 757 m 403 201 q 451 229 429 201 q 472 319 472 257 q 388 297 414 319 q 361 243 361 275 q 374 215 361 228 q 403 201 388 201 m 250 1042 l 681 1042 l 681 847 l 250 847 l 250 1042 z "},"ą":{"ha":861,"x_min":28,"x_max":806,"o":"m 396 757 q 560 726 485 757 q 690 643 635 696 q 775 519 744 590 q 806 368 806 449 l 806 0 q 736 -64 767 -32 q 688 -123 710 -92 q 667 -181 667 -154 q 675 -200 667 -192 q 694 -208 683 -208 l 778 -208 l 778 -375 l 639 -375 q 572 -363 603 -375 q 519 -331 542 -351 q 485 -282 497 -310 q 472 -222 472 -254 q 482 -169 472 -193 q 508 -124 492 -144 q 547 -85 525 -103 q 590 -54 568 -68 q 708 0 642 -22 l 486 0 l 458 83 q 415 31 440 54 q 359 -5 393 11 q 278 -21 325 -21 q 174 -3 221 -21 q 95 44 128 14 q 45 117 63 75 q 28 208 28 158 q 47 300 28 258 q 106 372 65 342 q 209 420 146 403 q 361 438 272 438 l 472 438 q 451 475 467 458 q 413 502 438 490 q 347 514 389 514 q 298 506 321 514 q 258 486 275 497 q 222 458 239 474 l 104 646 q 179 701 135 676 q 271 740 217 722 q 396 757 325 757 m 403 201 q 451 229 429 201 q 472 319 472 257 q 388 297 414 319 q 361 243 361 275 q 374 215 361 228 q 403 201 388 201 z "},"å":{"ha":861,"x_min":28,"x_max":806,"o":"m 396 757 q 560 726 485 757 q 690 643 635 696 q 775 519 744 590 q 806 368 806 449 l 806 0 l 486 0 l 458 83 q 415 31 440 54 q 359 -5 393 11 q 278 -21 325 -21 q 174 -3 221 -21 q 95 44 128 14 q 45 117 63 75 q 28 208 28 158 q 47 300 28 258 q 106 372 65 342 q 209 420 146 403 q 361 438 272 438 l 472 438 q 451 475 467 458 q 413 502 438 490 q 347 514 389 514 q 298 506 321 514 q 258 486 275 497 q 222 458 239 474 l 104 646 q 179 701 135 676 q 271 740 217 722 q 396 757 325 757 m 403 201 q 451 229 429 201 q 472 319 472 257 q 388 297 414 319 q 361 243 361 275 q 374 215 361 228 q 403 201 388 201 m 292 1000 q 342 1130 292 1079 q 472 1181 393 1181 q 602 1130 551 1181 q 653 1000 653 1079 q 602 870 653 921 q 472 819 551 819 q 342 870 393 819 q 292 1000 292 921 m 417 1000 q 434 962 417 979 q 472 944 451 944 q 510 962 493 944 q 528 1000 528 979 q 510 1038 528 1021 q 472 1056 493 1056 q 434 1038 451 1056 q 417 1000 417 1021 z "},"ã":{"ha":861,"x_min":28,"x_max":806,"o":"m 396 757 q 560 726 485 757 q 690 643 635 696 q 775 519 744 590 q 806 368 806 449 l 806 0 l 486 0 l 458 83 q 415 31 440 54 q 359 -5 393 11 q 278 -21 325 -21 q 174 -3 221 -21 q 95 44 128 14 q 45 117 63 75 q 28 208 28 158 q 47 300 28 258 q 106 372 65 342 q 209 420 146 403 q 361 438 272 438 l 472 438 q 451 475 467 458 q 413 502 438 490 q 347 514 389 514 q 298 506 321 514 q 258 486 275 497 q 222 458 239 474 l 104 646 q 179 701 135 676 q 271 740 217 722 q 396 757 325 757 m 403 201 q 451 229 429 201 q 472 319 472 257 q 388 297 414 319 q 361 243 361 275 q 374 215 361 228 q 403 201 388 201 m 556 833 q 501 844 524 833 q 461 868 479 856 q 429 892 443 881 q 403 903 415 903 q 374 888 388 903 q 361 847 361 874 l 236 847 l 236 944 q 272 1045 236 1007 q 361 1083 308 1083 q 415 1072 392 1083 q 456 1049 438 1061 q 488 1025 474 1036 q 514 1014 501 1014 q 542 1028 529 1014 q 556 1069 556 1043 l 681 1069 l 681 972 q 644 872 681 910 q 556 833 608 833 z "},"ć":{"ha":778,"x_min":42,"x_max":764,"o":"m 389 368 q 418 292 389 321 q 500 264 447 264 q 549 272 526 264 q 589 292 572 281 q 625 319 608 304 l 764 97 q 683 38 729 63 q 585 -3 643 15 q 451 -21 526 -21 q 288 10 363 -21 q 158 93 213 40 q 72 217 103 146 q 42 368 42 288 q 72 519 42 449 q 158 643 103 590 q 288 726 213 696 q 451 757 363 757 q 585 738 526 757 q 683 697 643 719 q 764 639 729 672 l 625 417 q 589 444 608 432 q 549 464 572 456 q 500 472 526 472 q 418 444 447 472 q 389 368 389 415 m 431 1125 l 722 1125 l 528 833 l 306 833 l 431 1125 z "},"č":{"ha":778,"x_min":42,"x_max":764,"o":"m 389 368 q 418 292 389 321 q 500 264 447 264 q 549 272 526 264 q 589 292 572 281 q 625 319 608 304 l 764 97 q 683 38 729 63 q 585 -3 643 15 q 451 -21 526 -21 q 288 10 363 -21 q 158 93 213 40 q 72 217 103 146 q 42 368 42 288 q 72 519 42 449 q 158 643 103 590 q 288 726 213 696 q 451 757 363 757 q 585 738 526 757 q 683 697 643 719 q 764 639 729 672 l 625 417 q 589 444 608 432 q 549 464 572 456 q 500 472 526 472 q 418 444 447 472 q 389 368 389 415 m 542 833 l 319 833 l 153 1069 l 361 1069 l 431 958 l 500 1069 l 708 1069 l 542 833 z "},"ç":{"ha":778,"x_min":42,"x_max":764,"o":"m 389 368 q 418 292 389 321 q 500 264 447 264 q 549 272 526 264 q 589 292 572 281 q 625 319 608 304 l 764 97 q 686 40 731 65 q 594 0 649 18 q 472 -21 540 -18 l 444 -83 q 508 -97 478 -83 q 562 -133 539 -110 q 598 -186 585 -156 q 611 -250 611 -217 q 558 -380 611 -329 q 417 -431 506 -431 l 292 -431 l 292 -292 l 389 -292 q 417 -278 404 -292 q 431 -250 431 -265 q 417 -222 431 -235 q 389 -208 404 -208 l 306 -208 l 382 -14 q 244 30 307 -4 q 136 115 181 64 q 67 230 92 165 q 42 368 42 294 q 72 519 42 449 q 158 643 103 590 q 288 726 213 696 q 451 757 363 757 q 585 738 526 757 q 683 697 643 719 q 764 639 729 672 l 625 417 q 589 444 608 432 q 549 464 572 456 q 500 472 526 472 q 418 444 447 472 q 389 368 389 415 z "},"ĉ":{"ha":778,"x_min":42,"x_max":764,"o":"m 389 368 q 418 292 389 321 q 500 264 447 264 q 549 272 526 264 q 589 292 572 281 q 625 319 608 304 l 764 97 q 683 38 729 63 q 585 -3 643 15 q 451 -21 526 -21 q 288 10 363 -21 q 158 93 213 40 q 72 217 103 146 q 42 368 42 288 q 72 519 42 449 q 158 643 103 590 q 288 726 213 696 q 451 757 363 757 q 585 738 526 757 q 683 697 643 719 q 764 639 729 672 l 625 417 q 589 444 608 432 q 549 464 572 456 q 500 472 526 472 q 418 444 447 472 q 389 368 389 415 m 722 833 l 514 833 l 444 944 l 375 833 l 167 833 l 333 1069 l 556 1069 l 722 833 z "},"ď":{"ha":1153,"x_min":42,"x_max":1181,"o":"m 42 368 q 66 534 42 461 q 131 656 90 607 q 224 731 171 706 q 333 757 276 757 q 422 740 386 757 q 482 704 458 724 q 528 653 508 681 l 528 1028 l 861 1028 l 861 0 l 556 0 l 528 83 q 482 31 508 54 q 422 -5 458 11 q 333 -21 386 -21 q 224 5 276 -21 q 131 80 171 31 q 66 201 90 129 q 42 368 42 274 m 389 368 q 411 290 389 315 q 465 264 433 264 q 519 290 497 264 q 542 368 542 315 q 519 447 542 421 q 465 472 497 472 q 411 447 433 472 q 389 368 389 421 m 1181 819 l 1083 611 l 972 611 l 1028 778 l 917 778 l 917 1028 l 1181 1028 l 1181 819 z "},"è":{"ha":847,"x_min":42,"x_max":819,"o":"m 431 757 q 582 726 511 757 q 706 643 653 696 q 789 519 758 590 q 819 368 819 449 l 819 299 l 375 299 q 396 260 381 276 q 433 233 408 244 q 500 222 458 222 q 549 231 526 222 q 589 250 572 239 q 625 278 608 263 l 743 90 q 668 35 713 60 q 576 -3 631 14 q 451 -21 522 -21 q 288 10 363 -21 q 158 93 213 40 q 72 217 103 146 q 42 368 42 288 q 72 519 42 449 q 156 643 103 590 q 279 726 208 696 q 431 757 350 757 m 493 431 q 475 493 493 472 q 431 514 457 514 q 386 493 404 514 q 368 431 368 472 l 493 431 m 542 833 l 319 833 l 125 1125 l 417 1125 l 542 833 z "},"é":{"ha":847,"x_min":42,"x_max":819,"o":"m 431 757 q 582 726 511 757 q 706 643 653 696 q 789 519 758 590 q 819 368 819 449 l 819 299 l 375 299 q 396 260 381 276 q 433 233 408 244 q 500 222 458 222 q 549 231 526 222 q 589 250 572 239 q 625 278 608 263 l 743 90 q 668 35 713 60 q 576 -3 631 14 q 451 -21 522 -21 q 288 10 363 -21 q 158 93 213 40 q 72 217 103 146 q 42 368 42 288 q 72 519 42 449 q 156 643 103 590 q 279 726 208 696 q 431 757 350 757 m 493 431 q 475 493 493 472 q 431 514 457 514 q 386 493 404 514 q 368 431 368 472 l 493 431 m 431 1125 l 722 1125 l 528 833 l 306 833 l 431 1125 z "},"ě":{"ha":847,"x_min":42,"x_max":819,"o":"m 431 757 q 582 726 511 757 q 706 643 653 696 q 789 519 758 590 q 819 368 819 449 l 819 299 l 375 299 q 396 260 381 276 q 433 233 408 244 q 500 222 458 222 q 549 231 526 222 q 589 250 572 239 q 625 278 608 263 l 743 90 q 668 35 713 60 q 576 -3 631 14 q 451 -21 522 -21 q 288 10 363 -21 q 158 93 213 40 q 72 217 103 146 q 42 368 42 288 q 72 519 42 449 q 156 643 103 590 q 279 726 208 696 q 431 757 350 757 m 493 431 q 475 493 493 472 q 431 514 457 514 q 386 493 404 514 q 368 431 368 472 l 493 431 m 542 833 l 319 833 l 153 1069 l 361 1069 l 431 958 l 500 1069 l 708 1069 l 542 833 z "},"ê":{"ha":847,"x_min":42,"x_max":819,"o":"m 431 757 q 582 726 511 757 q 706 643 653 696 q 789 519 758 590 q 819 368 819 449 l 819 299 l 375 299 q 396 260 381 276 q 433 233 408 244 q 500 222 458 222 q 549 231 526 222 q 589 250 572 239 q 625 278 608 263 l 743 90 q 668 35 713 60 q 576 -3 631 14 q 451 -21 522 -21 q 288 10 363 -21 q 158 93 213 40 q 72 217 103 146 q 42 368 42 288 q 72 519 42 449 q 156 643 103 590 q 279 726 208 696 q 431 757 350 757 m 493 431 q 475 493 493 472 q 431 514 457 514 q 386 493 404 514 q 368 431 368 472 l 493 431 m 708 833 l 500 833 l 431 944 l 361 833 l 153 833 l 319 1069 l 542 1069 l 708 833 z "},"ë":{"ha":847,"x_min":42,"x_max":819,"o":"m 431 757 q 582 726 511 757 q 706 643 653 696 q 789 519 758 590 q 819 368 819 449 l 819 299 l 375 299 q 396 260 381 276 q 433 233 408 244 q 500 222 458 222 q 549 231 526 222 q 589 250 572 239 q 625 278 608 263 l 743 90 q 668 35 713 60 q 576 -3 631 14 q 451 -21 522 -21 q 288 10 363 -21 q 158 93 213 40 q 72 217 103 146 q 42 368 42 288 q 72 519 42 449 q 156 643 103 590 q 279 726 208 696 q 431 757 350 757 m 493 431 q 475 493 493 472 q 431 514 457 514 q 386 493 404 514 q 368 431 368 472 l 493 431 m 708 958 q 672 869 708 906 q 583 833 636 833 q 494 869 531 833 q 458 958 458 906 q 494 1047 458 1011 q 583 1083 531 1083 q 672 1047 636 1083 q 708 958 708 1011 m 403 958 q 367 869 403 906 q 278 833 331 833 q 189 869 225 833 q 153 958 153 906 q 189 1047 153 1011 q 278 1083 225 1083 q 367 1047 331 1083 q 403 958 403 1011 z "},"ė":{"ha":847,"x_min":42,"x_max":819,"o":"m 431 757 q 582 726 511 757 q 706 643 653 696 q 789 519 758 590 q 819 368 819 449 l 819 299 l 375 299 q 396 260 381 276 q 433 233 408 244 q 500 222 458 222 q 549 231 526 222 q 589 250 572 239 q 625 278 608 263 l 743 90 q 668 35 713 60 q 576 -3 631 14 q 451 -21 522 -21 q 288 10 363 -21 q 158 93 213 40 q 72 217 103 146 q 42 368 42 288 q 72 519 42 449 q 156 643 103 590 q 279 726 208 696 q 431 757 350 757 m 493 431 q 475 493 493 472 q 431 514 457 514 q 386 493 404 514 q 368 431 368 472 l 493 431 m 292 972 q 332 1071 292 1031 q 431 1111 372 1111 q 529 1071 489 1111 q 569 972 569 1031 q 529 874 569 914 q 431 833 489 833 q 332 874 372 833 q 292 972 292 914 z "},"ē":{"ha":847,"x_min":42,"x_max":819,"o":"m 431 757 q 582 726 511 757 q 706 643 653 696 q 789 519 758 590 q 819 368 819 449 l 819 299 l 375 299 q 396 260 381 276 q 433 233 408 244 q 500 222 458 222 q 549 231 526 222 q 589 250 572 239 q 625 278 608 263 l 743 90 q 668 35 713 60 q 576 -3 631 14 q 451 -21 522 -21 q 288 10 363 -21 q 158 93 213 40 q 72 217 103 146 q 42 368 42 288 q 72 519 42 449 q 156 643 103 590 q 279 726 208 696 q 431 757 350 757 m 493 431 q 475 493 493 472 q 431 514 457 514 q 386 493 404 514 q 368 431 368 472 l 493 431 m 215 1028 l 646 1028 l 646 833 l 215 833 l 215 1028 z "},"ę":{"ha":847,"x_min":42,"x_max":819,"o":"m 431 757 q 582 726 511 757 q 706 643 653 696 q 789 519 758 590 q 819 368 819 449 l 819 299 l 375 299 q 396 260 381 276 q 433 233 408 244 q 500 222 458 222 q 549 231 526 222 q 589 250 572 239 q 625 278 608 263 l 743 90 q 694 61 719 76 q 644 31 672 47 q 583 0 615 15 q 538 -31 563 -11 q 493 -75 514 -50 q 458 -127 472 -100 q 444 -181 444 -154 q 453 -200 444 -192 q 472 -208 461 -208 l 556 -208 l 556 -375 l 417 -375 q 350 -363 381 -375 q 297 -331 319 -351 q 263 -282 275 -310 q 250 -222 250 -254 q 278 -144 250 -181 q 340 -81 306 -108 q 431 -21 379 -49 q 276 13 347 -18 q 152 95 204 43 q 71 217 100 147 q 42 368 42 288 q 72 519 42 449 q 156 643 103 590 q 279 726 208 696 q 431 757 350 757 m 493 431 q 475 493 493 472 q 431 514 457 514 q 386 493 404 514 q 368 431 368 472 l 493 431 z "},"ğ":{"ha":931,"x_min":42,"x_max":861,"o":"m 528 111 q 482 58 508 82 q 422 23 458 39 q 333 7 386 7 q 224 33 276 7 q 131 106 171 58 q 66 224 90 154 q 42 382 42 293 q 66 540 42 471 q 131 658 90 610 q 224 731 171 706 q 333 757 276 757 q 422 740 386 757 q 482 704 458 724 q 528 653 508 681 l 556 736 l 861 736 l 861 28 q 828 -134 861 -58 q 738 -267 794 -210 q 603 -356 681 -324 q 438 -389 526 -389 q 303 -371 361 -389 q 206 -331 246 -353 q 125 -271 160 -306 l 264 -49 q 300 -76 281 -64 q 340 -96 317 -87 q 389 -104 363 -104 q 490 -67 451 -104 q 528 28 528 -31 l 528 111 m 389 382 q 411 316 389 340 q 465 292 433 292 q 519 316 497 292 q 542 382 542 340 q 519 448 542 424 q 465 472 497 472 q 411 448 433 472 q 389 382 389 424 m 472 1042 q 528 1097 528 1042 l 736 1097 q 665 905 736 976 q 472 833 593 833 q 280 905 351 833 q 208 1097 208 976 l 417 1097 q 472 1042 417 1042 z "},"ģ":{"ha":931,"x_min":42,"x_max":861,"o":"m 333 1042 l 431 1250 l 542 1250 l 486 1083 l 597 1083 l 597 833 l 333 833 l 333 1042 m 528 111 q 482 58 508 82 q 422 23 458 39 q 333 7 386 7 q 224 33 276 7 q 131 106 171 58 q 66 224 90 154 q 42 382 42 293 q 66 540 42 471 q 131 658 90 610 q 224 731 171 706 q 333 757 276 757 q 422 740 386 757 q 482 704 458 724 q 528 653 508 681 l 556 736 l 861 736 l 861 28 q 828 -134 861 -58 q 738 -267 794 -210 q 603 -356 681 -324 q 438 -389 526 -389 q 303 -371 361 -389 q 206 -331 246 -353 q 125 -271 160 -306 l 264 -49 q 300 -76 281 -64 q 340 -96 317 -87 q 389 -104 363 -104 q 490 -67 451 -104 q 528 28 528 -31 l 528 111 m 389 382 q 411 316 389 340 q 465 292 433 292 q 519 316 497 292 q 542 382 542 340 q 519 448 542 424 q 465 472 497 472 q 411 448 433 472 q 389 382 389 424 z "},"ķ":{"ha":896,"x_min":69,"x_max":910,"o":"m 688 375 l 910 0 l 542 0 l 403 292 l 403 0 l 69 0 l 69 1028 l 403 1028 l 403 458 l 521 736 l 882 736 l 688 375 m 583 -319 l 486 -528 l 375 -528 l 431 -361 l 319 -361 l 319 -111 l 583 -111 l 583 -319 z "},"ĺ":{"ha":472,"x_min":69,"x_max":542,"o":"m 69 1028 l 403 1028 l 403 0 l 69 0 l 69 1028 m 250 1375 l 542 1375 l 347 1083 l 125 1083 l 250 1375 z "},"ľ":{"ha":694,"x_min":69,"x_max":722,"o":"m 69 1028 l 403 1028 l 403 0 l 69 0 l 69 1028 m 722 819 l 625 611 l 514 611 l 569 778 l 458 778 l 458 1028 l 722 1028 l 722 819 z "},"ļ":{"ha":472,"x_min":69,"x_max":403,"o":"m 69 1028 l 403 1028 l 403 0 l 69 0 l 69 1028 m 368 -319 l 271 -528 l 160 -528 l 215 -361 l 104 -361 l 104 -111 l 368 -111 l 368 -319 z "},"Ņ":{"ha":1167,"x_min":83,"x_max":1083,"o":"m 444 431 l 444 0 l 83 0 l 83 972 l 486 972 l 722 542 l 722 972 l 1083 972 l 1083 0 l 681 0 l 444 431 m 722 -319 l 625 -528 l 514 -528 l 569 -361 l 458 -361 l 458 -111 l 722 -111 l 722 -319 z "},"Ñ":{"ha":1167,"x_min":83,"x_max":1083,"o":"m 444 431 l 444 0 l 83 0 l 83 972 l 486 972 l 722 542 l 722 972 l 1083 972 l 1083 0 l 681 0 l 444 431 m 679 1056 q 625 1067 647 1056 q 585 1090 603 1078 q 553 1114 567 1103 q 526 1125 539 1125 q 498 1110 511 1125 q 485 1069 485 1096 l 360 1069 l 360 1167 q 396 1267 360 1229 q 485 1306 432 1306 q 538 1294 515 1306 q 579 1271 561 1283 q 611 1247 597 1258 q 638 1236 625 1236 q 666 1251 653 1236 q 679 1292 679 1265 l 804 1292 l 804 1194 q 768 1094 804 1132 q 679 1056 732 1056 z "},"Ò":{"ha":1194,"x_min":56,"x_max":1139,"o":"m 750 486 q 738 553 750 522 q 704 606 725 583 q 656 640 683 628 q 597 653 628 653 q 538 640 565 653 q 489 606 510 628 q 456 553 468 583 q 444 486 444 522 q 456 419 444 450 q 489 367 468 389 q 538 332 510 344 q 597 319 565 319 q 656 332 628 319 q 704 367 683 344 q 738 419 725 389 q 750 486 750 450 m 1139 486 q 1099 287 1139 379 q 988 126 1060 194 q 817 18 917 57 q 597 -21 717 -21 q 378 18 478 -21 q 206 126 278 57 q 95 287 135 194 q 56 486 56 379 q 95 685 56 593 q 206 847 135 778 q 378 954 278 915 q 597 993 478 993 q 817 954 717 993 q 988 847 917 915 q 1099 685 1060 778 q 1139 486 1139 593 m 708 1069 l 486 1069 l 292 1361 l 583 1361 l 708 1069 z "},"Ì":{"ha":528,"x_min":-40,"x_max":444,"o":"m 444 0 l 83 0 l 83 972 l 444 972 l 444 0 m 376 1069 l 154 1069 l -40 1361 l 251 1361 l 376 1069 z "},"Í":{"ha":528,"x_min":83,"x_max":569,"o":"m 444 0 l 83 0 l 83 972 l 444 972 l 444 0 m 278 1361 l 569 1361 l 375 1069 l 153 1069 l 278 1361 z "},"Ó":{"ha":1194,"x_min":56,"x_max":1139,"o":"m 750 486 q 738 553 750 522 q 704 606 725 583 q 656 640 683 628 q 597 653 628 653 q 538 640 565 653 q 489 606 510 628 q 456 553 468 583 q 444 486 444 522 q 456 419 444 450 q 489 367 468 389 q 538 332 510 344 q 597 319 565 319 q 656 332 628 319 q 704 367 683 344 q 738 419 725 389 q 750 486 750 450 m 1139 486 q 1099 287 1139 379 q 988 126 1060 194 q 817 18 917 57 q 597 -21 717 -21 q 378 18 478 -21 q 206 126 278 57 q 95 287 135 194 q 56 486 56 379 q 95 685 56 593 q 206 847 135 778 q 378 954 278 915 q 597 993 478 993 q 817 954 717 993 q 988 847 917 915 q 1099 685 1060 778 q 1139 486 1139 593 m 625 1361 l 917 1361 l 722 1069 l 500 1069 l 625 1361 z "},"Ô":{"ha":1194,"x_min":56,"x_max":1139,"o":"m 750 486 q 738 553 750 522 q 704 606 725 583 q 656 640 683 628 q 597 653 628 653 q 538 640 565 653 q 489 606 510 628 q 456 553 468 583 q 444 486 444 522 q 456 419 444 450 q 489 367 468 389 q 538 332 510 344 q 597 319 565 319 q 656 332 628 319 q 704 367 683 344 q 738 419 725 389 q 750 486 750 450 m 1139 486 q 1099 287 1139 379 q 988 126 1060 194 q 817 18 917 57 q 597 -21 717 -21 q 378 18 478 -21 q 206 126 278 57 q 95 287 135 194 q 56 486 56 379 q 95 685 56 593 q 206 847 135 778 q 378 954 278 915 q 597 993 478 993 q 817 954 717 993 q 988 847 917 915 q 1099 685 1060 778 q 1139 486 1139 593 m 875 1069 l 667 1069 l 597 1181 l 528 1069 l 319 1069 l 486 1306 l 708 1306 l 875 1069 z "},"Î":{"ha":528,"x_min":-12,"x_max":543,"o":"m 444 0 l 83 0 l 83 972 l 444 972 l 444 0 m 543 1069 l 335 1069 l 265 1181 l 196 1069 l -12 1069 l 154 1306 l 376 1306 l 543 1069 z "},"Ï":{"ha":528,"x_min":-12,"x_max":543,"o":"m 444 0 l 83 0 l 83 972 l 444 972 l 444 0 m 543 1194 q 507 1106 543 1142 q 418 1069 471 1069 q 329 1106 365 1069 q 293 1194 293 1142 q 329 1283 293 1247 q 418 1319 365 1319 q 507 1283 471 1319 q 543 1194 543 1247 m 238 1194 q 201 1106 238 1142 q 113 1069 165 1069 q 24 1106 60 1069 q -12 1194 -12 1142 q 24 1283 -12 1247 q 113 1319 60 1319 q 201 1283 165 1319 q 238 1194 238 1247 z "},"Ö":{"ha":1194,"x_min":56,"x_max":1139,"o":"m 750 486 q 738 553 750 522 q 704 606 725 583 q 656 640 683 628 q 597 653 628 653 q 538 640 565 653 q 489 606 510 628 q 456 553 468 583 q 444 486 444 522 q 456 419 444 450 q 489 367 468 389 q 538 332 510 344 q 597 319 565 319 q 656 332 628 319 q 704 367 683 344 q 738 419 725 389 q 750 486 750 450 m 1139 486 q 1099 287 1139 379 q 988 126 1060 194 q 817 18 917 57 q 597 -21 717 -21 q 378 18 478 -21 q 206 126 278 57 q 95 287 135 194 q 56 486 56 379 q 95 685 56 593 q 206 847 135 778 q 378 954 278 915 q 597 993 478 993 q 817 954 717 993 q 988 847 917 915 q 1099 685 1060 778 q 1139 486 1139 593 m 875 1194 q 839 1106 875 1142 q 750 1069 803 1069 q 661 1106 697 1069 q 625 1194 625 1142 q 661 1283 625 1247 q 750 1319 697 1319 q 839 1283 803 1319 q 875 1194 875 1247 m 569 1194 q 533 1106 569 1142 q 444 1069 497 1069 q 356 1106 392 1069 q 319 1194 319 1142 q 356 1283 319 1247 q 444 1319 392 1319 q 533 1283 497 1319 q 569 1194 569 1247 z "},"Ő":{"ha":1194,"x_min":56,"x_max":1139,"o":"m 750 486 q 738 553 750 522 q 704 606 725 583 q 656 640 683 628 q 597 653 628 653 q 538 640 565 653 q 489 606 510 628 q 456 553 468 583 q 444 486 444 522 q 456 419 444 450 q 489 367 468 389 q 538 332 510 344 q 597 319 565 319 q 656 332 628 319 q 704 367 683 344 q 738 419 725 389 q 750 486 750 450 m 1139 486 q 1099 287 1139 379 q 988 126 1060 194 q 817 18 917 57 q 597 -21 717 -21 q 378 18 478 -21 q 206 126 278 57 q 95 287 135 194 q 56 486 56 379 q 95 685 56 593 q 206 847 135 778 q 378 954 278 915 q 597 993 478 993 q 817 954 717 993 q 988 847 917 915 q 1099 685 1060 778 q 1139 486 1139 593 m 486 1361 l 708 1361 l 514 1069 l 361 1069 l 486 1361 m 778 1361 l 1000 1361 l 806 1069 l 653 1069 l 778 1361 z "},"İ":{"ha":528,"x_min":83,"x_max":444,"o":"m 444 0 l 83 0 l 83 972 l 444 972 l 444 0 m 125 1208 q 165 1307 125 1267 q 264 1347 206 1347 q 363 1307 322 1347 q 403 1208 403 1267 q 363 1110 403 1150 q 264 1069 322 1069 q 165 1110 206 1069 q 125 1208 125 1150 z "},"Ī":{"ha":528,"x_min":49,"x_max":479,"o":"m 444 0 l 83 0 l 83 972 l 444 972 l 444 0 m 49 1278 l 479 1278 l 479 1083 l 49 1083 l 49 1278 z "},"Ō":{"ha":1194,"x_min":56,"x_max":1139,"o":"m 750 486 q 738 553 750 522 q 704 606 725 583 q 656 640 683 628 q 597 653 628 653 q 538 640 565 653 q 489 606 510 628 q 456 553 468 583 q 444 486 444 522 q 456 419 444 450 q 489 367 468 389 q 538 332 510 344 q 597 319 565 319 q 656 332 628 319 q 704 367 683 344 q 738 419 725 389 q 750 486 750 450 m 1139 486 q 1099 287 1139 379 q 988 126 1060 194 q 817 18 917 57 q 597 -21 717 -21 q 378 18 478 -21 q 206 126 278 57 q 95 287 135 194 q 56 486 56 379 q 95 685 56 593 q 206 847 135 778 q 378 954 278 915 q 597 993 478 993 q 817 954 717 993 q 988 847 917 915 q 1099 685 1060 778 q 1139 486 1139 593 m 382 1278 l 813 1278 l 813 1083 l 382 1083 l 382 1278 z "},"Õ":{"ha":1194,"x_min":56,"x_max":1139,"o":"m 750 486 q 738 553 750 522 q 704 606 725 583 q 656 640 683 628 q 597 653 628 653 q 538 640 565 653 q 489 606 510 628 q 456 553 468 583 q 444 486 444 522 q 456 419 444 450 q 489 367 468 389 q 538 332 510 344 q 597 319 565 319 q 656 332 628 319 q 704 367 683 344 q 738 419 725 389 q 750 486 750 450 m 1139 486 q 1099 287 1139 379 q 988 126 1060 194 q 817 18 917 57 q 597 -21 717 -21 q 378 18 478 -21 q 206 126 278 57 q 95 287 135 194 q 56 486 56 379 q 95 685 56 593 q 206 847 135 778 q 378 954 278 915 q 597 993 478 993 q 817 954 717 993 q 988 847 917 915 q 1099 685 1060 778 q 1139 486 1139 593 m 694 1069 q 640 1081 663 1069 q 600 1104 618 1092 q 568 1128 582 1117 q 542 1139 554 1139 q 513 1124 526 1139 q 500 1083 500 1110 l 375 1083 l 375 1181 q 411 1281 375 1243 q 500 1319 447 1319 q 553 1308 531 1319 q 594 1285 576 1297 q 626 1261 613 1272 q 653 1250 640 1250 q 681 1265 668 1250 q 694 1306 694 1279 l 819 1306 l 819 1208 q 783 1108 819 1146 q 694 1069 747 1069 z "},"Į":{"ha":528,"x_min":83,"x_max":444,"o":"m 444 0 q 375 -64 406 -32 q 327 -123 349 -92 q 306 -181 306 -154 q 314 -200 306 -192 q 333 -208 322 -208 l 417 -208 l 417 -375 l 278 -375 q 211 -363 242 -375 q 158 -331 181 -351 q 124 -282 136 -310 q 111 -222 111 -254 q 121 -169 111 -193 q 147 -124 131 -144 q 185 -85 164 -103 q 229 -54 207 -68 q 347 0 281 -22 l 83 0 l 83 972 l 444 972 l 444 0 z "},"Ń":{"ha":1167,"x_min":83,"x_max":1083,"o":"m 444 431 l 444 0 l 83 0 l 83 972 l 486 972 l 722 542 l 722 972 l 1083 972 l 1083 0 l 681 0 l 444 431 m 583 1361 l 875 1361 l 681 1069 l 458 1069 l 583 1361 z "},"Ň":{"ha":1167,"x_min":83,"x_max":1083,"o":"m 444 431 l 444 0 l 83 0 l 83 972 l 486 972 l 722 542 l 722 972 l 1083 972 l 1083 0 l 681 0 l 444 431 m 694 1069 l 472 1069 l 306 1306 l 514 1306 l 583 1194 l 653 1306 l 861 1306 l 694 1069 z "},"Ŕ":{"ha":1014,"x_min":83,"x_max":1042,"o":"m 625 0 l 458 319 l 444 319 l 444 0 l 83 0 l 83 972 q 207 979 140 975 q 335 984 264 982 q 486 986 407 986 q 684 961 600 986 q 823 892 768 936 q 904 784 878 847 q 931 646 931 721 q 911 518 931 569 q 868 435 892 467 q 806 375 840 397 l 1042 0 l 625 0 m 486 569 q 546 592 522 569 q 569 646 569 614 q 546 700 569 678 q 486 722 522 722 l 444 722 l 444 569 l 486 569 m 500 1361 l 792 1361 l 597 1069 l 375 1069 l 500 1361 z "},"Ř":{"ha":1014,"x_min":83,"x_max":1042,"o":"m 625 0 l 458 319 l 444 319 l 444 0 l 83 0 l 83 972 q 207 979 140 975 q 335 984 264 982 q 486 986 407 986 q 684 961 600 986 q 823 892 768 936 q 904 784 878 847 q 931 646 931 721 q 911 518 931 569 q 868 435 892 467 q 806 375 840 397 l 1042 0 l 625 0 m 486 569 q 546 592 522 569 q 569 646 569 614 q 546 700 569 678 q 486 722 522 722 l 444 722 l 444 569 l 486 569 m 597 1069 l 375 1069 l 208 1306 l 417 1306 l 486 1194 l 556 1306 l 764 1306 l 597 1069 z "},"Ŗ":{"ha":1014,"x_min":83,"x_max":1042,"o":"m 625 0 l 458 319 l 444 319 l 444 0 l 83 0 l 83 972 q 207 979 140 975 q 335 984 264 982 q 486 986 407 986 q 684 961 600 986 q 823 892 768 936 q 904 784 878 847 q 931 646 931 721 q 911 518 931 569 q 868 435 892 467 q 806 375 840 397 l 1042 0 l 625 0 m 486 569 q 546 592 522 569 q 569 646 569 614 q 546 700 569 678 q 486 722 522 722 l 444 722 l 444 569 l 486 569 m 667 -319 l 569 -528 l 458 -528 l 514 -361 l 403 -361 l 403 -111 l 667 -111 l 667 -319 z "},"Ś":{"ha":868,"x_min":14,"x_max":840,"o":"m 382 264 q 423 277 408 264 q 438 306 438 290 q 410 337 438 324 q 340 366 382 350 q 250 404 299 382 q 160 463 201 426 q 90 551 118 499 q 63 681 63 604 q 90 797 63 740 q 169 897 118 853 q 294 967 221 940 q 458 993 367 993 q 622 969 553 993 q 739 917 692 944 q 833 840 794 882 l 701 632 q 647 669 676 653 q 590 697 622 685 q 521 708 557 708 q 480 695 494 708 q 465 667 465 682 q 493 635 465 649 q 563 606 521 622 q 653 567 604 590 q 743 509 701 544 q 813 421 785 474 q 840 292 840 368 q 813 176 840 232 q 733 76 785 119 q 609 6 682 32 q 444 -21 536 -21 q 248 5 329 -21 q 114 63 167 31 q 14 146 53 99 l 146 354 q 211 308 175 328 q 286 278 243 292 q 382 264 329 264 m 429 1361 l 721 1361 l 526 1069 l 304 1069 l 429 1361 z "},"Ş":{"ha":868,"x_min":14,"x_max":840,"o":"m 382 264 q 423 277 408 264 q 438 306 438 290 q 410 337 438 324 q 340 366 382 350 q 250 404 299 382 q 160 463 201 426 q 90 551 118 499 q 63 681 63 604 q 90 797 63 740 q 169 897 118 853 q 294 967 221 940 q 458 993 367 993 q 622 969 553 993 q 739 917 692 944 q 833 840 794 882 l 701 632 q 647 669 676 653 q 590 697 622 685 q 521 708 557 708 q 480 695 494 708 q 465 667 465 682 q 493 635 465 649 q 563 606 521 622 q 653 567 604 590 q 743 509 701 544 q 813 421 785 474 q 840 292 840 368 q 814 181 840 235 q 740 83 788 126 q 626 13 693 40 q 479 -21 560 -15 l 451 -83 q 515 -97 485 -83 q 569 -133 546 -110 q 605 -186 592 -156 q 618 -250 618 -217 q 565 -380 618 -329 q 424 -431 513 -431 l 299 -431 l 299 -292 l 396 -292 q 424 -278 411 -292 q 438 -250 438 -265 q 424 -222 438 -235 q 396 -208 411 -208 l 313 -208 l 389 -14 q 219 17 289 -8 q 103 71 149 42 q 14 146 49 104 l 146 354 q 211 308 175 328 q 286 278 243 292 q 382 264 329 264 z "},"Š":{"ha":868,"x_min":14,"x_max":840,"o":"m 382 264 q 423 277 408 264 q 438 306 438 290 q 410 337 438 324 q 340 366 382 350 q 250 404 299 382 q 160 463 201 426 q 90 551 118 499 q 63 681 63 604 q 90 797 63 740 q 169 897 118 853 q 294 967 221 940 q 458 993 367 993 q 622 969 553 993 q 739 917 692 944 q 833 840 794 882 l 701 632 q 647 669 676 653 q 590 697 622 685 q 521 708 557 708 q 480 695 494 708 q 465 667 465 682 q 493 635 465 649 q 563 606 521 622 q 653 567 604 590 q 743 509 701 544 q 813 421 785 474 q 840 292 840 368 q 813 176 840 232 q 733 76 785 119 q 609 6 682 32 q 444 -21 536 -21 q 248 5 329 -21 q 114 63 167 31 q 14 146 53 99 l 146 354 q 211 308 175 328 q 286 278 243 292 q 382 264 329 264 m 556 1069 l 333 1069 l 167 1306 l 375 1306 l 444 1194 l 514 1306 l 722 1306 l 556 1069 z "},"Ș":{"ha":868,"x_min":14,"x_max":840,"o":"m 382 264 q 423 277 408 264 q 438 306 438 290 q 410 337 438 324 q 340 366 382 350 q 250 404 299 382 q 160 463 201 426 q 90 551 118 499 q 63 681 63 604 q 90 797 63 740 q 169 897 118 853 q 294 967 221 940 q 458 993 367 993 q 622 969 553 993 q 739 917 692 944 q 833 840 794 882 l 701 632 q 647 669 676 653 q 590 697 622 685 q 521 708 557 708 q 480 695 494 708 q 465 667 465 682 q 493 635 465 649 q 563 606 521 622 q 653 567 604 590 q 743 509 701 544 q 813 421 785 474 q 840 292 840 368 q 813 176 840 232 q 733 76 785 119 q 609 6 682 32 q 444 -21 536 -21 q 248 5 329 -21 q 114 63 167 31 q 14 146 53 99 l 146 354 q 211 308 175 328 q 286 278 243 292 q 382 264 329 264 m 583 -319 l 486 -528 l 375 -528 l 431 -361 l 319 -361 l 319 -111 l 583 -111 l 583 -319 z "},"Ť":{"ha":917,"x_min":15,"x_max":904,"o":"m 904 972 l 904 653 l 640 653 l 640 0 l 279 0 l 279 653 l 15 653 l 15 972 l 904 972 m 569 1069 l 347 1069 l 181 1306 l 389 1306 l 458 1194 l 528 1306 l 736 1306 l 569 1069 z "},"Ţ":{"ha":917,"x_min":15,"x_max":904,"o":"m 904 972 l 904 653 l 640 653 l 640 0 l 279 0 l 279 653 l 15 653 l 15 972 l 904 972 m 590 -319 l 493 -528 l 382 -528 l 438 -361 l 326 -361 l 326 -111 l 590 -111 l 590 -319 z "},"Ý":{"ha":972,"x_min":-28,"x_max":1000,"o":"m 486 694 l 583 972 l 1000 972 l 667 375 l 667 0 l 306 0 l 306 375 l -28 972 l 389 972 l 486 694 m 500 1361 l 792 1361 l 597 1069 l 375 1069 l 500 1361 z "},"ı":{"ha":472,"x_min":69,"x_max":403,"o":"m 403 736 l 403 0 l 69 0 l 69 736 l 403 736 z "},"Ÿ":{"ha":972,"x_min":-28,"x_max":1000,"o":"m 486 694 l 583 972 l 1000 972 l 667 375 l 667 0 l 306 0 l 306 375 l -28 972 l 389 972 l 486 694 m 764 1194 q 728 1106 764 1142 q 639 1069 692 1069 q 550 1106 586 1069 q 514 1194 514 1142 q 550 1283 514 1247 q 639 1319 586 1319 q 728 1283 692 1319 q 764 1194 764 1247 m 458 1194 q 422 1106 458 1142 q 333 1069 386 1069 q 244 1106 281 1069 q 208 1194 208 1142 q 244 1283 208 1247 q 333 1319 281 1319 q 422 1283 386 1319 q 458 1194 458 1247 z "},"ì":{"ha":472,"x_min":-68,"x_max":403,"o":"m 403 736 l 403 0 l 69 0 l 69 736 l 403 736 m 349 833 l 126 833 l -68 1125 l 224 1125 l 349 833 z "},"í":{"ha":472,"x_min":69,"x_max":542,"o":"m 403 736 l 403 0 l 69 0 l 69 736 l 403 736 m 250 1125 l 542 1125 l 347 833 l 125 833 l 250 1125 z "},"î":{"ha":472,"x_min":-40,"x_max":515,"o":"m 403 736 l 403 0 l 69 0 l 69 736 l 403 736 m 515 833 l 307 833 l 238 944 l 168 833 l -40 833 l 126 1069 l 349 1069 l 515 833 z "},"ï":{"ha":472,"x_min":-26,"x_max":529,"o":"m 403 736 l 403 0 l 69 0 l 69 736 l 403 736 m 529 958 q 493 869 529 906 q 404 833 457 833 q 315 869 351 833 q 279 958 279 906 q 315 1047 279 1011 q 404 1083 351 1083 q 493 1047 457 1083 q 529 958 529 1011 m 224 958 q 188 869 224 906 q 99 833 151 833 q 10 869 46 833 q -26 958 -26 906 q 10 1047 -26 1011 q 99 1083 46 1083 q 188 1047 151 1083 q 224 958 224 1011 z "},"ī":{"ha":472,"x_min":22,"x_max":453,"o":"m 403 736 l 403 0 l 69 0 l 69 736 l 403 736 m 22 1042 l 453 1042 l 453 847 l 22 847 l 22 1042 z "},"į":{"ha":472,"x_min":69,"x_max":403,"o":"m 403 736 l 403 0 q 333 -64 364 -32 q 285 -123 307 -92 q 264 -181 264 -154 q 272 -200 264 -192 q 292 -208 281 -208 l 375 -208 l 375 -375 l 236 -375 q 169 -363 200 -375 q 117 -331 139 -351 q 82 -282 94 -310 q 69 -222 69 -254 q 79 -169 69 -193 q 106 -124 89 -144 q 144 -85 122 -103 q 188 -54 165 -68 q 306 0 239 -22 l 69 0 l 69 736 l 403 736 m 69 1083 l 403 1083 l 403 819 l 69 819 l 69 1083 z "},"ń":{"ha":903,"x_min":69,"x_max":847,"o":"m 597 757 q 694 735 649 757 q 774 669 740 714 q 828 555 808 625 q 847 389 847 485 l 847 0 l 514 0 l 514 389 q 497 451 514 431 q 458 472 479 472 q 420 451 438 472 q 403 389 403 431 l 403 0 l 69 0 l 69 736 l 389 736 l 417 653 q 460 704 435 681 q 516 740 482 724 q 597 757 550 757 m 458 1125 l 750 1125 l 556 833 l 333 833 l 458 1125 z "},"ň":{"ha":903,"x_min":69,"x_max":847,"o":"m 597 757 q 694 735 649 757 q 774 669 740 714 q 828 555 808 625 q 847 389 847 485 l 847 0 l 514 0 l 514 389 q 497 451 514 431 q 458 472 479 472 q 420 451 438 472 q 403 389 403 431 l 403 0 l 69 0 l 69 736 l 389 736 l 417 653 q 460 704 435 681 q 516 740 482 724 q 597 757 550 757 m 556 833 l 333 833 l 167 1069 l 375 1069 l 444 958 l 514 1069 l 722 1069 l 556 833 z "},"ņ":{"ha":903,"x_min":69,"x_max":847,"o":"m 597 757 q 694 735 649 757 q 774 669 740 714 q 828 555 808 625 q 847 389 847 485 l 847 0 l 514 0 l 514 389 q 497 451 514 431 q 458 472 479 472 q 420 451 438 472 q 403 389 403 431 l 403 0 l 69 0 l 69 736 l 389 736 l 417 653 q 460 704 435 681 q 516 740 482 724 q 597 757 550 757 m 590 -319 l 493 -528 l 382 -528 l 438 -361 l 326 -361 l 326 -111 l 590 -111 l 590 -319 z "},"õ":{"ha":931,"x_min":42,"x_max":889,"o":"m 42 368 q 73 519 42 449 q 160 643 104 590 q 293 726 215 696 q 465 757 371 757 q 637 726 558 757 q 771 643 715 696 q 858 519 826 590 q 889 368 889 449 q 858 217 889 288 q 771 93 826 146 q 637 10 715 40 q 465 -21 558 -21 q 293 10 371 -21 q 160 93 215 40 q 73 217 104 146 q 42 368 42 288 m 556 368 q 528 444 556 415 q 465 472 501 472 q 402 444 429 472 q 375 368 375 415 q 402 292 375 321 q 465 264 429 264 q 528 292 501 264 q 556 368 556 321 m 563 833 q 508 844 531 833 q 468 868 486 856 q 436 892 450 881 q 410 903 422 903 q 381 888 394 903 q 368 847 368 874 l 243 847 l 243 944 q 279 1045 243 1007 q 368 1083 315 1083 q 422 1072 399 1083 q 463 1049 444 1061 q 494 1025 481 1036 q 521 1014 508 1014 q 549 1028 536 1014 q 563 1069 563 1043 l 688 1069 l 688 972 q 651 872 688 910 q 563 833 615 833 z "},"ō":{"ha":931,"x_min":42,"x_max":889,"o":"m 42 368 q 73 519 42 449 q 160 643 104 590 q 293 726 215 696 q 465 757 371 757 q 637 726 558 757 q 771 643 715 696 q 858 519 826 590 q 889 368 889 449 q 858 217 889 288 q 771 93 826 146 q 637 10 715 40 q 465 -21 558 -21 q 293 10 371 -21 q 160 93 215 40 q 73 217 104 146 q 42 368 42 288 m 556 368 q 528 444 556 415 q 465 472 501 472 q 402 444 429 472 q 375 368 375 415 q 402 292 375 321 q 465 264 429 264 q 528 292 501 264 q 556 368 556 321 m 250 1056 l 681 1056 l 681 861 l 250 861 l 250 1056 z "},"ő":{"ha":931,"x_min":42,"x_max":889,"o":"m 42 368 q 73 519 42 449 q 160 643 104 590 q 293 726 215 696 q 465 757 371 757 q 637 726 558 757 q 771 643 715 696 q 858 519 826 590 q 889 368 889 449 q 858 217 889 288 q 771 93 826 146 q 637 10 715 40 q 465 -21 558 -21 q 293 10 371 -21 q 160 93 215 40 q 73 217 104 146 q 42 368 42 288 m 556 368 q 528 444 556 415 q 465 472 501 472 q 402 444 429 472 q 375 368 375 415 q 402 292 375 321 q 465 264 429 264 q 528 292 501 264 q 556 368 556 321 m 361 1125 l 583 1125 l 389 833 l 236 833 l 361 1125 m 653 1125 l 875 1125 l 681 833 l 528 833 l 653 1125 z "},"ö":{"ha":931,"x_min":42,"x_max":889,"o":"m 42 368 q 73 519 42 449 q 160 643 104 590 q 293 726 215 696 q 465 757 371 757 q 637 726 558 757 q 771 643 715 696 q 858 519 826 590 q 889 368 889 449 q 858 217 889 288 q 771 93 826 146 q 637 10 715 40 q 465 -21 558 -21 q 293 10 371 -21 q 160 93 215 40 q 73 217 104 146 q 42 368 42 288 m 556 368 q 528 444 556 415 q 465 472 501 472 q 402 444 429 472 q 375 368 375 415 q 402 292 375 321 q 465 264 429 264 q 528 292 501 264 q 556 368 556 321 m 743 958 q 707 869 743 906 q 618 833 671 833 q 529 869 565 833 q 493 958 493 906 q 529 1047 493 1011 q 618 1083 565 1083 q 707 1047 671 1083 q 743 958 743 1011 m 438 958 q 401 869 438 906 q 313 833 365 833 q 224 869 260 833 q 188 958 188 906 q 224 1047 188 1011 q 313 1083 260 1083 q 401 1047 365 1083 q 438 958 438 1011 z "},"ô":{"ha":931,"x_min":42,"x_max":889,"o":"m 42 368 q 73 519 42 449 q 160 643 104 590 q 293 726 215 696 q 465 757 371 757 q 637 726 558 757 q 771 643 715 696 q 858 519 826 590 q 889 368 889 449 q 858 217 889 288 q 771 93 826 146 q 637 10 715 40 q 465 -21 558 -21 q 293 10 371 -21 q 160 93 215 40 q 73 217 104 146 q 42 368 42 288 m 556 368 q 528 444 556 415 q 465 472 501 472 q 402 444 429 472 q 375 368 375 415 q 402 292 375 321 q 465 264 429 264 q 528 292 501 264 q 556 368 556 321 m 743 833 l 535 833 l 465 944 l 396 833 l 188 833 l 354 1069 l 576 1069 l 743 833 z "},"ó":{"ha":931,"x_min":42,"x_max":889,"o":"m 42 368 q 73 519 42 449 q 160 643 104 590 q 293 726 215 696 q 465 757 371 757 q 637 726 558 757 q 771 643 715 696 q 858 519 826 590 q 889 368 889 449 q 858 217 889 288 q 771 93 826 146 q 637 10 715 40 q 465 -21 558 -21 q 293 10 371 -21 q 160 93 215 40 q 73 217 104 146 q 42 368 42 288 m 556 368 q 528 444 556 415 q 465 472 501 472 q 402 444 429 472 q 375 368 375 415 q 402 292 375 321 q 465 264 429 264 q 528 292 501 264 q 556 368 556 321 m 472 1125 l 764 1125 l 569 833 l 347 833 l 472 1125 z "},"ò":{"ha":931,"x_min":42,"x_max":889,"o":"m 42 368 q 73 519 42 449 q 160 643 104 590 q 293 726 215 696 q 465 757 371 757 q 637 726 558 757 q 771 643 715 696 q 858 519 826 590 q 889 368 889 449 q 858 217 889 288 q 771 93 826 146 q 637 10 715 40 q 465 -21 558 -21 q 293 10 371 -21 q 160 93 215 40 q 73 217 104 146 q 42 368 42 288 m 556 368 q 528 444 556 415 q 465 472 501 472 q 402 444 429 472 q 375 368 375 415 q 402 292 375 321 q 465 264 429 264 q 528 292 501 264 q 556 368 556 321 m 569 833 l 347 833 l 153 1125 l 444 1125 l 569 833 z "},"ñ":{"ha":903,"x_min":69,"x_max":847,"o":"m 597 757 q 694 735 649 757 q 774 669 740 714 q 828 555 808 625 q 847 389 847 485 l 847 0 l 514 0 l 514 389 q 497 451 514 431 q 458 472 479 472 q 420 451 438 472 q 403 389 403 431 l 403 0 l 69 0 l 69 736 l 389 736 l 417 653 q 460 704 435 681 q 516 740 482 724 q 597 757 550 757 m 556 819 q 501 831 524 819 q 461 854 479 842 q 429 878 443 867 q 403 889 415 889 q 374 874 388 889 q 361 833 361 860 l 236 833 l 236 931 q 272 1031 236 993 q 361 1069 308 1069 q 415 1058 392 1069 q 456 1035 438 1047 q 488 1011 474 1022 q 514 1000 501 1000 q 542 1015 529 1000 q 556 1056 556 1029 l 681 1056 l 681 958 q 644 858 681 896 q 556 819 608 819 z "},"ŕ":{"ha":667,"x_min":69,"x_max":681,"o":"m 417 653 q 458 704 433 681 q 510 740 479 724 q 583 757 542 757 q 622 753 604 757 q 653 746 639 750 q 681 736 668 740 l 625 431 q 592 444 608 439 q 560 454 576 450 q 528 458 543 458 q 439 419 475 458 q 403 306 403 379 l 403 0 l 69 0 l 69 736 l 389 736 l 417 653 l 417 653 m 375 1125 l 667 1125 l 472 833 l 250 833 l 375 1125 z "},"Ù":{"ha":1111,"x_min":83,"x_max":1028,"o":"m 556 326 q 635 360 603 326 q 667 451 667 393 l 667 972 l 1028 972 l 1028 451 q 993 260 1028 347 q 896 111 958 174 q 747 14 833 49 q 556 -21 660 -21 q 365 14 451 -21 q 215 111 278 49 q 118 260 153 174 q 83 451 83 347 l 83 972 l 444 972 l 444 451 q 476 360 444 393 q 556 326 508 326 m 667 1069 l 444 1069 l 250 1361 l 542 1361 l 667 1069 z "},"ù":{"ha":917,"x_min":69,"x_max":847,"o":"m 319 -21 q 222 1 267 -21 q 142 67 176 22 q 89 181 108 111 q 69 347 69 251 l 69 736 l 403 736 l 403 347 q 420 285 403 306 q 458 264 438 264 q 497 285 479 264 q 514 347 514 306 l 514 736 l 847 736 l 847 0 l 528 0 l 500 83 q 457 31 482 54 q 401 -5 435 11 q 319 -21 367 -21 m 569 833 l 347 833 l 153 1125 l 444 1125 l 569 833 z "},"ŗ":{"ha":667,"x_min":69,"x_max":681,"o":"m 417 653 q 458 704 433 681 q 510 740 479 724 q 583 757 542 757 q 622 753 604 757 q 653 746 639 750 q 681 736 668 740 l 625 431 q 592 444 608 439 q 560 454 576 450 q 528 458 543 458 q 439 419 475 458 q 403 306 403 379 l 403 0 l 69 0 l 69 736 l 389 736 l 417 653 l 417 653 m 368 -319 l 271 -528 l 160 -528 l 215 -361 l 104 -361 l 104 -111 l 368 -111 l 368 -319 z "},"ř":{"ha":667,"x_min":69,"x_max":681,"o":"m 417 653 q 458 704 433 681 q 510 740 479 724 q 583 757 542 757 q 622 753 604 757 q 653 746 639 750 q 681 736 668 740 l 625 431 q 592 444 608 439 q 560 454 576 450 q 528 458 543 458 q 439 419 475 458 q 403 306 403 379 l 403 0 l 69 0 l 69 736 l 389 736 l 417 653 l 417 653 m 486 833 l 264 833 l 97 1069 l 306 1069 l 375 958 l 444 1069 l 653 1069 l 486 833 z "},"Ú":{"ha":1111,"x_min":83,"x_max":1028,"o":"m 556 326 q 635 360 603 326 q 667 451 667 393 l 667 972 l 1028 972 l 1028 451 q 993 260 1028 347 q 896 111 958 174 q 747 14 833 49 q 556 -21 660 -21 q 365 14 451 -21 q 215 111 278 49 q 118 260 153 174 q 83 451 83 347 l 83 972 l 444 972 l 444 451 q 476 360 444 393 q 556 326 508 326 m 569 1361 l 861 1361 l 667 1069 l 444 1069 l 569 1361 z "},"Û":{"ha":1111,"x_min":83,"x_max":1028,"o":"m 556 326 q 635 360 603 326 q 667 451 667 393 l 667 972 l 1028 972 l 1028 451 q 993 260 1028 347 q 896 111 958 174 q 747 14 833 49 q 556 -21 660 -21 q 365 14 451 -21 q 215 111 278 49 q 118 260 153 174 q 83 451 83 347 l 83 972 l 444 972 l 444 451 q 476 360 444 393 q 556 326 508 326 m 833 1069 l 625 1069 l 556 1181 l 486 1069 l 278 1069 l 444 1306 l 667 1306 l 833 1069 z "},"ś":{"ha":715,"x_min":14,"x_max":688,"o":"m 688 222 q 667 128 688 172 q 605 51 646 85 q 503 -1 564 18 q 361 -21 442 -21 q 210 -1 274 -21 q 101 44 146 19 q 14 111 50 74 l 118 278 q 165 243 139 258 q 220 219 189 229 q 292 208 251 208 q 317 217 307 208 q 326 236 326 225 q 306 256 326 246 q 256 278 286 265 q 191 308 226 290 q 126 352 156 325 q 76 419 96 379 q 56 514 56 458 q 76 608 56 564 q 138 685 97 651 q 240 738 179 718 q 382 757 301 757 q 509 738 453 757 q 606 697 565 719 q 688 639 651 672 l 583 472 q 546 500 567 488 q 503 519 528 511 q 451 528 479 528 q 426 519 436 528 q 417 500 417 511 q 437 480 417 489 q 487 458 457 471 q 552 428 517 446 q 617 384 588 411 q 667 317 647 357 q 688 222 688 278 m 375 1125 l 667 1125 l 472 833 l 250 833 l 375 1125 z "},"š":{"ha":715,"x_min":14,"x_max":688,"o":"m 688 222 q 667 128 688 172 q 605 51 646 85 q 503 -1 564 18 q 361 -21 442 -21 q 210 -1 274 -21 q 101 44 146 19 q 14 111 50 74 l 118 278 q 165 243 139 258 q 220 219 189 229 q 292 208 251 208 q 317 217 307 208 q 326 236 326 225 q 306 256 326 246 q 256 278 286 265 q 191 308 226 290 q 126 352 156 325 q 76 419 96 379 q 56 514 56 458 q 76 608 56 564 q 138 685 97 651 q 240 738 179 718 q 382 757 301 757 q 509 738 453 757 q 606 697 565 719 q 688 639 651 672 l 583 472 q 546 500 567 488 q 503 519 528 511 q 451 528 479 528 q 426 519 436 528 q 417 500 417 511 q 437 480 417 489 q 487 458 457 471 q 552 428 517 446 q 617 384 588 411 q 667 317 647 357 q 688 222 688 278 m 486 833 l 264 833 l 97 1069 l 306 1069 l 375 958 l 444 1069 l 653 1069 l 486 833 z "},"Ü":{"ha":1111,"x_min":83,"x_max":1028,"o":"m 556 326 q 635 360 603 326 q 667 451 667 393 l 667 972 l 1028 972 l 1028 451 q 993 260 1028 347 q 896 111 958 174 q 747 14 833 49 q 556 -21 660 -21 q 365 14 451 -21 q 215 111 278 49 q 118 260 153 174 q 83 451 83 347 l 83 972 l 444 972 l 444 451 q 476 360 444 393 q 556 326 508 326 m 833 1194 q 797 1106 833 1142 q 708 1069 761 1069 q 619 1106 656 1069 q 583 1194 583 1142 q 619 1283 583 1247 q 708 1319 656 1319 q 797 1283 761 1319 q 833 1194 833 1247 m 528 1194 q 492 1106 528 1142 q 403 1069 456 1069 q 314 1106 350 1069 q 278 1194 278 1142 q 314 1283 278 1247 q 403 1319 350 1319 q 492 1283 456 1319 q 528 1194 528 1247 z "},"Ű":{"ha":1111,"x_min":83,"x_max":1028,"o":"m 556 326 q 635 360 603 326 q 667 451 667 393 l 667 972 l 1028 972 l 1028 451 q 993 260 1028 347 q 896 111 958 174 q 747 14 833 49 q 556 -21 660 -21 q 365 14 451 -21 q 215 111 278 49 q 118 260 153 174 q 83 451 83 347 l 83 972 l 444 972 l 444 451 q 476 360 444 393 q 556 326 508 326 m 444 1361 l 667 1361 l 472 1069 l 319 1069 l 444 1361 m 736 1361 l 958 1361 l 764 1069 l 611 1069 l 736 1361 z "},"ş":{"ha":715,"x_min":14,"x_max":688,"o":"m 688 222 q 669 134 688 176 q 615 59 651 92 q 526 6 579 26 q 403 -21 474 -15 l 375 -83 q 439 -97 408 -83 q 492 -133 469 -110 q 528 -186 515 -156 q 542 -250 542 -217 q 489 -380 542 -329 q 347 -431 436 -431 l 222 -431 l 222 -292 l 319 -292 q 348 -278 335 -292 q 361 -250 361 -265 q 348 -222 361 -235 q 319 -208 335 -208 l 236 -208 l 313 -21 q 181 8 236 -14 q 88 53 125 29 q 14 111 43 79 l 118 278 q 165 243 139 258 q 220 219 189 229 q 292 208 251 208 q 317 217 307 208 q 326 236 326 225 q 306 256 326 246 q 256 278 286 265 q 191 308 226 290 q 126 352 156 325 q 76 419 96 379 q 56 514 56 458 q 76 608 56 564 q 138 685 97 651 q 240 738 179 718 q 382 757 301 757 q 509 738 453 757 q 606 697 565 719 q 688 639 651 672 l 583 472 q 546 500 567 488 q 503 519 528 511 q 451 528 479 528 q 426 519 436 528 q 417 500 417 511 q 437 480 417 489 q 487 458 457 471 q 552 428 517 446 q 617 384 588 411 q 667 317 647 357 q 688 222 688 278 z "},"ș":{"ha":715,"x_min":14,"x_max":688,"o":"m 688 222 q 667 128 688 172 q 605 51 646 85 q 503 -1 564 18 q 361 -21 442 -21 q 210 -1 274 -21 q 101 44 146 19 q 14 111 50 74 l 118 278 q 165 243 139 258 q 220 219 189 229 q 292 208 251 208 q 317 217 307 208 q 326 236 326 225 q 306 256 326 246 q 256 278 286 265 q 191 308 226 290 q 126 352 156 325 q 76 419 96 379 q 56 514 56 458 q 76 608 56 564 q 138 685 97 651 q 240 738 179 718 q 382 757 301 757 q 509 738 453 757 q 606 697 565 719 q 688 639 651 672 l 583 472 q 546 500 567 488 q 503 519 528 511 q 451 528 479 528 q 426 519 436 528 q 417 500 417 511 q 437 480 417 489 q 487 458 457 471 q 552 428 517 446 q 617 384 588 411 q 667 317 647 357 q 688 222 688 278 m 493 -319 l 396 -528 l 285 -528 l 340 -361 l 229 -361 l 229 -111 l 493 -111 l 493 -319 z "},"Ū":{"ha":1111,"x_min":83,"x_max":1028,"o":"m 556 326 q 635 360 603 326 q 667 451 667 393 l 667 972 l 1028 972 l 1028 451 q 993 260 1028 347 q 896 111 958 174 q 747 14 833 49 q 556 -21 660 -21 q 365 14 451 -21 q 215 111 278 49 q 118 260 153 174 q 83 451 83 347 l 83 972 l 444 972 l 444 451 q 476 360 444 393 q 556 326 508 326 m 340 1292 l 771 1292 l 771 1097 l 340 1097 l 340 1292 z "},"Ų":{"ha":1111,"x_min":83,"x_max":1028,"o":"m 556 326 q 635 360 603 326 q 667 451 667 393 l 667 972 l 1028 972 l 1028 451 q 1003 292 1028 365 q 934 161 978 219 q 828 62 890 103 q 694 0 767 21 q 662 -24 683 -6 q 618 -69 640 -43 q 579 -125 596 -96 q 563 -181 563 -154 q 571 -200 563 -192 q 590 -208 579 -208 l 674 -208 l 674 -375 l 535 -375 q 468 -363 499 -375 q 415 -331 438 -351 q 381 -282 393 -310 q 368 -222 368 -254 q 396 -132 368 -169 q 458 -69 424 -94 q 549 -21 497 -40 q 360 15 446 -19 q 213 113 275 50 q 117 261 151 175 q 83 451 83 347 l 83 972 l 444 972 l 444 451 q 476 360 444 393 q 556 326 508 326 z "},"Ů":{"ha":1111,"x_min":83,"x_max":1028,"o":"m 556 326 q 635 360 603 326 q 667 451 667 393 l 667 972 l 1028 972 l 1028 451 q 993 260 1028 347 q 896 111 958 174 q 747 14 833 49 q 556 -21 660 -21 q 365 14 451 -21 q 215 111 278 49 q 118 260 153 174 q 83 451 83 347 l 83 972 l 444 972 l 444 451 q 476 360 444 393 q 556 326 508 326 m 375 1236 q 426 1366 375 1315 q 556 1417 476 1417 q 685 1366 635 1417 q 736 1236 736 1315 q 685 1106 736 1157 q 556 1056 635 1056 q 426 1106 476 1056 q 375 1236 375 1157 m 500 1236 q 517 1198 500 1215 q 556 1181 535 1181 q 594 1198 576 1181 q 611 1236 611 1215 q 594 1274 611 1257 q 556 1292 576 1292 q 517 1274 535 1292 q 500 1236 500 1257 z "},"ť":{"ha":819,"x_min":28,"x_max":847,"o":"m 28 458 l 28 736 l 125 736 l 125 972 l 458 972 l 458 736 l 583 736 l 583 458 l 458 458 l 458 340 q 477 278 458 299 q 528 257 496 257 q 548 258 539 257 q 565 260 557 258 q 583 264 574 261 l 583 -14 q 547 -21 567 -18 q 508 -26 531 -24 q 458 -28 485 -28 q 213 65 301 -28 q 125 340 125 157 l 125 458 l 28 458 m 847 778 l 750 569 l 639 569 l 694 736 l 583 736 l 583 986 l 847 986 l 847 778 z "},"ţ":{"ha":653,"x_min":28,"x_max":583,"o":"m 28 458 l 28 736 l 125 736 l 125 972 l 458 972 l 458 736 l 583 736 l 583 458 l 458 458 l 458 340 q 477 278 458 299 q 528 257 496 257 q 548 258 539 257 q 565 260 557 258 q 583 264 574 261 l 583 -14 q 547 -21 567 -18 q 508 -26 531 -24 q 458 -28 485 -28 q 213 65 301 -28 q 125 340 125 157 l 125 458 l 28 458 m 500 -319 l 403 -528 l 292 -528 l 347 -361 l 236 -361 l 236 -111 l 500 -111 l 500 -319 z "},"Ź":{"ha":958,"x_min":69,"x_max":889,"o":"m 528 306 l 889 306 l 889 0 l 69 0 l 69 6 l 69 306 l 417 667 l 97 667 l 97 972 l 875 972 l 875 667 l 528 306 m 500 1361 l 792 1361 l 597 1069 l 375 1069 l 500 1361 z "},"Ž":{"ha":958,"x_min":69,"x_max":889,"o":"m 528 306 l 889 306 l 889 0 l 69 0 l 69 6 l 69 306 l 417 667 l 97 667 l 97 972 l 875 972 l 875 667 l 528 306 m 597 1069 l 375 1069 l 208 1306 l 417 1306 l 486 1194 l 556 1306 l 764 1306 l 597 1069 z "},"ý":{"ha":819,"x_min":0,"x_max":819,"o":"m 243 0 l 0 736 l 347 736 l 410 347 l 472 736 l 819 736 l 556 -56 q 489 -216 524 -150 q 412 -324 454 -282 q 318 -384 369 -365 q 201 -403 267 -403 q 133 -394 165 -403 q 75 -375 100 -386 q 21 -347 46 -362 l 97 -104 q 111 -111 104 -108 q 146 -118 125 -118 q 192 -100 172 -118 q 222 -56 213 -82 l 243 0 m 417 1125 l 708 1125 l 514 833 l 292 833 l 417 1125 z "},"ÿ":{"ha":819,"x_min":0,"x_max":819,"o":"m 243 0 l 0 736 l 347 736 l 410 347 l 472 736 l 819 736 l 556 -56 q 489 -216 524 -150 q 412 -324 454 -282 q 318 -384 369 -365 q 201 -403 267 -403 q 133 -394 165 -403 q 75 -375 100 -386 q 21 -347 46 -362 l 97 -104 q 111 -111 104 -108 q 146 -118 125 -118 q 192 -100 172 -118 q 222 -56 213 -82 l 243 0 m 694 958 q 658 869 694 906 q 569 833 622 833 q 481 869 517 833 q 444 958 444 906 q 481 1047 444 1011 q 569 1083 517 1083 q 658 1047 622 1083 q 694 958 694 1011 m 389 958 q 353 869 389 906 q 264 833 317 833 q 175 869 211 833 q 139 958 139 906 q 175 1047 139 1011 q 264 1083 211 1083 q 353 1047 317 1083 q 389 958 389 1011 z "},"Ż":{"ha":958,"x_min":69,"x_max":889,"o":"m 528 306 l 889 306 l 889 0 l 69 0 l 69 6 l 69 306 l 417 667 l 97 667 l 97 972 l 875 972 l 875 667 l 528 306 m 333 1208 q 374 1307 333 1267 q 472 1347 414 1347 q 571 1307 531 1347 q 611 1208 611 1267 q 571 1110 611 1150 q 472 1069 531 1069 q 374 1110 414 1069 q 333 1208 333 1150 z "},"ú":{"ha":917,"x_min":69,"x_max":847,"o":"m 319 -21 q 222 1 267 -21 q 142 67 176 22 q 89 181 108 111 q 69 347 69 251 l 69 736 l 403 736 l 403 347 q 420 285 403 306 q 458 264 438 264 q 497 285 479 264 q 514 347 514 306 l 514 736 l 847 736 l 847 0 l 528 0 l 500 83 q 457 31 482 54 q 401 -5 435 11 q 319 -21 367 -21 m 472 1125 l 764 1125 l 569 833 l 347 833 l 472 1125 z "},"û":{"ha":917,"x_min":69,"x_max":847,"o":"m 319 -21 q 222 1 267 -21 q 142 67 176 22 q 89 181 108 111 q 69 347 69 251 l 69 736 l 403 736 l 403 347 q 420 285 403 306 q 458 264 438 264 q 497 285 479 264 q 514 347 514 306 l 514 736 l 847 736 l 847 0 l 528 0 l 500 83 q 457 31 482 54 q 401 -5 435 11 q 319 -21 367 -21 m 736 833 l 528 833 l 458 944 l 389 833 l 181 833 l 347 1069 l 569 1069 l 736 833 z "},"ü":{"ha":917,"x_min":69,"x_max":847,"o":"m 319 -21 q 222 1 267 -21 q 142 67 176 22 q 89 181 108 111 q 69 347 69 251 l 69 736 l 403 736 l 403 347 q 420 285 403 306 q 458 264 438 264 q 497 285 479 264 q 514 347 514 306 l 514 736 l 847 736 l 847 0 l 528 0 l 500 83 q 457 31 482 54 q 401 -5 435 11 q 319 -21 367 -21 m 736 958 q 700 869 736 906 q 611 833 664 833 q 522 869 558 833 q 486 958 486 906 q 522 1047 486 1011 q 611 1083 558 1083 q 700 1047 664 1083 q 736 958 736 1011 m 431 958 q 394 869 431 906 q 306 833 358 833 q 217 869 253 833 q 181 958 181 906 q 217 1047 181 1011 q 306 1083 253 1083 q 394 1047 358 1083 q 431 958 431 1011 z "},"ű":{"ha":917,"x_min":69,"x_max":875,"o":"m 319 -21 q 222 1 267 -21 q 142 67 176 22 q 89 181 108 111 q 69 347 69 251 l 69 736 l 403 736 l 403 347 q 420 285 403 306 q 458 264 438 264 q 497 285 479 264 q 514 347 514 306 l 514 736 l 847 736 l 847 0 l 528 0 l 500 83 q 457 31 482 54 q 401 -5 435 11 q 319 -21 367 -21 m 361 1125 l 583 1125 l 389 833 l 236 833 l 361 1125 m 653 1125 l 875 1125 l 681 833 l 528 833 l 653 1125 z "},"ū":{"ha":917,"x_min":69,"x_max":847,"o":"m 319 -21 q 222 1 267 -21 q 142 67 176 22 q 89 181 108 111 q 69 347 69 251 l 69 736 l 403 736 l 403 347 q 420 285 403 306 q 458 264 438 264 q 497 285 479 264 q 514 347 514 306 l 514 736 l 847 736 l 847 0 l 528 0 l 500 83 q 457 31 482 54 q 401 -5 435 11 q 319 -21 367 -21 m 243 1056 l 674 1056 l 674 861 l 243 861 l 243 1056 z "},"ų":{"ha":917,"x_min":69,"x_max":847,"o":"m 319 -21 q 222 1 267 -21 q 142 67 176 22 q 89 181 108 111 q 69 347 69 251 l 69 736 l 403 736 l 403 347 q 420 285 403 306 q 458 264 438 264 q 497 285 479 264 q 514 347 514 306 l 514 736 l 847 736 l 847 0 q 778 -64 808 -32 q 730 -123 751 -92 q 708 -181 708 -154 q 717 -200 708 -192 q 736 -208 725 -208 l 819 -208 l 819 -375 l 681 -375 q 614 -363 644 -375 q 561 -331 583 -351 q 526 -282 539 -310 q 514 -222 514 -254 q 524 -169 514 -193 q 550 -124 533 -144 q 588 -85 567 -103 q 632 -54 610 -68 q 750 0 683 -22 l 528 0 l 500 83 q 457 31 482 54 q 401 -5 435 11 q 319 -21 367 -21 z "},"ů":{"ha":917,"x_min":69,"x_max":847,"o":"m 319 -21 q 222 1 267 -21 q 142 67 176 22 q 89 181 108 111 q 69 347 69 251 l 69 736 l 403 736 l 403 347 q 420 285 403 306 q 458 264 438 264 q 497 285 479 264 q 514 347 514 306 l 514 736 l 847 736 l 847 0 l 528 0 l 500 83 q 457 31 482 54 q 401 -5 435 11 q 319 -21 367 -21 m 278 1000 q 328 1130 278 1079 q 458 1181 379 1181 q 588 1130 538 1181 q 639 1000 639 1079 q 588 870 639 921 q 458 819 538 819 q 328 870 379 819 q 278 1000 278 921 m 403 1000 q 420 962 403 979 q 458 944 438 944 q 497 962 479 944 q 514 1000 514 979 q 497 1038 514 1021 q 458 1056 479 1056 q 420 1038 438 1056 q 403 1000 403 1021 z "},"ź":{"ha":778,"x_min":56,"x_max":722,"o":"m 458 264 l 722 264 l 722 0 l 56 0 l 56 264 l 306 472 l 69 472 l 69 736 l 708 736 l 708 472 l 458 264 m 403 1125 l 694 1125 l 500 833 l 278 833 l 403 1125 z "},"ž":{"ha":778,"x_min":56,"x_max":722,"o":"m 458 264 l 722 264 l 722 0 l 56 0 l 56 264 l 306 472 l 69 472 l 69 736 l 708 736 l 708 472 l 458 264 m 500 833 l 278 833 l 111 1069 l 319 1069 l 389 958 l 458 1069 l 667 1069 l 500 833 z "},"ż":{"ha":778,"x_min":56,"x_max":722,"o":"m 458 264 l 722 264 l 722 0 l 56 0 l 56 264 l 306 472 l 69 472 l 69 736 l 708 736 l 708 472 l 458 264 m 250 972 q 290 1071 250 1031 q 389 1111 331 1111 q 488 1071 447 1111 q 528 972 528 1031 q 488 874 528 914 q 389 833 447 833 q 290 874 331 833 q 250 972 250 914 z "},"]":{"ha":569,"x_min":42,"x_max":458,"o":"m 194 28 l 194 750 l 42 750 l 42 972 l 458 972 l 458 -194 l 42 -194 l 42 28 l 194 28 z "},"\\":{"ha":764,"x_min":28,"x_max":736,"o":"m 472 -111 l 28 1083 l 292 1083 l 736 -111 l 472 -111 z "},"‹":{"ha":472,"x_min":56,"x_max":417,"o":"m 56 375 l 208 694 l 417 694 l 264 375 l 417 56 l 208 56 l 56 375 z "},")":{"ha":556,"x_min":0,"x_max":472,"o":"m 181 389 q 152 615 181 510 q 90 800 124 721 q 0 972 50 893 l 181 972 q 326 815 261 903 q 379 731 353 778 q 426 631 406 685 q 460 517 447 578 q 472 389 472 457 q 460 260 472 321 q 426 144 447 199 q 379 44 406 90 q 326 -39 353 -1 q 181 -194 261 -128 l 0 -194 q 90 -22 50 -115 q 152 163 124 57 q 181 389 181 268 z "},"'":{"ha":361,"x_min":56,"x_max":306,"o":"m 264 625 l 97 625 l 56 1028 l 306 1028 l 264 625 z "},">":{"ha":833,"x_min":56,"x_max":778,"o":"m 778 486 l 778 250 l 56 0 l 56 236 l 486 368 l 56 500 l 56 736 l 778 486 z "},"Є":{"ha":986,"x_min":56,"x_max":958,"o":"m 569 993 q 742 969 669 993 q 863 917 814 944 q 958 840 918 882 l 806 604 q 751 642 781 625 q 694 669 726 657 q 625 681 661 681 q 547 667 578 681 q 499 639 517 654 q 465 597 476 621 l 694 597 l 694 375 l 465 375 q 499 333 476 351 q 547 305 517 318 q 625 292 578 292 q 694 303 661 292 q 751 329 726 314 q 806 368 781 346 l 958 132 q 863 56 918 89 q 742 3 814 26 q 569 -21 669 -21 q 366 18 460 -21 q 203 126 272 57 q 95 287 135 194 q 56 486 56 379 q 95 685 56 593 q 203 847 135 778 q 366 954 272 915 q 569 993 460 993 z "},"є":{"ha":778,"x_min":42,"x_max":764,"o":"m 451 757 q 585 738 526 757 q 683 697 643 719 q 764 639 729 672 l 653 458 q 608 489 632 475 q 562 510 589 500 q 507 521 535 521 q 447 510 471 521 q 408 486 424 499 q 382 451 392 471 l 563 451 l 563 285 l 382 285 q 408 250 392 265 q 447 226 424 236 q 507 215 471 215 q 562 225 535 215 q 608 246 589 235 q 653 278 632 260 l 764 97 q 683 38 729 63 q 585 -3 643 15 q 451 -21 526 -21 q 288 10 363 -21 q 158 93 213 40 q 72 217 103 146 q 42 368 42 288 q 72 519 42 449 q 158 643 103 590 q 288 726 213 696 q 451 757 363 757 z "},"­":{"ha":681,"x_min":42,"x_max":639,"o":"m 42 583 l 639 583 l 639 319 l 42 319 l 42 583 z "},"":{"ha":639,"x_min":42,"x_max":597,"o":"m 319 1278 q 370 1297 351 1278 q 389 1347 389 1315 l 597 1347 q 577 1233 597 1285 q 521 1146 557 1182 q 433 1090 485 1110 q 319 1069 382 1069 q 206 1090 257 1069 q 118 1146 154 1110 q 62 1233 82 1182 q 42 1347 42 1285 l 250 1347 q 269 1297 250 1315 q 319 1278 288 1278 z "},"":{"ha":611,"x_min":42,"x_max":569,"o":"m 306 1042 q 361 1097 361 1042 l 569 1097 q 498 905 569 976 q 306 833 426 833 q 113 905 185 833 q 42 1097 42 976 l 250 1097 q 306 1042 250 1042 z "},"−":{"ha":681,"x_min":42,"x_max":639,"o":"m 42 583 l 639 583 l 639 319 l 42 319 l 42 583 z "},"²":{"ha":653,"x_min":28,"x_max":597,"o":"m 597 472 l 597 278 l 56 278 l 56 458 q 201 554 136 507 q 254 597 228 575 q 301 640 281 618 q 335 683 322 663 q 347 722 347 704 q 292 778 347 778 q 232 769 260 778 q 183 750 204 761 q 139 722 158 738 l 28 889 q 99 938 57 915 q 186 971 135 956 q 306 986 238 986 q 433 969 378 986 q 524 922 488 951 q 579 851 561 892 q 597 764 597 811 q 565 648 597 701 q 493 556 532 594 q 389 472 447 510 l 597 472 z "},"⁴":{"ha":722,"x_min":42,"x_max":694,"o":"m 694 389 l 625 389 l 625 278 l 375 278 l 375 389 l 42 389 l 42 583 l 278 972 l 625 972 l 625 583 l 694 583 l 694 389 m 375 764 l 278 583 l 375 583 l 375 764 z "},"⁄":{"ha":542,"x_min":56,"x_max":486,"o":"m 208 0 l 56 0 l 333 972 l 486 972 l 208 0 z "},"³":{"ha":653,"x_min":28,"x_max":597,"o":"m 597 486 q 579 399 597 439 q 524 328 561 358 q 433 281 488 299 q 306 264 378 264 q 186 278 238 264 q 99 313 135 293 q 28 361 57 333 l 139 528 q 183 500 158 513 q 232 481 204 489 q 292 472 260 472 q 333 485 318 472 q 347 514 347 499 q 333 542 347 529 q 292 556 318 556 l 181 556 l 181 681 l 319 778 l 69 778 l 69 972 l 583 972 l 583 778 l 444 681 q 521 640 486 665 q 573 581 549 618 q 597 486 597 544 z "},"°":{"ha":722,"x_min":56,"x_max":667,"o":"m 278 694 q 303 625 278 653 q 361 597 329 597 q 419 625 393 597 q 444 694 444 653 q 419 764 444 736 q 361 792 393 792 q 303 764 329 792 q 278 694 278 736 m 56 694 q 78 810 56 757 q 140 903 100 864 q 237 964 181 942 q 361 986 293 986 q 485 964 429 986 q 582 903 542 942 q 644 810 622 864 q 667 694 667 757 q 644 578 667 632 q 582 486 622 525 q 485 425 542 447 q 361 403 429 403 q 237 425 293 403 q 140 486 181 447 q 78 578 100 525 q 56 694 56 632 z "},"¡":{"ha":528,"x_min":83,"x_max":444,"o":"m 132 375 l 396 375 l 444 -347 l 83 -347 l 132 375 m 118 458 l 118 736 l 410 736 l 410 458 l 118 458 z "},"¿":{"ha":750,"x_min":28,"x_max":792,"o":"m 28 -56 q 45 37 28 -4 q 89 112 63 78 q 146 176 115 146 q 203 236 176 206 q 247 300 229 267 q 264 375 264 333 l 556 375 q 543 273 556 317 q 513 197 531 229 q 472 139 494 164 q 432 90 450 114 q 401 42 414 67 q 389 -14 389 17 q 406 -52 389 -35 q 444 -69 424 -69 q 487 -56 471 -69 q 513 -28 503 -43 q 528 14 524 -10 l 792 -83 q 722 -215 771 -158 q 672 -264 701 -240 q 604 -306 643 -287 q 515 -336 565 -325 q 403 -347 465 -347 q 244 -323 314 -347 q 127 -258 175 -299 q 53 -165 79 -218 q 28 -56 28 -112 m 264 458 l 264 736 l 556 736 l 556 458 l 264 458 z "},"‘":{"ha":444,"x_min":28,"x_max":417,"o":"m 28 556 l 194 972 l 417 972 l 319 556 l 28 556 z "},"’":{"ha":444,"x_min":28,"x_max":417,"o":"m 417 972 l 250 556 l 28 556 l 125 972 l 417 972 z "},"…":{"ha":1181,"x_min":56,"x_max":1125,"o":"m 1125 278 l 1125 0 l 833 0 l 833 278 l 1125 278 m 736 278 l 736 0 l 444 0 l 444 278 l 736 278 m 347 278 l 347 0 l 56 0 l 56 278 l 347 278 z "},"‚":{"ha":417,"x_min":0,"x_max":389,"o":"m 389 278 l 222 -139 l 0 -139 l 97 278 l 389 278 z "},"„":{"ha":736,"x_min":0,"x_max":708,"o":"m 375 278 l 208 -139 l 0 -139 l 97 278 l 375 278 m 708 278 l 542 -139 l 333 -139 l 431 278 l 708 278 z "},"‰":{"ha":1556,"x_min":28,"x_max":1528,"o":"m 83 0 l 736 972 l 1014 972 l 361 0 l 83 0 m 250 833 q 212 815 229 833 q 194 764 194 796 q 212 713 194 732 q 250 694 229 694 q 288 713 271 694 q 306 764 306 732 q 288 815 306 796 q 250 833 271 833 m 250 542 q 163 559 203 542 q 92 606 122 576 q 45 676 63 636 q 28 764 28 717 q 45 851 28 811 q 92 922 63 892 q 163 969 122 951 q 250 986 203 986 q 338 969 297 986 q 408 922 378 951 q 455 851 438 892 q 472 764 472 811 q 455 676 472 717 q 408 606 438 636 q 338 559 378 576 q 250 542 297 542 m 833 278 q 795 259 813 278 q 778 208 778 240 q 795 158 778 176 q 833 139 813 139 q 872 158 854 139 q 889 208 889 176 q 872 259 889 240 q 833 278 854 278 m 833 -14 q 746 3 786 -14 q 676 51 706 21 q 628 121 646 81 q 611 208 611 161 q 628 296 611 256 q 676 366 646 336 q 746 413 706 396 q 833 431 786 431 q 921 413 881 431 q 991 366 961 396 q 1038 296 1021 336 q 1056 208 1056 256 q 1038 121 1056 161 q 991 51 1021 81 q 921 3 961 21 q 833 -14 881 -14 m 1306 278 q 1267 259 1285 278 q 1250 208 1250 240 q 1267 158 1250 176 q 1306 139 1285 139 q 1344 158 1326 139 q 1361 208 1361 176 q 1344 259 1361 240 q 1306 278 1326 278 m 1306 -14 q 1218 3 1258 -14 q 1148 51 1178 21 q 1101 121 1118 81 q 1083 208 1083 161 q 1101 296 1083 256 q 1148 366 1118 336 q 1218 413 1178 396 q 1306 431 1258 431 q 1393 413 1353 431 q 1463 366 1433 396 q 1510 296 1493 336 q 1528 208 1528 256 q 1510 121 1528 161 q 1463 51 1493 81 q 1393 3 1433 21 q 1306 -14 1353 -14 z "},"ẞ":{"ha":1049,"x_min":69,"x_max":1007,"o":"m 646 313 q 622 367 646 344 q 556 389 597 389 l 507 389 l 507 569 l 632 681 l 500 681 q 452 657 474 681 q 431 597 431 633 l 431 0 l 69 0 l 69 583 q 98 744 69 672 q 181 866 126 815 q 315 944 235 917 q 500 972 396 972 l 910 972 l 910 681 l 771 556 q 889 501 836 538 q 932 465 911 486 q 969 418 953 444 q 997 358 986 392 q 1007 285 1007 325 q 984 156 1007 214 q 915 58 961 99 q 802 -6 869 17 q 646 -28 735 -28 q 590 -26 617 -28 q 544 -21 564 -24 q 500 -14 521 -18 l 500 229 l 556 229 q 622 253 597 229 q 646 313 646 276 z "},"₽":{"ha":1042,"x_min":56,"x_max":1000,"o":"m 56 347 l 153 347 l 153 403 l 56 403 l 56 582 l 153 582 l 153 972 q 278 979 211 975 q 411 984 336 982 q 569 986 486 986 q 765 964 683 986 q 899 902 847 942 q 976 808 951 863 q 1000 688 1000 753 q 977 576 1000 628 q 908 485 954 524 q 795 425 863 447 q 639 403 728 403 l 514 403 l 514 347 l 806 347 l 806 167 l 514 167 l 514 0 l 153 0 l 153 167 l 56 167 l 56 347 m 569 597 q 620 615 601 597 q 639 660 639 633 q 620 704 639 686 q 569 722 601 722 l 514 722 l 514 597 l 569 597 z "},"\u0000":{"ha":0,"x_min":0,"x_max":0,"o":""},"\r":{"ha":0,"x_min":0,"x_max":0,"o":""}," ":{"ha":0,"x_min":0,"x_max":0,"o":""},"C":{"ha":986,"x_min":56,"x_max":958,"o":"m 56 486 q 95 685 56 593 q 203 847 135 778 q 366 954 272 915 q 569 993 460 993 q 742 969 669 993 q 863 917 814 944 q 958 840 918 882 l 792 576 q 738 614 767 597 q 680 641 713 629 q 611 653 647 653 q 491 606 538 653 q 444 486 444 560 q 491 366 444 413 q 611 319 538 319 q 680 331 647 319 q 738 357 713 342 q 792 396 767 374 l 958 132 q 863 56 918 89 q 742 3 814 26 q 569 -21 669 -21 q 366 18 460 -21 q 203 126 272 57 q 95 287 135 194 q 56 486 56 379 z "}}}
